<svg clip-rule="evenodd" fill-rule="evenodd" height="300" image-rendering="optimizeQuality" shape-rendering="geometricPrecision" text-rendering="geometricPrecision" viewBox="0 0 2000 2000" width="300" xmlns="http://www.w3.org/2000/svg" version="1.1" xmlns:xlink="http://www.w3.org/1999/xlink" xmlns:svgjs="http://svgjs.dev/svgjs"><g width="100%" height="100%" transform="matrix(1,0,0,1,0,0)"><g id="Layer_x0020_1"><path d="m885 1606c-68 0-124-56-124-124 0-108 129-164 208-91v-139l-269 29v234c0 68-56 124-124 124s-124-56-124-124c0-108 129-164 208-91v-268c1-12 8-19 19-20l310-33c11 0 20 9 20 20v359c0 68-56 124-124 124zm274-162-30-62-61-30c-15-7-15-28 0-36l61-29 30-62c8-15 29-15 36 0l30 62 62 29c15 8 15 29 0 36l-62 30-30 62c-7 15-29 15-36 0zm-36-110c43 21 33 11 54 55 21-44 11-34 55-55-44-21-34-10-55-54-21 44-11 33-54 54zm-871 236-29-61-62-30c-15-7-15-29 0-36l62-30 30-61c7-16 28-16 36 0l29 61 62 30c15 7 15 29 0 36l-62 30-29 61c-8 15-29 16-37 0zm-36-109c43 21 33 11 54 55 21-44 11-34 55-55-44-21-34-11-55-54-21 43-11 33-54 54zm553-412-29-61-62-30c-15-7-15-29 0-36l62-30 29-62c8-15 29-15 36 0l30 62 62 30c15 7 15 29 0 36l-62 30-30 61c-7 15-28 15-36 0zm-36-109c44 21 33 11 54 54 21-43 11-33 55-54-44-21-34-11-55-55-21 44-11 34-54 55zm1097 913h-1660c-11 0-20-9-20-20v-169c0-11 9-20 20-20 53 0 101 62 138 62s85-62 138-62c54 0 102 62 139 62s85-62 138-62c54 0 102 62 139 62s84-62 138-62 101 62 138 62c52 0 98-97 187-48 123-432 56-772 14-955-134 138-59 354-58 357 5 15-11 31-26 25-178-66-233-313-123-441-109 71-148 214-150 222-5 17-28 20-37 5-104-175 12-421 184-435-134-35-262 54-269 59-14 11-34-2-32-19 36-226 355-324 482-141 46-219 383-255 505-63 9 15-4 34-21 30-10-2-191-39-305 65 175-73 401 120 354 334-3 17-26 21-35 7-6-8-140-195-335-146 136 261 150 898 150 1109 63 42 66 49 127 7 25-16 51-34 80-34 11 0 20 9 20 20v169c0 11-9 20-20 20zm-470-172c53 35 61 33 113-3 38-25 68-44 111-28-2-235-20-861-157-1090-7-10-2-25 10-29 177-61 315 55 373 118 6-196-253-363-390-175-13 18-42 3-35-19 72-196 273-205 367-198-137-139-439-65-404 162 4 25-32 33-39 8-59-224-359-170-429 10 81-41 259-104 402 47 16 17-7 44-26 30-187-136-362 111-296 295 37-88 136-267 344-243 24 3 22 39-2 40-235 12-235 322-70 423-18-82-36-264 107-379 11-9 28-3 32 11 38 163 128 544-11 1020zm-1170 132h1620v-124c-36 15-73 57-118 57-54 0-102-62-139-62s-84 62-138 62-101-62-139-62c-37 0-84 62-138 62s-101-62-138-62-85 62-139 62c-53 0-101-62-138-62s-85 62-138 62c-54 0-102-62-139-62s-84 62-138 62c-45 0-83-42-119-57zm126-1071c-16 0-25-17-18-30 14-24 26-56 49-43s-1 40-14 63c-3 7-10 10-17 10zm-107-107c-20 0-28-27-10-37 24-14 50-37 63-14 14 23-20 35-43 48-3 2-7 3-10 3zm3-146c-28 0-62 6-62-20s34-20 62-20c26 0 26 40 0 40zm33-125c-9 0-35-17-46-24-23-13-3-48 20-35 24 14 56 26 43 49-3 6-10 10-17 10zm92-92c-17 0-25-24-38-46-14-23 21-43 34-20 14 23 37 51 14 63-3 2-7 3-10 3zm125 509c-26 0-20-34-20-61s40-27 40 0 6 61-20 61zm146-39c-17 0-25-24-38-46-13-23 22-43 35-20 14 24 36 50 13 63-3 2-6 3-10 3zm107-107c-9 0-34-17-46-23-23-14-3-48 20-35 24 14 57 25 44 48-4 7-11 10-18 10zm40-146c-28 0-62 6-62-20s34-20 62-20c26 0 26 40 0 40zm-76-125c-20 0-28-27-10-38 24-14 50-36 64-13 13 22-20 34-44 48-3 2-6 3-10 3zm-92-92c-15 0-25-17-17-30 14-24 26-57 48-44 23 14 0 41-13 64-4 6-11 10-18 10zm-125-34c-26 0-20-34-20-61s40-27 40 0 6 61-20 61zm-83 251c-47 0-11-123 83-123 26 0 26 40 0 40-35 0-63 28-63 63 0 11-9 20-20 20zm83 184c-112 0-204-92-204-204s92-204 204-204 204 92 204 204-92 204-204 204zm0-368c-90 0-164 74-164 164s74 164 164 164 164-74 164-164-74-164-164-164zm507 907v-67l-269 29v67zm-633-337 250-26c11 0 20 8 20 20v289c0 57-47 103-104 103s-103-46-103-103c0-86 99-135 167-82v-99l-209 22v186c0 57-47 103-104 103s-103-46-103-103c0-87 99-135 167-82v-211c2-9 9-16 19-17zm21 84 209-22v-46l-209 22zm-104 162c-83 0-83 127 0 127 84 0 84-127 0-127zm249-27c-83 0-83 127 0 127 84 0 84-127 0-127zm74 337c-46 0-84 38-84 84s38 84 84 84 84-38 84-84-38-84-84-84zm309-33c-46 0-84 38-84 84s38 84 84 84 84-38 84-84-38-84-84-84z" fill="#000000" fill-opacity="1" data-original-color="#000000ff" stroke="none" stroke-opacity="1"/><path d="m1276 1684c-37 0-84 62-138 62s-101-62-138-62-85 62-139 62c-53 0-101-62-138-62s-85 62-138 62c-54 0-102-62-139-62s-84 62-138 62c-45 0-83-42-119-57l1 124h1620v-124c-36 15-73 57-118 57-54 0-102-62-139-62s-84 62-138 62-101-62-139-62z" fill="#1d81ce" fill-opacity="1" data-original-color="#1d81ceff" stroke="none" stroke-opacity="1"/><path d="m1371 661c38 163 128 544-11 1020 53 35 61 33 113-3 38-25 68-44 111-28-2-235-20-861-157-1090-7-10-2-25 10-29 177-61 315 55 373 118 6-196-253-363-390-175-13 18-42 3-35-19 72-196 273-205 367-198-137-139-439-65-404 162 4 25-32 33-39 8-59-224-359-170-429 10 81-41 259-104 402 47 16 17-7 44-26 30-187-136-362 111-296 295 37-88 136-267 344-243 24 3 22 39-2 40-235 12-235 322-70 423-18-82-36-264 107-379 11-9 28-3 32 11z" fill="#7ed63f" fill-opacity="1" data-original-color="#7ed63fff" stroke="none" stroke-opacity="1"/><path d="m1232 1334c-44-21-34-10-55-54-21 44-11 33-54 54 43 21 33 11 54 55 21-44 11-34 55-55z" fill="#ffa721" fill-opacity="1" data-original-color="#ffa721ff" stroke="none" stroke-opacity="1"/><path d="m787 994c21-43 11-33 55-54-44-21-34-11-55-55-21 44-11 34-54 55 44 21 33 11 54 54z" fill="#ffa721" fill-opacity="1" data-original-color="#ffa721ff" stroke="none" stroke-opacity="1"/><path d="m502 1221c84 0 84-127 0-127-83 0-83 127 0 127z" fill="#caedff" fill-opacity="1" data-original-color="#ff3e1aff" stroke="none" stroke-opacity="1"/><path d="m253 1248c84 0 84-127 0-127-83 0-83 127 0 127z" fill="#caedff" fill-opacity="1" data-original-color="#ff3e1aff" stroke="none" stroke-opacity="1"/><path d="m325 1461c-44-21-34-11-55-54-21 43-11 33-54 54 43 21 33 11 54 55 21-44 11-34 55-55z" fill="#ffa721" fill-opacity="1" data-original-color="#ffa721ff" stroke="none" stroke-opacity="1"/><path d="m576 1431c-46 0-84 38-84 84s38 84 84 84 84-38 84-84-38-84-84-84z" fill="#caedff" fill-opacity="1" data-original-color="#ff3e1aff" stroke="none" stroke-opacity="1"/><path d="m885 1398c-46 0-84 38-84 84s38 84 84 84 84-38 84-84-38-84-84-84z" fill="#caedff" fill-opacity="1" data-original-color="#ff3e1aff" stroke="none" stroke-opacity="1"/><path d="m462 633c90 0 164-74 164-164s-74-164-164-164-164 74-164 164 74 164 164 164zm0-227c-35 0-63 28-63 63 0 11-9 20-20 20-47 0-11-123 83-123 26 0 26 40 0 40z" fill="#ffa721" fill-opacity="1" data-original-color="#ffa721ff" stroke="none" stroke-opacity="1"/><g fill="#ff3e1a"><path d="m969 1212v-67l-269 29v67z" fill="#caedff" fill-opacity="1" data-original-color="#ff3e1aff" stroke="none" stroke-opacity="1"/><path d="m566 937v-46l-209 22v46z" fill="#caedff" fill-opacity="1" data-original-color="#ff3e1aff" stroke="none" stroke-opacity="1"/></g></g></g></svg>