<svg id="hairstyle17" enable-background="new 0 0 300 300" height="300" viewBox="0 0 300 300" width="300" xmlns="http://www.w3.org/2000/svg" xmlns:xlink="http://www.w3.org/1999/xlink" version="1.1" xmlns:svgjs="http://svgjs.dev/svgjs"><g width="100%" height="100%" transform="matrix(1,0,0,1,0,0)"><linearGradient id="SVGID_1_" gradientUnits="userSpaceOnUse" x1="38.911" x2="223.401" y1="219.234" y2="34.744"><stop stop-opacity="1" stop-color="#48cebd" offset="0"/><stop stop-opacity="1" stop-color="#1d0f9c" offset="1"/></linearGradient><g><path d="m84.912 37.911c0-2.209 1.791-4 4-4s4 1.791 4 4-1.791 4-4 4-4-1.791-4-4zm-44.992 11.273 3.068-3.068 3.068 3.068c.781.781 1.805 1.172 2.828 1.172s2.047-.391 2.828-1.172c1.562-1.562 1.562-4.094 0-5.656l-3.068-3.068 3.068-3.068c1.562-1.562 1.562-4.094 0-5.656s-4.094-1.562-5.656 0l-3.068 3.068-3.068-3.068c-1.562-1.562-4.094-1.562-5.656 0-1.562 1.563-1.562 4.094 0 5.656l3.068 3.068-3.068 3.068c-1.562 1.562-1.562 4.094 0 5.656.781.781 1.805 1.172 2.828 1.172s2.047-.391 2.828-1.172zm8.992 84.727c-6.617 0-12-5.383-12-12s5.383-12 12-12 12 5.383 12 12-5.383 12-12 12zm4-12c0-2.205-1.793-4-4-4s-4 1.795-4 4 1.793 4 4 4 4-1.795 4-4zm213.785 37.402c-.402 1.584-1.375 2.83-2.73 3.51-2.047 1.021-6.883 1.742-10.645 2.172-.047 2.215-.059 5.029.098 6.973.23 2.938-1.152 5.141-3.309 6.621 1.535 2.391 2.375 5.287.535 8.045-.34.506-.895 1.229-1.598 2.131-2.852 3.662-8.789 11.279-9.109 18.863-.094 2.182-1.102 4.125-2.836 5.475-5.766 4.463-19.41 2.027-36.66-1.633-3.391-.719-7.469-1.582-9.484-1.836-1.109 2.17-3.09 8.814-5.973 28.566-.289 1.99-2 3.424-3.953 3.424-.191 0-.387-.014-.582-.041-2.184-.32-3.699-2.35-3.379-4.535 4.133-28.344 6.852-33.943 11.039-35.232 2.09-.648 5.031-.07 13.992 1.828 7.203 1.527 26.078 5.527 29.859 3.299.574-10 7.449-18.826 10.773-23.094.254-.322.48-.613.68-.873-.539-.84-1.746-2.141-2.844-3.02-1.273-1.02-1.801-2.711-1.332-4.273.473-1.564 1.844-2.686 3.469-2.834.938-.094 2.121-.438 2.699-.762-.27-4.178.016-10.615.027-10.898.09-2.002 1.648-3.629 3.645-3.805 3.355-.297 7.355-.814 9.672-1.285-.684-2.953-3.391-9.416-8.887-17.309-2.095-3.008-3.3-5.782-3.952-8.496-.19 0-.385-.014-.579-.041l-7.457-1.086c-2.184-.318-3.699-2.35-3.379-4.535.316-2.186 2.34-3.701 4.535-3.383l6.312.919c.128-2.041.383-4.135.668-6.361.633-4.914 1.344-10.482 1.09-18.168-.124-3.693-.848-7.102-1.831-10.202-3.703 7.459-10.238 13.235-18.649 15.911-23.109 7.352-38.285 28.645-38.438 28.859-.68.967-1.75 1.584-2.926 1.688-.117.01-.234.014-.348.014-1.055 0-2.074-.416-2.828-1.17l-9.567-9.566c-.097.115-.144.257-.257.363-1.609 1.512-4.137 1.436-5.648-.166-1.449-1.523-5.188-4.641-7.871-4.387-.582.047-1.371.275-2.305 1.639-2.727 3.994-4.465 11.371-.625 14.826 2.984 2.682 5.676 4.309 8.051 5.744 1.812 1.096 3.523 2.131 4.961 3.424.195.135 1.07.264 1.891-.152.707-.361.707-.779.707-1.029 0-2.209 1.789-4 4-4s4 1.791 4 4c0 3.703-2.082 6.838-5.566 8.391-.307.137-.628.199-.941.305v5.781c0 2.209-1.789 4-4 4s-4-1.791-4-4v-6.334c-.515-.29-1.004-.621-1.441-1.015-.871-.783-2.203-1.59-3.75-2.521-2.48-1.501-5.565-3.381-9.006-6.43l-9.671 11.433c4.304 11.666 1.216 21.089-.456 24.759 3.312 12.875-.492 23.428-2.496 27.732 5.641 11.982 1.453 23.045-2.645 28.816 5.824 14.904 5.898 25.262.246 31.623-4.008 4.508-9.988 5.654-15.031 5.654-5.004 0-9.086-1.127-9.422-1.223-.594-.17-1.145-.475-1.605-.895-3.812-3.482-3.488-15.023.953-34.314-3.647-5.89-4.175-12.426-3.662-17.95-1.549 3.628-3.719 6.583-5.76 8.593 2.59 13.982.879 23.082-5.203 27.777-2.953 2.281-6.398 3.047-9.699 3.047-6.199 0-11.875-2.703-12.797-3.162-.555-.277-1.035-.68-1.41-1.176-1.07-1.428-4.285-5.705 6.344-30.006-1.621-4.316-1.653-8.642-1.02-12.55-2.504 1.475-5.222 2.064-7.875 2.066-6.664 0-12.852-3.41-13.797-3.957-.539-.309-.996-.74-1.34-1.258-.984-1.488-3.938-5.951 8.125-29.574-3.16-10.223 1.996-20.154 4.691-24.379-2.973-8.557 4.598-19.303 8.316-23.879-1.613-4.781-.816-11.322 2.387-19.516-3.148-16.077.837-31.479 11.852-45.802 30.964-40.256 75.053-38.698 106.715-30.219 2.261-1.107 4.584-2.159 7.046-3.086 1.047-.387 2.199-.332 3.199.166l24 12c1.273.639 2.113 1.906 2.203 3.328.037.592-.086 1.163-.295 1.698.433.236.892.463 1.311.705 9.625 5.556 15.042 15.618 14.608 26.594 2.703 5.239 6.255 13.215 6.567 22.716.281 8.328-.512 14.496-1.145 19.449-1 7.779-1.5 11.684 2.477 17.395 5.631 8.078 11.697 19.498 10.271 25.096zm-133.801 16.002c.238-.406 6.066-10.691-1.332-23.957-1.078-1.93-.387-4.365 1.543-5.441h-.004c-.035 0 4.879-3.941.98-19.703-.531-2.145.777-4.312 2.922-4.844 2.141-.537 4.312.773 4.844 2.922 1.332 5.384 1.777 9.784 1.696 13.403l1.329-1.572c0-.051-.001-.087-.001-.14-.083-12.374 1.81-69.35 41.565-96.868-28.396-5.929-64.549-4.312-90.354 29.235-9.793 12.729-13.199 26.334-10.125 40.439.172.793.098 1.619-.211 2.371-3.07 7.484-3.891 13.49-2.191 16.062 1.012 1.529.852 3.551-.383 4.904-4.773 5.229-10.629 14.787-8.043 18.695.949 1.436.875 3.318-.188 4.674-.078.1-8.27 10.836-4.398 20.332.445 1.086.387 2.312-.152 3.355-4.711 9.062-8.617 18.869-9.074 22.57 3.215 1.441 9.008 3.246 12.348.959 3.734-2.555 4.836-10.352 3.109-21.957-.227-1.537.453-3.066 1.75-3.924.395-.268 10.059-6.992 6.77-19.227-.371-1.381.023-2.857 1.039-3.867.022-.026 3.572-3.739 5.691-9.957-4.84-12.85 1.52-24.389 5.996-29.021 1.531-1.588 4.07-1.631 5.656-.098 1.582 1.531 1.629 4.057.105 5.646-.457.484-9.953 10.783-3.012 23.428.629 1.148.656 2.535.07 3.709-3.691 7.418-7.492 19.732-4.379 23.883 1.102 1.465 1.062 3.494-.09 4.918-4.453 5.506-9.727 15.396-6.914 19.143 1.035 1.377 1.07 3.262.09 4.678-.07.104-7.609 11.311-3.18 20.557.504 1.059.523 2.287.043 3.359-4.16 9.328-7.473 19.35-7.711 23.07 3.293 1.25 9.188 2.699 12.383.223 3.574-2.773 4.211-10.621 1.797-22.102-.32-1.521.27-3.09 1.512-4.023.379-.291 9.629-7.58 5.617-19.594-.457-1.361-.145-2.863.812-3.934.285-.326 7.305-8.498 6.004-20.98-.113-1.121.246-2.24 1-3.08.065-.075.523-.618 1.11-1.582-1.843-8.923.433-20.088 1.593-24.775-9.863-13.607-4.984-28.729-.84-35.033 1.219-1.844 3.699-2.354 5.539-1.145 1.844 1.211 2.359 3.684 1.156 5.527-.398.615-9.012 14.336 1.598 27.221.836 1.012 1.121 2.371.762 3.633-.254.898-.494 1.862-.724 2.852.02.051.062.086.08.138 3.253 9.742 1.51 17.493-.654 22.444.414 1.02.93 1.882 1.595 2.49 1.352 1.236 1.691 3.236.82 4.852-3.121 5.807-8.102 19.145-3.551 23.301 1.273 1.16 1.66 3.006.961 4.578-.059.135-6.195 14.404.832 23.979.695.945.941 2.148.668 3.291-2.812 11.869-4.363 23.842-3.68 27.764 4.023.791 11.32 1.295 14.629-2.449 3.52-3.977 2.617-13.006-2.551-25.426-.594-1.434-.305-3.086.742-4.232.371-.416 9.344-10.688 2.191-23.506-.699-1.254-.676-2.785.066-4.014.055-.096 6.441-11.139 2.32-24.943-.321-1.08-.173-2.246.409-3.211zm97.024-120.322c-.895-.516-1.824-1.018-2.797-1.504-.375-.188-.772-.378-1.157-.567-11.115 8.197-37.892 29.449-57.249 57 .01 0 .018-.006.027-.007 1.113-.049 2.207.377 2.996 1.168l12.797 12.795c5.789-7.002 19.898-21.865 39.664-28.154 9.039-2.877 15.285-10.475 16.297-19.828.941-8.722-3.012-16.536-10.578-20.903zm-62.18 72.09c-1.562-1.562-4.094-1.562-5.656 0s-1.562 4.094 0 5.656l4 4c.781.781 1.805 1.172 2.828 1.172s2.047-.391 2.828-1.172c1.562-1.562 1.562-4.094 0-5.656z" fill="url(#SVGID_1_)" data-original-color="SVGID_1_" stroke="none" stroke-opacity="1"/></g></g></svg>