<svg height="300" viewBox="-3 0 505 505.92946" width="300" xmlns="http://www.w3.org/2000/svg" version="1.1" xmlns:xlink="http://www.w3.org/1999/xlink" xmlns:svgjs="http://svgjs.dev/svgjs"><g width="100%" height="100%" transform="matrix(1,0,0,1,0,0)"><path d="m414.957031 349.230469c4.941407-6.632813 5.1875-15.65625.613281-22.546875l-8.300781-12.453125c-.613281-.917969-.613281-2.113281 0-3.03125l6.546875-9.761719c2.871094-4.308594 3.914063-9.582031 2.894532-14.65625-1.015626-5.078125-4.007813-9.542969-8.320313-12.414062l-7.746094-5.160157c-1.140625-.769531-1.539062-2.265625-.929687-3.5l11.128906-22.25c5.875-11.828125 13.714844-45.59375-17.230469-64.269531-.050781-1.34375-.136719-2.644531-.253906-3.84375 0-.167969-.050781-.320312-.058594-.488281v-.191407c-.597656-9.488281-2.402343-18.859374-5.371093-27.890624-12.105469-33.660157-42.796876-57.109376-78.453126-59.949219-38.863281-3.699219-77.992187-3.699219-116.855468 0-35.65625 2.839843-66.34375 26.289062-78.453125 59.949219-2.996094 9.042968-4.804688 18.4375-5.386719 27.949218v.328125c-.128906 1.292969-.109375 2.675781-.167969 4.011719-29.519531 18.785156-21.867187 51.871094-16.050781 63.5625l11.132812 22.25c.605469 1.234375.207032 2.726562-.933593 3.492188l-7.753907 5.164062c-8.992187 5.957031-11.460937 18.066406-5.515624 27.066406l6.496093 9.753906c.613281.917969.613281 2.113282 0 3.03125l-8.300781 12.464844c-4.582031 6.882813-4.332031 15.90625.621094 22.527344l14.671875 19.5625c.808593 1.089844.699219 2.609375-.261719 3.570312l-8.761719 8.761719c-4.132812 4.136719-6.191406 9.90625-5.617187 15.722657.578125 5.820312 3.734375 11.074218 8.597656 14.316406l2.59375 1.679687c.675781.457031 1.109375 1.1875 1.191406 2 .082032.808594-.203125 1.613281-.773437 2.195313l-7.710938 7.714844c-7.613281 7.628906-7.613281 19.976562 0 27.605468l7.710938 7.714844c.578125.578125.863281 1.382812.785156 2.195312-.082031.8125-.523437 1.546876-1.203125 2-5.429688 3.621094-8.691406 9.714844-8.691406 16.242188 0 6.523438 3.261718 12.621094 8.691406 16.242188l11.289062 7.554687c3.855469 2.574219 9.070313 1.535156 11.644532-2.324219 2.574218-3.855468 1.535156-9.070312-2.320313-11.644531l-11.296875-7.554687c-.757812-.507813-1.214844-1.359376-1.214844-2.273438s.457032-1.765625 1.214844-2.273438c4.863282-3.246093 8.019532-8.5 8.59375-14.320312.578125-5.816406-1.488281-11.585938-5.621094-15.722656l-7.714843-7.710938c-1.0625-1.070312-1.0625-2.800781 0-3.871094l7.722656-7.714843c4.132813-4.136719 6.191406-9.90625 5.613281-15.726563-.574218-5.820312-3.730468-11.074218-8.59375-14.320312l-2.601562-1.730469c-.679688-.453125-1.117188-1.1875-1.199219-2-.078125-.8125.210937-1.617187.789063-2.195313l8.753906-8.753906c6.835937-6.882812 7.609375-17.730468 1.820312-25.515625l-14.671875-19.566406c-.691406-.925781-.726562-2.1875-.085937-3.148437l8.304687-12.453126c4.390625-6.550781 4.390625-15.105468 0-21.65625l-6.5-9.761718c-.402343-.601563-.546875-1.339844-.40625-2.050782.144531-.707031.5625-1.332031 1.164063-1.734374l7.753906-5.164063c.84375-.578125 1.640625-1.226563 2.382812-1.929687l2.46875 20.246093c.992188 5.523438 1.980469 10.332031 2.886719 14.585938 0 .167969.058594.34375.101563.523437l1.570312 7.285156c1.347656 5.101563 2.25 10.308594 2.695313 15.570313.921875 14.757813 3.257812 29.390625 6.972656 43.703125 1.105469 4.539062 2.703125 8.949219 4.761719 13.144531 5.621094 10.710938 12.375 20.789063 20.144531 30.066407 3.519531 4.214843 7.285156 8.226562 11.269531 12.007812-.011718.226562-.011718.449219 0 .671875 3.023438 15.109375 5.875 43 .714844 53.359375-1.335938 2.605469-1.214844 5.722656.316406 8.21875 1.535156 2.496094 4.257813 4.011719 7.1875 4h151.082032c2.917968.015625 5.632812-1.480469 7.171874-3.960938 1.542969-2.476562 1.683594-5.574218.382813-8.183593-5.171875-10.332031-2.300781-38.207031.710937-53.355469.015626-.226562.015626-.449219 0-.671875 3.988282-3.789063 7.757813-7.804687 11.28125-12.027344 7.773438-9.285156 14.523438-19.375 20.144532-30.101562 2.066406-4.226563 3.664062-8.667969 4.769531-13.242188 3.699219-14.265625 6.023437-28.847656 6.941406-43.554687.441407-5.257813 1.34375-10.46875 2.691407-15.570313l1.570312-7.285156c0-.152344.066406-.320313.09375-.488281.839844-4.078125 1.820312-8.675782 2.769531-13.933594.148438-.632812.226563-1.285156.226563-1.9375l2.375-19.457031c1.0625 1.226562 2.277344 2.3125 3.617187 3.234375l7.746094 5.160156c.605469.402344 1.023437 1.03125 1.160156 1.746094.152344.710937.007813 1.449218-.402343 2.046875l-6.496094 9.746093c-4.382813 6.554688-4.382813 15.101563 0 21.65625l8.300781 12.464844c.640625.960938.609375 2.222656-.078125 3.152344l-14.679688 19.558594c-5.777343 7.789062-5.003906 18.628906 1.824219 25.515625l8.753907 8.753906c.585937.574219.875 1.382813.789062 2.199219-.078125.824218-.527344 1.566406-1.21875 2.015625l-2.578125 1.726562c-4.867187 3.242188-8.027344 8.496094-8.601563 14.316407-.578124 5.820312 1.484376 11.59375 5.625 15.726562l7.703126 7.703125c1.070312 1.074219 1.070312 2.808594 0 3.878906l-7.714844 7.714844c-4.136719 4.132813-6.199219 9.90625-5.625 15.730469.578125 5.820312 3.738281 11.074218 8.605468 14.316406.761719.507812 1.214844 1.363281 1.214844 2.273438 0 .914062-.453125 1.769531-1.214844 2.277343l-11.289062 7.554688c-2.59375 1.617187-4.101562 4.519531-3.933594 7.570312.164063 3.054688 1.976563 5.777344 4.730469 7.105469 2.75 1.328125 6.011719 1.058594 8.503906-.710938l11.296875-7.554687c5.433594-3.617187 8.695313-9.714844 8.695313-16.242187 0-6.527344-3.261719-12.621094-8.695313-16.238282-.683594-.457031-1.125-1.199218-1.199218-2.015625-.089844-.8125.199218-1.625.78125-2.199219l7.710937-7.714843c7.613281-7.625 7.613281-19.976563 0-27.605469l-7.710937-7.714844c-.582032-.578125-.871094-1.390625-.78125-2.207031.074218-.816406.519531-1.550781 1.207031-1.996094l2.585937-1.730469c4.867188-3.242187 8.019532-8.5 8.597656-14.320312.574219-5.820312-1.488281-11.589844-5.625-15.726562l-8.730468-8.753907c-.953125-.96875-1.0625-2.484375-.25-3.578125zm-289.875-165.300781c0-.46875.058594-.964844.058594-1.433594 41.191406-9.980469 83.457031-14.855469 125.839844-14.515625 42.386719-.339844 84.652343 4.535156 125.84375 14.515625 0 .484375.058593.9375.058593 1.433594 0 11.078124-.171874 21.746093-.511718 32.003906-41.109375-9.503906-83.195313-14.160156-125.390625-13.875-42.195313-.285156-84.277344 4.371094-125.386719 13.875-.34375-10.246094-.511719-20.914063-.511719-32.003906zm69.101563-80.390626c37.78125-3.585937 75.816406-3.585937 113.597656 0 29.078125 2.195313 54.179688 21.203126 64.175781 48.597657 1.355469 4.113281 2.410157 8.320312 3.15625 12.589843-40.71875-9.277343-82.371093-13.820312-124.132812-13.53125-41.757813-.28125-83.414063 4.269532-124.128907 13.554688.75-4.265625 1.804688-8.472656 3.15625-12.589844 9.988282-27.402344 35.09375-46.421875 64.175782-48.621094zm-85.722656 98.371094c.125 7.703125.371093 15.15625.671874 22.433594-.894531 1.734375-.808593 3.808594.226563 5.464844.167969 3.492187.378906 6.882812.585937 10.265625l-2.449218-4.902344c-5.050782-10.597656-4.691406-22.976563.964844-33.261719zm206.972656 285.023438h-128.90625c1.378906-11.191406 1.34375-22.511719-.097656-33.691406 1.410156.980468 2.742187 2.003906 4.195312 2.953124l20.078125 12.589844c9.203125 6.019532 19.96875 9.203125 30.960937 9.167969h18.632813c10.9375.039063 21.648437-3.117187 30.8125-9.082031l20.355469-12.757813c1.402344-.914062 2.703125-1.914062 4.070312-2.863281-1.445312 11.179688-1.476562 22.496094-.101562 33.683594zm59.351562-240.054688-6.234375 51.203125c-.96875 5.34375-1.933593 9.988281-2.8125 14.082031 0 .160157-.058593.335938-.085937.511719l-1.46875 6.773438c-1.675782 6.265625-2.707032 12.6875-3.078125 19.164062-.890625 13.359375-3.050781 26.605469-6.457031 39.558594-.800782 3.347656-1.964844 6.597656-3.464844 9.691406-5.0625 9.625-11.144532 18.675781-18.140625 27.003907-8.761719 10.542968-19.085938 19.679687-30.617188 27.09375l-20.386719 12.773437c-6.464843 4.226563-14.027343 6.460937-21.75 6.429687h-18.625c-7.78125.023438-15.398437-2.25-21.898437-6.527343l-20.144531-12.59375c-11.570313-7.425781-21.933594-16.582031-30.726563-27.152344-6.976562-8.328125-13.039062-17.378906-18.089843-27-1.492188-3.0625-2.648438-6.273437-3.449219-9.585937-3.425781-13-5.597657-26.300782-6.496094-39.71875-.371094-6.472657-1.402344-12.894532-3.078125-19.160157l-1.460938-6.714843c0-.183594-.050781-.371094-.09375-.554688-.90625-4.195312-1.898437-8.972656-2.8125-14.015625l-6.242187-51.335937c0-.988282-.101563-2.015626-.179687-2.953126-.25-3.519531-.441407-7.160156-.644532-10.820312 40.816406-9.75 82.667969-14.515625 124.632813-14.183594 41.96875-.324218 83.816406 4.441406 124.636719 14.199219-.195313 3.617187-.394532 7.226563-.640626 10.6875-.082031 1.066406-.167968 2.121094-.191406 3.144531zm20.984375-10.910156-4.003906 8c.3125-4.574219.59375-9.265625.839844-14.078125.167969-.296875.3125-.609375.433593-.929687.371094-1.523438.296876-3.125-.207031-4.609376.316407-7.554687.570313-15.34375.695313-23.398437 11.699218 14.703125 2.710937 34.050781 2.257812 35.015625zm0 0" fill="url(#SvgjsLinearGradient1092)" fill-opacity="1" data-original-color="#000000ff" stroke="none" stroke-opacity="1"/><path d="m495.140625 212.675781c5.425781-5.445312 7.574219-13.355469 5.636719-20.796875-20.203125-84.859375-42.949219-140.382812-67.597656-165.023437-45.453126-45.46875-107.351563-19.691407-109.964844-18.566407-.449219.238282-.875.519532-1.273438.839844-5.007812-1.449218-10.191406-2.1875-15.402344-2.191406-27.398437.679688-45.609374 22.554688-55.558593 36.871094-9.945313-14.316406-28.160157-36.191406-55.554688-36.871094-5.238281-.027344-10.457031.703125-15.484375 2.171875-.371094-.316406-.769531-.597656-1.195312-.835937-2.617188-1.125-64.511719-26.859376-109.953125 18.566406-24.660157 24.65625-47.398438 80.171875-67.726563 165.550781-1.769531 7.304687.417969 15.003906 5.765625 20.285156l17.570313 17.578125c.996094 1 1.507812 2.378906 1.40625 3.789063-.101563 1.40625-.808594 2.699219-1.9375 3.546875l-9.097656 6.824218c-5.023438 3.765626-8.167969 9.527344-8.613282 15.789063-.445312 6.261719 1.847656 12.410156 6.289063 16.851563l5.035156 5.035156c.914063.914062 1.429687 2.152344 1.429687 3.441406 0 1.292969-.515624 2.53125-1.429687 3.441406l-6.429687 6.429688c-8.441407 8.460937-8.441407 22.160156 0 30.621094l6.429687 6.429687c.914063.910156 1.429687 2.148437 1.429687 3.441406 0 1.289063-.515624 2.527344-1.429687 3.441407l-7.671875 7.667968c-7.574219 7.640625-8.429688 19.667969-2.015625 28.304688l9.847656 13.117187c.8125 1.082031 1.140625 2.449219.902344 3.78125s-1.023437 2.5-2.160156 3.230469c-5.394531 3.601562-8.890625 9.429688-9.527344 15.886719-.636719 6.453125 1.648437 12.855469 6.234375 17.441406l4.367188 4.367187c1.894531 1.902344 1.894531 4.976563 0 6.878907l-10.519532 10.492187c-5.347656 5.398438-7.5 13.1875-5.691406 20.566406l6.574219 26.289063c.933593 3.734375 4.289062 6.359375 8.140625 6.359375.691406 0 1.378906-.085938 2.046875-.25 4.492187-1.128906 7.226562-5.679688 6.105469-10.171875l-6.574219-26.289063c-.410157-1.660156.074219-3.417968 1.277343-4.632812l10.5-10.492188c4.066407-4.058593 6.347657-9.566406 6.347657-15.308593 0-5.746094-2.28125-11.253907-6.347657-15.3125l-4.355468-4.363281c-1.050782-1.042969-1.566406-2.507813-1.402344-3.980469.164062-1.46875.988281-2.785157 2.238281-3.574219 4.9375-3.308594 8.300781-8.503906 9.296875-14.363281s-.457031-11.871094-4.023437-16.625l-9.878907-13.128907c-1.449218-1.941406-1.261718-4.648437.445313-6.371093l7.671875-7.667969c4.0625-4.058594 6.34375-9.566406 6.34375-15.3125 0-5.742188-2.28125-11.25-6.34375-15.308594l-6.429688-6.429687c-1.894531-1.902344-1.894531-4.980469 0-6.882813l6.429688-6.429687c8.441406-8.460938 8.441406-22.160157 0-30.617188l-4.953125-5.019531c-.996094-1-1.511719-2.382812-1.410156-3.789062.101562-1.40625.808593-2.703126 1.9375-3.546876l9.097656-6.824218c5.027344-3.765625 8.167969-9.527344 8.617187-15.789063.445313-6.265625-1.851562-12.414062-6.289062-16.855469l-17.621094-17.582031c-1.289062-1.335937-1.738281-3.269531-1.171875-5.035156 24.253907-101.878906 47.722657-141.632813 63.132813-157.042969 20.617187-19.507812 49.921875-26.828125 77.289062-19.304687-16.453125 11.738281-30.714844 26.273437-42.144531 42.941406-59.542969 81.859375-67.59375 150.257813-68.632813 169.277344-.195312 3.386719.503907 6.761719 2.03125 9.789062l11.128907 22.242188c.617187 1.234375.21875 2.734375-.929688 3.5l-7.757812 5.167969c-8.949219 5.992187-11.371094 18.089843-5.414063 27.0625l6.507813 9.753906c.609375.917968.609375 2.117187 0 3.039062l-8.304688 12.453125c-4.582031 6.886719-4.332031 15.914063.621094 22.539063l14.664063 19.554687c.816406 1.089844.707031 2.609375-.25 3.574219l-8.761719 8.757812c-4.132813 4.144532-6.183594 9.925782-5.59375 15.746094.585937 5.820313 3.753906 11.074219 8.628906 14.308594l2.570313 1.679688c.671874.457031 1.109374 1.1875 1.191406 2 .082031.808593-.195313 1.613281-.761719 2.195312l-7.714844 7.707031c-7.613281 7.628907-7.613281 19.984375 0 27.613281l7.714844 7.707032c.582031.578125.871094 1.390625.777344 2.207031-.066407.816406-.507813 1.558594-1.199219 2.003906-5.429688 3.621094-8.6875 9.714844-8.6875 16.242188 0 6.527343 3.257812 12.621093 8.6875 16.242187l11.289062 7.554688c2.496094 1.664062 5.6875 1.871094 8.378907.542968 2.6875-1.332031 4.464843-3.992187 4.65625-6.984374.195312-2.992188-1.222657-5.863282-3.71875-7.527344l-11.289063-7.554688c-.761718-.503906-1.222656-1.359375-1.222656-2.273437 0-.914063.460938-1.769531 1.222656-2.273438 4.863282-3.25 8.011719-8.503906 8.585938-14.324219.574218-5.820312-1.488282-11.589843-5.621094-15.726562l-7.714844-7.710938c-.515625-.511718-.804687-1.207031-.804687-1.933593 0-.722657.289062-1.417969.804687-1.929688l7.722656-7.710937c4.109376-4.144532 6.148438-9.910156 5.5625-15.714844-.585937-5.804688-3.738281-11.046875-8.59375-14.285156l-2.601562-1.71875c-.6875-.449219-1.132812-1.1875-1.207031-2.007813-.085938-.816406.207031-1.628906.789062-2.207031l8.8125-8.746094c6.824219-6.890625 7.597657-17.734375 1.820313-25.523437l-14.707032-19.566407c-.695312-.921874-.730468-2.1875-.082031-3.148437l8.300781-12.453125c4.382813-6.554688 4.382813-15.101562 0-21.65625l-6.496093-9.753906c-.402344-.601563-.550781-1.339844-.40625-2.050782.140625-.707031.558593-1.332031 1.160156-1.734374l7.75-5.171876c8.175781-5.46875 11.019531-16.160156 6.636719-24.96875l-11.121094-22.25c-.21875-.417968-.320312-.890624-.292969-1.359374.695313-12.699219 7.125-80.167969 65.46875-160.359376 23.761719-32.667968 46.164063-49.050781 65.644531-48.472656 23.277344.582032 39.449219 25.308594 46.347657 35.867188 1.152343 1.769531 2.101562 3.214844 2.839843 4.195312.300782.320313.625.617188.972657.890625.253906.335938.535156.648438.839843.941407.101563.074218.226563.082031.335938.148437.507812.308594 1.054688.558594 1.617188.75.449218.210937.914062.378906 1.394531.5 1.0625.082031 2.128906.082031 3.191406 0 .480469-.121094.949219-.289063 1.398437-.5.5625-.191406 1.105469-.441406 1.613282-.75.109375-.066406.234375-.074219.335937-.148437.304688-.292969.585938-.605469.839844-.941407.34375-.273437.671875-.570312.972656-.890625.738281-1.015625 1.679688-2.457031 2.835938-4.195312 6.910156-10.558594 23.074219-35.253906 46.351562-35.867188 19.730469-.628906 41.890625 15.804688 65.644531 48.472656 58.351563 80.242188 64.746094 147.660157 65.46875 160.359376.027344.46875-.070312.9375-.285156 1.359374l-11.121094 22.25c-4.394531 8.804688-1.554687 19.503907 6.628907 24.96875l7.746093 5.171876c.605469.402343 1.023438 1.03125 1.160157 1.746093.152343.707031.007812 1.445313-.402344 2.039063l-6.496094 9.753906c-4.382812 6.554688-4.382812 15.101562 0 21.65625l8.300781 12.453125c.640626.960937.609376 2.21875-.078124 3.148437l-14.679688 19.566407c-5.777344 7.789062-5.007812 18.628906 1.8125 25.523437l8.765625 8.746094c.578125.578125.863281 1.382812.785156 2.195312s-.519531 1.546876-1.199219 2l-2.601562 1.738282c-4.863281 3.246094-8.019531 8.5-8.59375 14.320312-.578125 5.820313 1.488281 11.59375 5.625 15.726563l7.710938 7.714843c1.0625 1.066407 1.0625 2.792969 0 3.863282l-7.710938 7.710937c-4.136719 4.136719-6.199219 9.910157-5.621094 15.730469.574219 5.820312 3.734375 11.074219 8.597656 14.320312.761719.507813 1.21875 1.359376 1.21875 2.273438s-.457031 1.765625-1.21875 2.273438l-11.296874 7.554687c-2.492188 1.664063-3.910157 4.535156-3.71875 7.527344.195312 2.992187 1.972656 5.652343 4.660156 6.980469 2.6875 1.332031 5.882812 1.125 8.375-.539063l11.289062-7.554687c5.429688-3.621094 8.691406-9.714844 8.691406-16.242188s-3.261718-12.621094-8.691406-16.242188c-.675781-.453124-1.113281-1.1875-1.195312-1.996093-.082032-.8125.199218-1.617188.769531-2.199219l7.710937-7.707031c7.625-7.625 7.625-19.988281 0-27.613281l-7.710937-7.707032c-.574219-.578125-.855469-1.382812-.777344-2.191406.078125-.8125.515625-1.546875 1.1875-2.003906l2.609375-1.738282c4.863282-3.246093 8.015625-8.503906 8.589844-14.324218.570312-5.816406-1.492188-11.585938-5.625-15.722656l-8.753906-8.746094c-.957032-.964844-1.070313-2.484375-.261719-3.574219l14.671875-19.566406c4.953125-6.625 5.203125-15.648438.621094-22.535157l-8.300782-12.457031c-.613281-.921875-.613281-2.117187 0-3.039062l6.503907-9.746094c2.875-4.304687 3.914062-9.578125 2.898437-14.65625s-4.007812-9.542969-8.320312-12.410156l-7.746094-5.171875c-1.144531-.765625-1.542969-2.265625-.921875-3.5l11.128906-22.257813c1.515625-3.019531 2.210938-6.386719 2.011719-9.761719-.726562-13.53125-7.484375-85.261718-68.621094-169.320312-11.410156-16.648438-25.667968-31.15625-42.113281-42.859375 18.535156-4.09375 51.605469-6.402344 77.222656 19.253906 15.410157 15.410157 38.875 55.171875 63.261719 157.554688.382812 1.632812-.109375 3.351562-1.304688 4.53125l-17.574218 17.578125c-4.4375 4.4375-6.730469 10.582031-6.289063 16.84375.445313 6.261718 3.585938 12.023437 8.605469 15.789062l9.117188 6.832032c1.125.847656 1.828124 2.144531 1.929687 3.550781.097656 1.40625-.414063 2.785156-1.410156 3.785156l-5.035157 5.035156c-8.445312 8.460938-8.445312 22.160157 0 30.621094l6.429688 6.429687c1.890625 1.902344 1.890625 4.976563 0 6.882813l-6.429688 6.429687c-4.066406 4.058594-6.347656 9.566407-6.347656 15.308594 0 5.742188 2.28125 11.25 6.347656 15.308594l7.671876 7.671875c1.699218 1.722656 1.890624 4.425781.453124 6.371094l-9.804687 13.09375c-3.582031 4.769531-5.035156 10.808593-4.019531 16.683593 1.015625 5.878907 4.410156 11.078126 9.382812 14.371094 1.214844.808594 2.003906 2.121094 2.148438 3.570313.144531 1.453125-.371094 2.894531-1.402344 3.925781l-4.363281 4.363281c-4.0625 4.058594-6.347657 9.566407-6.347657 15.3125 0 5.742188 2.285157 11.25 6.347657 15.308594l10.492187 10.492187c1.207032 1.214844 1.695313 2.96875 1.28125 4.632813l-6.570312 26.289063c-1.121094 4.496093 1.613281 9.050781 6.109375 10.171874.671875.164063 1.359375.246094 2.050781.242188 3.847656-.003906 7.199219-2.625 8.132812-6.359375l6.570313-26.289063c1.828125-7.378906-.332031-15.179687-5.699219-20.566406l-10.492187-10.492187c-1.890625-1.902344-1.890625-4.976563 0-6.878907l4.367187-4.367187c4.59375-4.59375 6.878906-11.011719 6.230469-17.476563-.652344-6.464843-4.171875-12.296874-9.589844-15.886718-1.117187-.738282-1.878906-1.90625-2.105469-3.226563-.226562-1.320312.101563-2.679687.90625-3.75l9.894532-13.125c6.410156-8.640625 5.550781-20.664062-2.023438-28.304687l-7.671875-7.671875c-.914062-.910157-1.425781-2.148438-1.425781-3.441407 0-1.289062.511719-2.527343 1.425781-3.441406l6.429688-6.425781c8.445312-8.460937 8.445312-22.160156 0-30.621094l-6.429688-6.429687c-.914062-.910156-1.425781-2.148438-1.425781-3.441406 0-1.289063.511719-2.527344 1.425781-3.441407l4.996094-5.035156c4.4375-4.4375 6.730469-10.585937 6.289063-16.847656-.445313-6.257813-3.585938-12.019531-8.605469-15.785157l-9.117188-6.832031c-1.117187-.855469-1.808593-2.152343-1.902343-3.554687-.089844-1.40625.429687-2.78125 1.425781-3.773438zm0 0" fill="url(#SvgjsLinearGradient1092)" fill-opacity="1" data-original-color="#000000ff" stroke="none" stroke-opacity="1"/></g><defs><linearGradient id="SvgjsLinearGradient1092"><stop stop-opacity="1" stop-color="#00a4e4" offset="0"/><stop stop-opacity="1" stop-color="#201377" offset="1"/></linearGradient></defs></svg>