<svg version="1.1" id="svg3582" xml:space="preserve" width="300" height="300" viewBox="0 0 682.66669 682.66669" xmlns="http://www.w3.org/2000/svg" xmlns:svg="http://www.w3.org/2000/svg" xmlns:xlink="http://www.w3.org/1999/xlink" xmlns:svgjs="http://svgjs.dev/svgjs"><g width="100%" height="100%" transform="matrix(1,0,0,1,0,0)"><defs id="defs3586"><clipPath clipPathUnits="userSpaceOnUse" id="clipPath3596"><path d="M 0,512 H 512 V 0 H 0 Z" id="path3594" fill="#000000" fill-opacity="1" data-original-color="#000000ff" stroke="none" stroke-opacity="1"/></clipPath></defs><g id="g3588" transform="matrix(1.3333333,0,0,-1.3333333,0,682.66667)"><g id="g3590"><g id="g3592" clip-path="url(#clipPath3596)"><g id="g3598" transform="translate(191.209,89.9955)"><path d="m 0,0 c -6.681,0 -12.773,4.496 -14.516,11.265 -11.932,46.36 -53.75,78.738 -101.693,78.738 -8.909,0 -17.743,-1.112 -26.258,-3.305 -8.019,-2.065 -16.201,2.759 -18.267,10.783 -2.068,8.022 2.76,16.201 10.783,18.267 10.958,2.823 22.31,4.255 33.742,4.255 61.637,0 115.401,-41.639 130.746,-101.26 C 16.603,10.72 11.772,2.542 3.75,0.478 2.496,0.154 1.237,0 0,0" style="fill-rule: nonzero;" id="path3600" fill="#406080" fill-opacity="1" data-original-color="#406080ff" stroke="none" stroke-opacity="1"/></g><g id="g3602" transform="translate(320.791,89.9955)"><path d="m 0,0 c -1.237,0 -2.495,0.154 -3.748,0.477 -8.023,2.064 -12.854,10.242 -10.79,18.264 12.782,49.679 53.512,88.367 103.765,98.562 8.118,1.649 16.035,-3.599 17.682,-11.718 C 108.557,97.466 103.311,89.549 95.191,87.903 56.122,79.976 24.455,49.894 14.517,11.267 12.774,4.497 6.681,0 0,0" style="fill-rule: nonzero;" id="path3604" fill="#406080" fill-opacity="1" data-original-color="#406080ff" stroke="none" stroke-opacity="1"/></g><g id="g3606" transform="translate(320.791,89.9955)"><path d="m 0,0 c -1.237,0 -2.495,0.154 -3.748,0.477 -8.023,2.064 -12.854,10.242 -10.79,18.264 12.782,49.679 53.512,88.367 103.765,98.562 8.118,1.649 16.035,-3.599 17.682,-11.718 C 108.557,97.466 103.311,89.549 95.191,87.903 56.122,79.976 24.455,49.894 14.517,11.267 12.774,4.497 6.681,0 0,0" style="fill-rule: nonzero;" id="path3608" fill="#283d66" fill-opacity="1" data-original-color="#283d66ff" stroke="none" stroke-opacity="1"/></g><g id="g3610" transform="translate(256,109.7793)"><path d="M 0,0 34.247,-34.78 0,-69.56 h -129.03 c -8.28,0 -15,6.72 -15,15 V -15 c 0,8.28 6.72,15 15,15 z" style="fill-rule: nonzero;" id="path3612" fill="#66ccff" fill-opacity="1" data-original-color="#66ccffff" stroke="none" stroke-opacity="1"/></g><g id="g3614" transform="translate(400.03,94.7794)"><path d="m 0,0 v -39.56 c 0,-8.28 -6.72,-15 -15,-15 H -144.03 V 15 H -15 C -6.72,15 0,8.28 0,0" style="fill-rule: nonzero;" id="path3616" fill="#3399ff" fill-opacity="1" data-original-color="#3399ffff" stroke="none" stroke-opacity="1"/></g><g id="g3618" transform="translate(487.2145,74.9995)"><path d="m 0,0 c 0,-27.733 -22.482,-50.214 -50.215,-50.214 -27.732,0 -50.214,22.481 -50.214,50.214 0,27.733 22.482,50.214 50.214,50.214 C -22.482,50.214 0,27.733 0,0" style="fill-rule: nonzero;" id="path3620" fill="#cfe6e6" fill-opacity="1" data-original-color="#cfe6e6ff" stroke="none" stroke-opacity="1"/></g><g id="g3622" transform="translate(133.0829,74.9995)"><path d="m 0,0 c 0,-32.078 -26.005,-58.082 -58.083,-58.082 -32.078,0 -58.083,26.004 -58.083,58.082 0,32.078 26.005,58.082 58.083,58.082 C -26.005,58.082 0,32.078 0,0" style="fill-rule: nonzero;" id="path3624" fill="#e6f2f2" fill-opacity="1" data-original-color="#e6f2f2ff" stroke="none" stroke-opacity="1"/></g><g id="g3626" transform="translate(497,74.9995)"><path d="m 0,0 c 0,-33.137 -26.863,-60 -60,-60 -33.137,0 -60,26.863 -60,60 0,33.137 26.863,60 60,60 C -26.863,60 0,33.137 0,0 Z" style="stroke-linecap: round; stroke-linejoin: round; stroke-miterlimit: 10; stroke-dasharray: none;" id="path3628" fill="none" fill-opacity="1" stroke="#000000" stroke-opacity="1" data-original-stroke-color="#000000ff" stroke-width="30" data-original-stroke-width="30"/></g><g id="g3630" transform="translate(437,119.9992)"><path d="m 0,0 c -24.813,0 -45,-20.186 -45,-45 0,-24.813 20.187,-44.999 45,-44.999 24.813,0 45,20.186 45,44.999 C 45,-20.186 24.813,0 0,0 m 0,-119.999 c -41.355,0 -75,33.644 -75,74.999 0,41.355 33.645,75 75,75 41.355,0 75,-33.645 75,-75 0,-41.355 -33.645,-74.999 -75,-74.999" style="fill-rule: nonzero;" id="path3632" fill="#283d66" fill-opacity="1" data-original-color="#283d66ff" stroke="none" stroke-opacity="1"/></g><g id="g3634" transform="translate(436.9844,59.9966)"><path d="m 0,0 c -6.985,0 -13.239,4.905 -14.684,12.016 l -50.19,246.978 c -1.65,8.118 3.594,16.037 11.712,17.687 8.116,1.65 16.037,-3.594 17.686,-11.712 L 14.715,17.99 C 16.365,9.872 11.121,1.953 3.003,0.304 1.995,0.099 0.99,0 0,0" style="fill-rule: nonzero;" id="path3636" fill="#3399ff" fill-opacity="1" data-original-color="#3399ffff" stroke="none" stroke-opacity="1"/></g><g id="g3638" transform="translate(378.6992,436.4598)"><path d="m 0,0 -13.336,63.508 c -1.296,6.884 -7.832,12.191 -14.838,12.029 h -85.525 c -8.284,0 -15,-6.716 -15,-15 0,-8.284 6.716,-15 15,-15 h 73.483 l 10.857,-51.703 c 1.484,-7.067 7.717,-11.92 14.664,-11.92 1.021,0 2.058,0.105 3.098,0.323 C -3.489,-16.06 1.702,-8.107 0,0" style="fill-rule: nonzero;" id="path3640" fill="#406080" fill-opacity="1" data-original-color="#406080ff" stroke="none" stroke-opacity="1"/></g><g id="g3642" transform="translate(75,119.9992)"><path d="m 0,0 c -24.813,0 -45,-20.186 -45,-45 0,-24.813 20.187,-44.999 45,-44.999 24.813,0 45,20.186 45,44.999 C 45,-20.186 24.813,0 0,0 m 0,-119.999 c -41.355,0 -75,33.644 -75,74.999 0,41.355 33.645,75 75,75 41.355,0 75,-33.645 75,-75 0,-41.355 -33.645,-74.999 -75,-74.999" style="fill-rule: nonzero;" id="path3644" fill="#406080" fill-opacity="1" data-original-color="#406080ff" stroke="none" stroke-opacity="1"/></g><g id="g3646" transform="translate(90,74.9995)"><path d="m 0,0 c 0,-8.284 -6.716,-15 -15,-15 -8.284,0 -15,6.716 -15,15 0,8.284 6.716,15 15,15 C -6.716,15 0,8.284 0,0" style="fill-rule: nonzero;" id="path3648" fill="#406080" fill-opacity="1" data-original-color="#406080ff" stroke="none" stroke-opacity="1"/></g><g id="g3650" transform="translate(421.8401,318.3178)"><path d="m 0,0 c -2.19,-3.32 -5.62,-5.63 -9.52,-6.43 l -46.38,-9.41 c -1.01,-0.2 -2.01,-0.3 -3,-0.3 -6.98,0 -13.23,4.9 -14.68,12 l -22.74,111.409 c -0.79,3.9 -0.01,7.96 2.19,11.28 2.2,3.32 5.62,5.63 9.53,6.42 l 46.38,9.41 c 8.12,1.64 16.02,-3.59 17.68,-11.7 L 2.19,11.27 C 2.99,7.37 2.2,3.31 0,0" style="fill-rule: nonzero;" id="path3652" fill="#ff80aa" fill-opacity="1" data-original-color="#ff80aaff" stroke="none" stroke-opacity="1"/></g></g></g></g></g></svg>