<svg xmlns="http://www.w3.org/2000/svg" viewBox="0 0 48 48" width="300" height="300" version="1.1" xmlns:xlink="http://www.w3.org/1999/xlink" xmlns:svgjs="http://svgjs.dev/svgjs"><g width="100%" height="100%" transform="matrix(1,0,0,1,0,0)"><title/><g data-name="Grass Braid" id="Grass_Braid"><path d="M46.29,7.29,45.61,8H40V2.39l.69-.68A1,1,0,0,0,39.29.29l-.61.62H37.36a5,5,0,0,0-5,5v.66h-.65a5,5,0,0,0-5,5v.65h-.66a5,5,0,0,0-5,5v.66h-.66a5,5,0,0,0-5,5v.66h-.65a5,5,0,0,0-5,5v.65H9.08a5,5,0,0,0-5,5v1.43c-.37.11-.09-.1-3.79,3.68A1,1,0,0,0,1,41c.56,0,.54-.12,3.08-2.71v4.63a1,1,0,0,0,1,1H9.71L7.3,46.29A1,1,0,0,0,8,48c.57,0,.48-.07,4.14-3.66.54-.53-.4-.42,1.67-.42a5,5,0,0,0,5-5v-.66h.65a5,5,0,0,0,5-5v-.65h.66a5,5,0,0,0,5-5V27h.66a5,5,0,0,0,5-5v-.66h.65a5,5,0,0,0,5-5v-.65h.66a5,5,0,0,0,5-5V9.32l.62-.61A1,1,0,0,0,46.29,7.29ZM34.36,5.91a3,3,0,0,1,3-3H38V8H34.36Zm-5.65,5.66a3,3,0,0,1,3-3h.65v5.07H28.71Zm-5.66,5.65a3,3,0,0,1,3-3h.66v5.07H23.05Zm-5.66,5.66a3,3,0,0,1,3-3h.66V25H17.39Zm-5.65,5.66a3,3,0,0,1,3-3h.65v5.07H11.74ZM9.08,31.19h.66v5.07H6.08V34.19A3,3,0,0,1,9.08,31.19Zm7.73,7.73a3,3,0,0,1-3,3H6.08V38.26H16.81Zm5.65-5.66a3,3,0,0,1-3,3H11.74V32.61H22.46Zm5.66-5.65a3,3,0,0,1-3,3H17.39V27H28.12ZM33.78,22a3,3,0,0,1-3,3H23.05V21.29H33.78Zm5.65-5.66a3,3,0,0,1-3,3H28.71V15.64H39.43Zm5.66-5.65a3,3,0,0,1-3,3H34.36V10H45.09Z" fill="url(#SvgjsLinearGradient1126)" fill-opacity="1" data-original-color="#000000ff" stroke="none" stroke-opacity="1"/></g></g><defs><linearGradient id="SvgjsLinearGradient1126"><stop stop-opacity="1" stop-color="#00a4e4" offset="0.02"/><stop stop-opacity="1" stop-color="#0e2c70" offset="1"/></linearGradient></defs></svg>