<svg id="Layer_1" enable-background="new 0 0 38 38" viewBox="0 0 38 38" xmlns="http://www.w3.org/2000/svg" width="300" height="300" version="1.1" xmlns:xlink="http://www.w3.org/1999/xlink" xmlns:svgjs="http://svgjs.dev/svgjs"><circle r="19" cx="19" cy="19" shape="true" transform="matrix(1,0,0,1,0,0)" fill="url(#SvgjsLinearGradient1103)"/><g width="100%" height="100%" transform="matrix(0.8,0,0,0.8,3.7999998092651364,3.80000009536743)"><g id="_x32_"><path d="m4.5224752 30.8083572c1.2145443 0 1.2888579.9960938 2.8810425.9960938.8692627 0 1.3380127-.3222656 1.7091675-.5859375.3635769-.2580223.6393423-.4101563 1.1621704-.4101563.5665283 0 .8204346.1757813 1.1524658.4101563.3809204.2636719.8497314.5859375 1.7189331.5859375s1.3380127-.3222656 1.7189331-.5859375c.3222656-.234375.5859985-.4101563 1.1524057-.4101563.5664673 0 .8302002.1757813 1.1622314.4101563.3642044.2601452 1.3836708.8881836 1.7091675.5859375.1464844-.1364746.1269531-.4589844 0-.6738281 0-.0097656-.0098267-.0292969-.0195313-.0390625-.0683594-.1074219-.1269531-.1074219-.5567017-.3515625-.0046234-.0024471-.4699211-.2481651-.4785156-.2539063-.0221272-.0222645-.4393997-.3026772-.6544189-.4101563-.2929688-.1367188-.6641235-.2441406-1.1622314-.2441406-.8691416 0-1.3380136.3222656-1.7189341.5856934-.3320313.2346191-.5859375.4104004-1.1524048.4104004-1.2076254 0-1.279006-.9960938-2.8713989-.9960938-1.5711746 0-1.6862345.9960938-2.8713379.9960938-1.1976576 0-1.2892189-.9960938-2.8810425-.9960938-.2637329 0-.4883423.2148438-.4883423.4882813.0000002.2636719.2246095.4882812.4883424.4882812z" fill="#4fb5e2" fill-opacity="1" data-original-color="#000000ff" stroke="none" stroke-opacity="1"/><path d="m33.8631744 23.5791092c0-.0097656-.0097656-.0292969-.0194702-.0390625-.0684204-.107666-.1270142-.107666-.5567017-.3518066-.9588203-.5060158-1.2130928-.9082031-2.295166-.9082031-.8692017 0-1.3380127.3222656-1.7189331.5859375-.3320313.2346191-.5859985.4101563-1.1524658.4101563-1.214838 0-1.2757969-.9960938-2.8713379-.9960938-.7475319 0-1.1771641.2145462-1.7188721.5859375-.3320923.2346191-.5957642.4101563-1.1524658.4101563-1.2145443 0-1.2889194-.9960938-2.8811035-.9960938-.2636719 0-.4882813.2148438-.4882813.4882813 0 .2636719.2246094.4882813.4882813.4882813 1.1953716 0 1.292347.9963379 2.8811035.9963379 1.600605 0 1.6474991-.9963379 2.8713379-.9963379.5664673 0 .8204346.1757813 1.1524658.4101563.3808594.2636719.8497314.5861816 1.7188721.5861816.8692627 0 1.3380127-.3225098 1.7189331-.5861816.3223267-.234375.5860596-.4101563 1.1524658-.4101563.5664673 0 .8301392.1757813 1.1621704.4101563.3606606.2581444 1.3833618.8887138 1.7091675.5861816.1465454-.1367189.1269532-.4589846 0-.6738283z" fill="#4fb5e2" fill-opacity="1" data-original-color="#000000ff" stroke="none" stroke-opacity="1"/><path d="m22.2508087 13.7644119c.9933395-1.8932266-.0155945-4.150589-2.1975098-4.4812012-1.2021408-.8367701-.5569286-2.3849044-.5922852-3.5327153-.0429077-1.5969238-1.4467773-2.5844724-2.9641113-2.1020505-.211792.0603027-.4176636.1652832-.623292.2111816-.1829538-.078521-.1703987-.0733769-.3615112-.1394043-.2997704-.1308627-.3848248-.0211751-.5050659.152832-.2072802.3615611-.1542253.2072184-.4163208.3767087-.1814575.1069336-.3405762.2407227-.4957886.3847656-.3102417.2878418-.3294067.5073242-.1618042.8415527.3634644.739502.305603.9509277-.4943848 1.6682129-.4985456-1.3599472-1.5170498-3.0786452-2.7681274-3.7214353-.7367553-.3784178-1.4650878-.3513182-2.1793823-.3237303-.7273559.0270996-.7092895.1477051-1.2817382.1123047-.5966797-.0371094-.8144532-.1804199-1.5612793-.2075196-.8870239-.0324707-1.0112915.145752-1.0426636.2023926-.0942383.1704102-.0174561.4262696.1135254.5615235.2484131.2568357.7738037.1662598.8529053.1467285.192709-.0485821.4717689-.0291381.498291.1657712.0333252.2451172-.4296875.2983398-.4441528.545166-.0078735.1350098.1459351.236084.27948.2167969.1019897-.0144043.1588134-.0788574.3174438-.2321777.5248823-.5208406.8679867-.6562691 1.8097534-.5585938.8443604.0866699.7867432.046875 1.0253296.0891113 1.7665873.3107066 1.9694891 1.1992087 2.4477539 2.3312988.8139544 1.9259763-.095046 2.1804957-.1153564 2.2805181-.3961163.2662849-.4729099.1172447-.7959595.1650391-.4214478.0622559-.7902832.3291016-.9973145.6999512-.2373047.425293-.1953735.9152832-.0153809 1.3530273.302783.7359762.1992884 1.8964739.0454712 2.5-.5965576 2.3330078-.621582 4.6520996.0880127 6.9511719.6409912 2.0668945 1.5510864 4.0393066 3.2608643 5.4130859 2.7005615 2.1694336 5.6470346 3.125 6.1029062 3.2282715 1.9847069.4511986 3.3088722.2049408 6.2763672 2.9587402.6981812.6474609 1.6291504 1.6220703 2.5422974 2.9782715.6518269-1.3901367.4132881-3.0126514-.5837402-4.1567383 1.4059906-.0677967 2.8237801-.4546108 4.1304321-1.1918945-1.0454082-1.0437813-2.4878426-1.438549-3.8596191-1.1721191 1.8075294-.6831455 2.7615166-2.6209736 2.1646118-4.4753418-.4505615.6098633-1.2141724 1.4755859-2.385376 2.1887207-3.185339 1.9400539-6.7301693 1.3022861-9.9099731-.6115723-1.0511608-.6320171-1.5118494-1.3240662-1.5924692-2.6594238-.0772705-1.2817383.352479-1.5292969.3513193-2.5661621-.0002441-.2419434-.0018311-1.6633301-.9100962-2.6096191-.5006695-.521677-1.8026447-1.4970455-2.1311646-1.7783203-.3511-.3011665-.5122671-.7474375-.2489014-1.4331055.4846802-1.2167969 1.4639893-2.0166016 2.4031982-2.9182129.4214458 3.418745-.4812346 4.3019571.9100962 6.2624512-.0763626-.5896339.1936684-1.1530552.788147-1.3151855.3835545.9389362.292572 1.9525795-.2043457 2.8381348.9775429-.0085907 1.6351414-.4812126 1.8213501-1.4660645 1.641304 2.8778496 1.1958675 2.9958324 1.6351318 3.6079102.3260765.4553928 1.0894642.5943947 1.3061523.395752.2624512-.2407227.0474243-.9008789-.0565186-1.1433105-.0803223-.1870117-.1251831-.392334-.2339478-.564209-.16189-.2567196-.0757732-.4328728.0244141-.4855957.1262169-.0662193.6553326.3131123.7781372.2241211.0928955-.067627.0474243-.3679199-.1201172-.5615234-.3912487-.4524422-.625349.1623974-1.7614136-1.3349609-.284729-.3752441-.5540771-.7648926-.7977905-1.1733398.4820328.2998104.9872665.3321972 1.4709473.1469727-.5692139-.9980469-.5830688-1.7236328-.4807739-2.2104492.1815186-.864502.7943115-1.2878418.8111572-2.2661133.0084229-.4899902-.1366577-.8933105-.2588501-1.1550293.8046934.533363 1.2531072 1.3949429 1.2930299 2.3486324zm5.623291 15.4624024 1.2213135-.0957031c.2646484-.0239258.5040894.1796875.5250244.4487305.0209961.269043-.1797485.5039063-.4487305.5249023-.031311.0024452-1.2286072.0974121-1.2598877.0974121-.2522583 0-.4664307-.1940918-.4864502-.4501953-.020996-.269043.1798096-.5041504.4487305-.5251465zm-3.4263305-.381836c.9607868-.2897549 1.7584114-.8319225 2.3552856-1.5288086.1745605-.2055664.4830933-.2290039.6881104-.0539551.2050781.1750488.2294312.4831543.053894.6879883-.5585365.6548615-1.2544384 1.1793823-2.0476685 1.5412598.5319691.534338 1.0184956 1.1241322 1.4587402 1.8017578.2133541.3273697-.0273113.7543945-.4086914.7543945-.5792694 0-.4344978-.7699013-2.2780151-2.3662109-.2902832-.2503891-.1895351-.7261944.1783448-.8364258z" fill="#4fb5e2" fill-opacity="1" data-original-color="#000000ff" stroke="none" stroke-opacity="1"/></g></g><defs><linearGradient id="SvgjsLinearGradient1103"><stop stop-opacity="1" stop-color="#3b69be" offset="0"/><stop stop-opacity="1" stop-color="#000000" offset="1"/></linearGradient></defs></svg>