<svg id="Layer_1" enable-background="new 0 0 38 38" viewBox="0 0 38 38" xmlns="http://www.w3.org/2000/svg" width="300" height="300" version="1.1" xmlns:xlink="http://www.w3.org/1999/xlink" xmlns:svgjs="http://svgjs.dev/svgjs"><g width="100%" height="100%" transform="matrix(1,0,0,1,0,0)"><g id="_x33_"><path d="m7.7596231 9.8695545.6013789-.3161621c.1829967-.0962973.2976933.0711508.8207397.3161621.1729736.0908203.3751221-.0561523.3421021-.2485352-.0711193-.5713301-.1953411-.7337189-.0470581-.878418l.4865112-.4741211c.1399536-.1364746.0627441-.3740234-.1306763-.4023438l-.6723022-.0976561c-.2049399-.0299754-.1980362-.2307672-.4782105-.7380371-.0864868-.175293-.3363647-.175293-.4228516 0l-.3006586.6091309c-.0915661.1854085-.2835923.1175565-.8498536.2265625-.1933593.0283203-.2705688.2658691-.1306762.4023437l.4865112.4741211c.1482372.1446533.0238781.3085632-.0470581.878418-.03302.1923828.1691284.3393554.3421021.2485351z" fill="#47d6f1" fill-opacity="1" data-original-color="#000000ff" stroke="none" stroke-opacity="1"/><path d="m27.0628452 7.3932362c.113678-.1588302.6449871-.2463856.7727051-.7412109.041748-.1462402.031311-.2924805-.1774902-.3237305-.1461792.3967285-.3132935.5219727-.741394.5219727-.710022 0-1.2843018-.2819824-1.6915283-.8769531-1.0356483-1.4756947-1.5921288-2.3889806-2.3598633-2.7463381-.8144531-.3862305-1.8690186-.2714844-2.5791016.2819824-.4447689.3467958-.9211884 1.1387637-1.0166626 1.8505862-.1228218.9146094.3290348 2.0718637.9853516 2.6813965-.0740795.2945919.0014629.4572716-.5012207.7099609-.5608406.2803421-.752718-.0830593-1.6289063.4174805-1.1585217.7022343-1.4615135 2.6531467-2.3911743 3.6860352-.0521851.0625-1.451355 1.5869141-3.0698853 1.1589355-1.472229-.3864746-2.1300659-2.161377-2.171814-2.6208496-.0209351-.1462402-.0209351-.2924805-.0835571-.4282227-.1854992-.3709984-.6683006-.2301168-.5534668.3447266.0418091.2087402.1044922.4592285-.041748.6162109-.2088013.2192383-.5742798.020752-.7935791-.1879883-.8647633-.7482519-1.1933861.1836882-.5637817.6054688.3445435.2504883.6369019.5639648.9815063.8144531.5847168.4072266.4594116.6057129 1.0963745 1.2114258 1.0681038 1.0356026 2.0619631 1.3997421 3.5397339 1.0541992.7784338-.2093096 3.1998196-1.8567381 3.8842773-1.6079102.5220947.1984863.7623291.8457031.8458252 1.0859375.5876427 1.6460056-.7748795 2.5007362-1.3783569 3.4458008-1.1589966 1.7856445-.3340454 3.529541 1.2217407 4.7092285 2.0465431 1.5422306 2.9608288 1.4065342 4.6234741 1.9245605l.0964355-.5861816c.052002-.3146973.350769-.526123.6638184-.4763184.3145752.0522461.5276489.3493652.4761963.6640625l-.1429443.8691406c.5234375.3139648.9817505.7597656 1.3416748 1.4682617.0332642.064209.0567627.1328125.0870972.197998.1279297-.2922363.4677124-.4257813.7606201-.298584.2921143.1279297.4258423.4682617.298584.760498-.2023106 0-.5383949 1.4662743-.8436279 2.5290527-.8237286 2.8661594-5.1801853 3.1520138-6.8287964 1.677002-1.402523-1.2445126-1.1605949-3.4879017.4281006-4.4274902-.6787109-.3967285-1.5767212-.2399902-2.2345581.2089844-1.2093658.8190899-1.46667 2.2283077-2.0361328 2.5791016-.2923584.1982422-.6682129.1982422-1.0128174.2399902-.9920044.1464844-1.9003906.8039551-2.3493652 1.7019024-.4490356.8981934-.4385376 2.015625.041748 2.9030762.1983643-.3967285.8770752-1.6811523 2.3076172-2.161377 2.4739323-.8507519 5.2983913 1.4376717 6.2023926 1.7749023 1.9108276.720459 3.7381592.2612305 4.2079468.1357422 3.8721027-.9844971 6.8691387-5.3166199 5.512146-9.5522442l-.0931396.1525879c-.1085815.1779785-.2987671.2763672-.492981.2763672-.4442692 0-.729845-.4905243-.4920044-.8791504l.5193481-.8491211c-.4060669-.7192383-.9407349-1.3613281-1.5793457-1.8813477l-.0606689.3691406c-.046936.2827148-.291626.4836426-.569519.4836426-.0310669 0-.0626831-.0024414-.0942993-.0075684-.3145752-.052002-.52771-.3491211-.4761963-.6638184l.1419067-.8632813c-.8265781-.4253731-1.4472313-.595768-2.5162354-1.0229492l-.1311035.7995605c-.0522671.3157768-.3493595.5273113-.6638184.4763184-.3145752-.052002-.52771-.3493652-.4761963-.6638184l.1845093-1.1252441c-2.0355148-1.2801991-.5631065-3.3069763-.2890015-4.9511719.0521851-.2814941.1148071-.3652344.3444824-.5322266 1.9272919-1.4164829.0591202-2.7945309-.3967896-3.8427734-.1983643-.4592285-.3132324-.9604492-.1357422-1.4094238.5534668.4279785 1.0128784 1.0024414 1.4932251 1.5871582.8144531 1.0129395 1.2321167 2.0256348 1.451355 2.7250977.1071014.5882711.5367756 1.1491852 1.2217407 1.2009277-.3132935-.3027344-.6473999-.5952148-.5639038-1.1171875.4109612.4093618.9533043 1.0573473 1.2634888 1.440918.192627-.4498396-.1956806-.5253849-.6682739-1.4724121.020874-.020752.041748-.03125.0626221-.041748.0313721.03125.0731201.0627441.1148682.0939941.2192993.2297363.4385986.4699707.6682739.6994629.4072266.4072266.4594116.730957.1879272 1.2321777-.041748.0627441-.0626221.1254883-.0939331.1882324h.1984253c1.1107941-.6976433.4837208-1.5664921.1879272-2.6313477-.0626831-.1882324-.0626831-.4074707-.0835571-.605957.0313721-.020752.0731201-.03125.1043701-.0522461.1462402.1674805.2819824.3447266.4385986.4907227.7762356.6910324 1.2313328.1816406 2.140564-.3232422-.010437-.0419922-.0209351-.0732422-.0313721-.1152344-.2296753.0209961-.4697876.0314941-.699585.0732422-1.052063.1875706-1.2608185-.411932-1.5662231-1.1591797-.041748-.09375-.0521851-.1877441-.0835571-.2817383.4490356.3444824.6056519.9814453 1.2425537 1.0754395-.3654175-.3234863-.5638428-.751709-.7727051-1.1799316-.2088013-.4279785-.4384766-.8352051-.6577759-1.2636719.4176636 0 .741333.3344727.9919434 1.0236816.2088623-.2194824.2401733-.7937012.0835571-1.1381836-.4863625-1.0297489-1.5814934-1.3328943-1.9317627-1.5664063.010437-.020752.010437-.041748.0209351-.0627441.6055908-.0625 1.1798706-.0102539 1.6707153.4594727 0-.0834961 0-.1774902-.0523071-.2192383-.0834961-.09375-.1879272-.1982422-.3132324-.2504883-.9990749-.3431236-1.3181782-.3641097-1.9317017-.4699704z" fill="#47d6f1" fill-opacity="1" data-original-color="#000000ff" stroke="none" stroke-opacity="1"/></g></g></svg>