<?xml version="1.0" encoding="utf-8"?>
<!-- Generator: Adobe Illustrator 27.5.0, SVG Export Plug-In . SVG Version: 6.00 Build 0)  -->
<svg version="1.1" xmlns="http://www.w3.org/2000/svg" xmlns:xlink="http://www.w3.org/1999/xlink" x="0px" y="0px"
	 viewBox="0 0 2000 2000" style="enable-background:new 0 0 2000 2000;" xml:space="preserve">
<symbol  id="New_Symbol_20" viewBox="-2000 -79.324 4000 158.649">
	<g id="XMLID_8849_">
		<rect id="XMLID_8872_" x="-2000" y="-79.324" style="fill:#FFC403;" width="2000" height="158.648"/>
		<path id="XMLID_8850_" style="fill:#231F20;" d="M-1631.584,79.324l157.919-158.648h52.64l-157.919,158.648H-1631.584z
			 M-1526.315,79.324l157.919-158.648h52.629l-157.919,158.648H-1526.315z M-1421.056,79.324l157.919-158.648h52.64l-157.93,158.648
			H-1421.056z M-1105.259,79.324l157.919-158.648h52.63l-157.919,158.648H-1105.259z M-1210.528,79.324l157.919-158.648h52.629
			l-157.919,158.648H-1210.528z M-2000,26.456l105.29-105.779h52.629L-2000,79.324V26.456z M-1736.843,79.324l157.919-158.648h52.63
			l-157.919,158.648H-1736.843z M-2000-79.303l0.021-0.021h52.64l-52.661,52.9V-79.303z M-1842.101,79.324l157.919-158.648h52.629
			l-157.919,158.648H-1842.101z M-1947.371,79.324l157.919-158.648h52.629l-157.919,158.648H-1947.371z M-1315.787,79.324
			l157.919-158.648h52.629l-157.919,158.648H-1315.787z M-368.416,79.324l157.919-158.648h52.629L-315.787,79.324H-368.416z
			 M-263.157,79.324l157.919-158.648h52.629L-210.528,79.324H-263.157z M-473.685,79.324l157.919-158.648h52.629L-421.056,79.324
			H-473.685z M-1000,79.324l157.919-158.648h52.629L-947.371,79.324H-1000z M-789.472,79.324l157.919-158.648h52.629
			L-736.843,79.324H-789.472z M-894.741,79.324l157.919-158.648h52.64L-842.101,79.324H-894.741z M-578.944,79.324l157.919-158.648
			h52.629L-526.315,79.324H-578.944z M-684.213,79.324l157.919-158.648h52.64l-157.93,158.648H-684.213z M-52.629,79.324L0,26.456
			v52.869H-52.629z M-157.899,79.324L0-79.303v52.879L-105.269,79.324H-157.899z"/>
	</g>
	<g id="XMLID_8615_">
		<rect id="XMLID_8848_" y="-79.324" style="fill:#FFC403;" width="2000" height="158.648"/>
		<path id="XMLID_8616_" style="fill:#231F20;" d="M368.416,79.324L526.336-79.324h52.64L421.056,79.324H368.416z M473.685,79.324
			L631.605-79.324h52.629L526.315,79.324H473.685z M578.944,79.324L736.864-79.324h52.64L631.573,79.324H578.944z M894.741,79.324
			l157.919-158.648h52.629L947.371,79.324H894.741z M789.472,79.324L947.391-79.324h52.629L842.102,79.324H789.472z M0,26.456
			L105.29-79.324h52.629L0,79.324V26.456z M263.157,79.324L421.077-79.324h52.63L315.787,79.324H263.157z M0-79.303l0.021-0.021
			h52.64L0-26.424V-79.303z M157.899,79.324L315.818-79.324h52.629L210.528,79.324H157.899z M52.629,79.324L210.549-79.324h52.629
			L105.259,79.324H52.629z M684.213,79.324L842.133-79.324h52.629L736.843,79.324H684.213z M1631.584,79.324l157.919-158.648h52.629
			L1684.213,79.324H1631.584z M1736.843,79.324l157.92-158.648h52.629L1789.472,79.324H1736.843z M1526.315,79.324l157.919-158.648
			h52.629L1578.944,79.324H1526.315z M1000,79.324l157.919-158.648h52.629L1052.629,79.324H1000z M1210.528,79.324l157.919-158.648
			h52.629L1263.157,79.324H1210.528z M1105.259,79.324l157.919-158.648h52.64L1157.899,79.324H1105.259z M1421.056,79.324
			l157.919-158.648h52.629L1473.686,79.324H1421.056z M1315.787,79.324l157.919-158.648h52.64l-157.93,158.648H1315.787z
			 M1947.371,79.324L2000,26.456v52.869H1947.371z M1842.101,79.324L2000-79.303v52.879L1894.731,79.324H1842.101z"/>
	</g>
</symbol>
<symbol  id="New_Symbol_21" viewBox="-2000 -76.238 4000 152.475">
	<g id="XMLID_8764_">
		<rect id="XMLID_8876_" x="-2000" y="-76.237" style="fill:#FFC403;" width="2000" height="152.475"/>
		<g id="XMLID_8765_">
			<g id="XMLID_8816_">
				<polygon id="XMLID_8875_" style="fill:#231F20;" points="-1923.765,0.001 -2000,-76.234 -2000,-25.656 -1974.343,0.001 
					-2000,25.658 -2000,76.236 				"/>
				<path id="XMLID_8826_" style="fill:#231F20;" d="M-1050.587,76.232L-1000,25.655v50.578H-1050.587z M-1000-76.238v50.578
					l-50.587-50.578H-1000z"/>
				<polygon id="XMLID_8825_" style="fill:#231F20;" points="-1823.765,0 -1900.003,-76.238 -1950.585,-76.238 -1874.347,0 
					-1950.585,76.238 -1900.003,76.238 				"/>
				<polygon id="XMLID_8824_" style="fill:#231F20;" points="-1723.765,0 -1800.003,-76.238 -1850.585,-76.238 -1774.348,0 
					-1850.585,76.238 -1800.003,76.238 				"/>
				<polygon id="XMLID_8823_" style="fill:#231F20;" points="-1623.766,0 -1700.003,-76.238 -1750.585,-76.238 -1674.348,0 
					-1750.585,76.238 -1700.003,76.238 				"/>
				<polygon id="XMLID_8822_" style="fill:#231F20;" points="-1523.766,0 -1600.003,-76.238 -1650.586,-76.238 -1574.348,0 
					-1650.586,76.238 -1600.003,76.238 				"/>
				<polygon id="XMLID_8821_" style="fill:#231F20;" points="-1423.766,0 -1500.004,-76.238 -1550.586,-76.238 -1474.348,0 
					-1550.586,76.238 -1500.004,76.238 				"/>
				<polygon id="XMLID_8820_" style="fill:#231F20;" points="-1323.766,0 -1400.004,-76.238 -1450.586,-76.238 -1374.348,0 
					-1450.586,76.238 -1400.004,76.238 				"/>
				<polygon id="XMLID_8819_" style="fill:#231F20;" points="-1223.767,0 -1300.004,-76.238 -1350.586,-76.238 -1274.349,0 
					-1350.586,76.238 -1300.004,76.238 				"/>
				<polygon id="XMLID_8818_" style="fill:#231F20;" points="-1123.767,0 -1200.004,-76.238 -1250.587,-76.238 -1174.349,0 
					-1250.587,76.238 -1200.004,76.238 				"/>
				<polygon id="XMLID_8817_" style="fill:#231F20;" points="-1023.767,0 -1100.005,-76.238 -1150.587,-76.238 -1074.349,0 
					-1150.587,76.238 -1100.005,76.238 				"/>
			</g>
			<g id="XMLID_8766_">
				<polygon id="XMLID_8793_" style="fill:#231F20;" points="-923.765,0.001 -1000,-76.234 -1000,-25.656 -974.343,0.001 
					-1000,25.658 -1000,76.236 				"/>
				<path id="XMLID_8776_" style="fill:#231F20;" d="M-50.587,76.232L0,25.655v50.578H-50.587z M0-76.238v50.578l-50.587-50.578H0z"
					/>
				<polygon id="XMLID_8775_" style="fill:#231F20;" points="-823.765,0 -900.003,-76.238 -950.585,-76.238 -874.347,0 
					-950.585,76.238 -900.003,76.238 				"/>
				<polygon id="XMLID_8774_" style="fill:#231F20;" points="-723.765,0 -800.003,-76.238 -850.585,-76.238 -774.347,0 
					-850.585,76.238 -800.003,76.238 				"/>
				<polygon id="XMLID_8773_" style="fill:#231F20;" points="-623.766,0 -700.003,-76.238 -750.585,-76.238 -674.348,0 
					-750.585,76.238 -700.003,76.238 				"/>
				<polygon id="XMLID_8772_" style="fill:#231F20;" points="-523.766,0 -600.003,-76.238 -650.586,-76.238 -574.348,0 
					-650.586,76.238 -600.003,76.238 				"/>
				<polygon id="XMLID_8771_" style="fill:#231F20;" points="-423.766,0 -500.004,-76.238 -550.586,-76.238 -474.348,0 
					-550.586,76.238 -500.004,76.238 				"/>
				<polygon id="XMLID_8770_" style="fill:#231F20;" points="-323.766,0 -400.004,-76.238 -450.586,-76.238 -374.349,0 
					-450.586,76.238 -400.004,76.238 				"/>
				<polygon id="XMLID_8769_" style="fill:#231F20;" points="-223.767,0 -300.004,-76.238 -350.586,-76.238 -274.349,0 
					-350.586,76.238 -300.004,76.238 				"/>
				<polygon id="XMLID_8768_" style="fill:#231F20;" points="-123.767,0 -200.004,-76.238 -250.587,-76.238 -174.349,0 
					-250.587,76.238 -200.004,76.238 				"/>
				<polygon id="XMLID_8767_" style="fill:#231F20;" points="-23.767,0 -100.005,-76.238 -150.587,-76.238 -74.349,0 
					-150.587,76.238 -100.005,76.238 				"/>
			</g>
		</g>
	</g>
	<g id="XMLID_1890_">
		<rect id="XMLID_8763_" y="-76.237" style="fill:#FFC403;" width="2000" height="152.475"/>
		<g id="XMLID_1891_">
			<g id="XMLID_8624_">
				<polygon id="XMLID_8762_" style="fill:#231F20;" points="76.235,0.001 0,-76.234 0,-25.656 25.657,0.001 0,25.658 0,76.236 				
					"/>
				<path id="XMLID_8683_" style="fill:#231F20;" d="M949.413,76.232L1000,25.655v50.578H949.413z M1000-76.238v50.578
					l-50.587-50.578H1000z"/>
				<polygon id="XMLID_8678_" style="fill:#231F20;" points="176.235,0 99.997,-76.238 49.415,-76.238 125.653,0 49.415,76.238 
					99.997,76.238 				"/>
				<polygon id="XMLID_8676_" style="fill:#231F20;" points="276.235,0 199.997,-76.238 149.415,-76.238 225.652,0 149.415,76.238 
					199.997,76.238 				"/>
				<polygon id="XMLID_8675_" style="fill:#231F20;" points="376.234,0 299.997,-76.238 249.415,-76.238 325.652,0 249.415,76.238 
					299.997,76.238 				"/>
				<polygon id="XMLID_8674_" style="fill:#231F20;" points="476.234,0 399.997,-76.238 349.414,-76.238 425.652,0 349.414,76.238 
					399.997,76.238 				"/>
				<polygon id="XMLID_8673_" style="fill:#231F20;" points="576.234,0 499.996,-76.238 449.414,-76.238 525.652,0 449.414,76.238 
					499.996,76.238 				"/>
				<polygon id="XMLID_8628_" style="fill:#231F20;" points="676.234,0 599.996,-76.238 549.414,-76.238 625.652,0 549.414,76.238 
					599.996,76.238 				"/>
				<polygon id="XMLID_8627_" style="fill:#231F20;" points="776.233,0 699.996,-76.238 649.414,-76.238 725.651,0 649.414,76.238 
					699.996,76.238 				"/>
				<polygon id="XMLID_8626_" style="fill:#231F20;" points="876.233,0 799.996,-76.238 749.414,-76.238 825.651,0 749.414,76.238 
					799.996,76.238 				"/>
				<polygon id="XMLID_8625_" style="fill:#231F20;" points="976.233,0 899.995,-76.238 849.413,-76.238 925.651,0 849.413,76.238 
					899.995,76.238 				"/>
			</g>
			<g id="XMLID_5761_">
				<polygon id="XMLID_8623_" style="fill:#231F20;" points="1076.235,0.001 1000,-76.234 1000,-25.656 1025.657,0.001 1000,25.658 
					1000,76.236 				"/>
				<path id="XMLID_8620_" style="fill:#231F20;" d="M1949.413,76.232L2000,25.655v50.578H1949.413z M2000-76.238v50.578
					l-50.587-50.578H2000z"/>
				<polygon id="XMLID_8619_" style="fill:#231F20;" points="1176.235,0 1099.997,-76.238 1049.415,-76.238 1125.653,0 
					1049.415,76.238 1099.997,76.238 				"/>
				<polygon id="XMLID_8618_" style="fill:#231F20;" points="1276.235,0 1199.997,-76.238 1149.415,-76.238 1225.652,0 
					1149.415,76.238 1199.997,76.238 				"/>
				<polygon id="XMLID_8617_" style="fill:#231F20;" points="1376.234,0 1299.997,-76.238 1249.415,-76.238 1325.652,0 
					1249.415,76.238 1299.997,76.238 				"/>
				<polygon id="XMLID_5775_" style="fill:#231F20;" points="1476.234,0 1399.996,-76.238 1349.414,-76.238 1425.652,0 
					1349.414,76.238 1399.996,76.238 				"/>
				<polygon id="XMLID_5773_" style="fill:#231F20;" points="1576.234,0 1499.996,-76.238 1449.414,-76.238 1525.652,0 
					1449.414,76.238 1499.996,76.238 				"/>
				<polygon id="XMLID_5772_" style="fill:#231F20;" points="1676.234,0 1599.996,-76.238 1549.414,-76.238 1625.651,0 
					1549.414,76.238 1599.996,76.238 				"/>
				<polygon id="XMLID_5771_" style="fill:#231F20;" points="1776.233,0 1699.996,-76.238 1649.414,-76.238 1725.651,0 
					1649.414,76.238 1699.996,76.238 				"/>
				<polygon id="XMLID_5770_" style="fill:#231F20;" points="1876.233,0 1799.996,-76.238 1749.413,-76.238 1825.651,0 
					1749.413,76.238 1799.996,76.238 				"/>
				<polygon id="XMLID_5763_" style="fill:#231F20;" points="1976.233,0 1899.995,-76.238 1849.413,-76.238 1925.651,0 
					1849.413,76.238 1899.995,76.238 				"/>
			</g>
		</g>
	</g>
</symbol>
<g id="Layer_2">
	<rect id="XMLID_5297_" style="fill:#FFFFFF;" width="2000" height="2000"/>
</g>
<g id="Layer_28">
	<g id="XMLID_685_">
		
			<radialGradient id="XMLID_00000103944046100602179710000015742943047133527717_" cx="742.5894" cy="1635.8373" r="1098.1736" gradientUnits="userSpaceOnUse">
			<stop  offset="0" style="stop-color:#2DA7DF"/>
			<stop  offset="1" style="stop-color:#2A3F8F"/>
		</radialGradient>
		<path id="XMLID_171_" style="fill:url(#XMLID_00000103944046100602179710000015742943047133527717_);" d="M813.82,757.954
			L813.82,757.954c0.776,20.619,17.312,37.155,37.931,37.931l0,0l0,0c-20.618,0.776-37.154,17.312-37.931,37.931l0,0l0,0
			c-0.776-20.619-17.312-37.154-37.931-37.931h0h0C796.508,795.109,813.044,778.573,813.82,757.954L813.82,757.954z"/>
		
			<radialGradient id="XMLID_00000104707887454250358240000012994872939960834450_" cx="742.5887" cy="1635.8403" r="1098.1796" gradientUnits="userSpaceOnUse">
			<stop  offset="0" style="stop-color:#2DA7DF"/>
			<stop  offset="1" style="stop-color:#2A3F8F"/>
		</radialGradient>
		<path id="XMLID_172_" style="fill:url(#XMLID_00000104707887454250358240000012994872939960834450_);" d="M1277.175,983.193
			L1277.175,983.193c0.344,9.136,7.671,16.463,16.806,16.807h0h0c-9.136,0.344-16.463,7.671-16.806,16.806v0v0
			c-0.344-9.136-7.671-16.463-16.806-16.806l0,0l0,0C1269.504,999.656,1276.831,992.329,1277.175,983.193L1277.175,983.193z"/>
		
			<radialGradient id="XMLID_00000074408697881606057710000006045939570917633703_" cx="742.5895" cy="1635.8386" r="1098.1764" gradientUnits="userSpaceOnUse">
			<stop  offset="0" style="stop-color:#2DA7DF"/>
			<stop  offset="1" style="stop-color:#2A3F8F"/>
		</radialGradient>
		<path id="XMLID_173_" style="fill:url(#XMLID_00000074408697881606057710000006045939570917633703_);" d="M695.701,967.047
			L695.701,967.047c0.674,17.913,15.04,32.279,32.953,32.953l0,0l0,0c-17.913,0.674-32.279,15.04-32.953,32.953l0,0l0,0
			c-0.674-17.913-15.04-32.279-32.953-32.953l0,0l0,0C680.661,999.326,695.026,984.96,695.701,967.047L695.701,967.047z"/>
		
			<radialGradient id="XMLID_00000102503579141137644620000008175330149733995651_" cx="742.5897" cy="1635.8418" r="1098.1772" gradientUnits="userSpaceOnUse">
			<stop  offset="0" style="stop-color:#2DA7DF"/>
			<stop  offset="1" style="stop-color:#2A3F8F"/>
		</radialGradient>
		<path id="XMLID_174_" style="fill:url(#XMLID_00000102503579141137644620000008175330149733995651_);" d="M1188.532,454.757
			L1188.532,454.757c0.674,17.913,15.04,32.279,32.953,32.953l0,0l0,0c-17.913,0.674-32.279,15.04-32.953,32.953v0v0
			c-0.674-17.913-15.04-32.279-32.953-32.953l0,0l0,0C1173.492,487.035,1187.858,472.669,1188.532,454.757L1188.532,454.757z"/>
		
			<radialGradient id="XMLID_00000121972807480684997290000001076776491199835578_" cx="742.5887" cy="1635.8387" r="1098.1798" gradientUnits="userSpaceOnUse">
			<stop  offset="0" style="stop-color:#2DA7DF"/>
			<stop  offset="1" style="stop-color:#2A3F8F"/>
		</radialGradient>
		<path id="XMLID_175_" style="fill:url(#XMLID_00000121972807480684997290000001076776491199835578_);" d="M1238.292,570.068
			L1238.292,570.068c0.344,9.136,7.671,16.462,16.807,16.807l0,0l0,0c-9.136,0.344-16.463,7.671-16.807,16.806l0,0l0,0
			c-0.344-9.136-7.671-16.463-16.806-16.806l0,0l0,0C1230.621,586.53,1237.948,579.203,1238.292,570.068L1238.292,570.068z"/>
		
			<radialGradient id="XMLID_00000070091218307733851990000010700675892424543920_" cx="742.5894" cy="1635.8391" r="1098.1761" gradientUnits="userSpaceOnUse">
			<stop  offset="0" style="stop-color:#2DA7DF"/>
			<stop  offset="1" style="stop-color:#2A3F8F"/>
		</radialGradient>
		<path id="XMLID_176_" style="fill:url(#XMLID_00000070091218307733851990000010700675892424543920_);" d="M822.2,562.61
			L822.2,562.61c0.248,6.595,5.537,11.884,12.132,12.132l0,0l0,0c-6.595,0.248-11.884,5.537-12.132,12.132l0,0l0,0
			c-0.248-6.595-5.537-11.884-12.132-12.132l0,0l0,0C816.662,574.494,821.951,569.205,822.2,562.61L822.2,562.61z"/>
		
			<radialGradient id="XMLID_00000173864049930846328700000008190068487826536125_" cx="758.736" cy="1611.6224" r="1098.178" gradientUnits="userSpaceOnUse">
			<stop  offset="0" style="stop-color:#2DA7DF"/>
			<stop  offset="1" style="stop-color:#2A3F8F"/>
		</radialGradient>
		<path id="XMLID_177_" style="fill:url(#XMLID_00000173864049930846328700000008190068487826536125_);" d="M1350.295,862.411
			c-12.007-15.787-23.471-13.369-42.576-48.278c-0.493-0.901-1.176-2.26-1.954-3.889c-1.495-3.132-2.863-6.318-4.115-9.549
			c-23.11-71.069-27.948-92.378-54.938-139.731c-9.549-16.754-49.979-32.409-122.038-104.82
			c-5.088-23.513-4.108-39.875-3.628-57.184c10.799,32.926,21.562,46.807,39.898,58.037
			c-30.591-31.414-22.328-133.091-48.742-184.087c-16.976-32.776-47.444-58.763-81.61-72.731
			c-18.657-7.628-47.489-2.102-67.542-0.067c-12.638,1.283-41.637,13.179-34.513,48.117c0.004,0.001,0.009,0.001,0.014,0.002
			c-3.305,3.866-6.475,8.074-9.42,12.638c-3.557,5.511-3.632,13.807-6.622,20.138c-3.269,6.922-5.814,9.519-18.202,13.196
			c-1.302,0.387-2.427,1.293-2.955,2.544c-1.109,2.624,0.863,4.715,2.659,6.385c2.144,1.995,2.409,1.194,4.553,3.189
			c0.662,0.615,1.007,1.584,0.654,2.442c-0.547,1.33-1.747,1.975-4.064,3.017c-2.471,1.111-2.131,4.302,1.391,6.516
			c-2.052,0.044-4.752,1.102-4.715,4.109c0.016,1.274,0.587,2.748,1.185,4.231c1.043,2.587,1.18,5.461,0.353,8.124
			c-2.447,7.881-5.002,10.06-4.675,14.653c0.774,10.886,36.703,12.141,66.355,7.905c0,0-10.49,5.764-22.024,9.869
			c5.517,3.036,11.212,8.69,12.495,17.413c4.665,31.71-39.239,62.801-53.045,96.69c-8.571,21.039-4.576,38.909,17.912,59.933
			c18.348,17.154,22.017,20.693,28.703,27.314c0.233,0.248,0.466,0.497,0.698,0.745c29.482,31.643,43.875,74.428,39.978,117.501
			c-2.745,30.342-11.28,65.033-33.659,85.044c49.159-23.638,42.464-60.247,42.464-60.247s7.746,20.424-7.531,43.93
			c-35.144,54.076-150.092,69.974-212.221,142.772c-96.154,112.665,2.927,261.696,62.476,365.161
			c28.245,49.075,41.608,105.177,17.964,156.627c-0.143,0.31-0.286,0.62-0.429,0.93c-17.149,36.981-40.072,72.648-44.605,113.158
			c-7.262,64.908,42.016,131.135,106.273,142.827c-38.025-22.586-57.271-87.854-27.15-139.002
			c13.578-23.057,60.563-60.768,47.384-131.37c7.396,39.622,39.855,68.424,76.69,85.261
			c146.41,66.924,148.86,193.839,131.934,252.731c45.504-61.05,60.297-158.525,46.418-233.392
			c-13.88-74.867-75.244-168.926-226.812-199.623c-37.029-7.5-62.016-38.705-80.025-71.918
			c-30.942-57.067-72.362-187.008,0.122-252.903c0,0-20.396,32.738-18.723,72.066c21.758-59.828,58.401-95.297,99.219-112.684
			c58.932-25.103,113.123-39.363,153.484-51.949c63.332-19.749,100.41-53.168,100.411-111.08
			c0.001-71.542-48.531-111.497-90.196-162.516c-20.847-28.121-37.193-53.221-43.991-81.01
			c8.746,19.839,21.702,40.182,40.483,56.717c-15.595-22.758-20.045-45.438-20.775-66.643
			c33.311,32.585,70.732,56.581,91.417,116.351c0-44.859-14.445-71.808-30.727-102.497c15.302,10.309,30.901,21.777,46.271,35.263
			c25.05,53.898,62.554,82.293,72.072,130.128c1.115,5.603,2.043,11.267,1.55,17c-0.446,5.182-1.295,10.277-2.221,14.227
			c-2.289,9.756-5.153,20.477-11.405,28.242c-1.917,2.38-0.091,5.882,2.963,5.767c4.104-0.155,7.378-2.619,8.934-4.158
			c5.132-5.07,8.305-11.086,10.397-17.695c11.714,12.086,24.168,2.06,58.249,29.911c1.767,1.444,7.093,0.336,4.993-5.423
			c2.401-0.798,2.504-4.245,0.295-6.906C1353.941,871.412,1354.397,867.804,1350.295,862.411z"/>
	</g>
</g>
</svg>
