<?xml version="1.0" encoding="utf-8"?>
<!-- Generator: Adobe Illustrator 27.5.0, SVG Export Plug-In . SVG Version: 6.00 Build 0)  -->
<svg version="1.1" xmlns="http://www.w3.org/2000/svg" xmlns:xlink="http://www.w3.org/1999/xlink" x="0px" y="0px"
	 viewBox="0 0 2000 2000" style="enable-background:new 0 0 2000 2000;" xml:space="preserve">
<symbol  id="New_Symbol_20" viewBox="-2000 -79.324 4000 158.649">
	<g id="XMLID_8849_">
		<rect id="XMLID_8872_" x="-2000" y="-79.324" style="fill:#FFC403;" width="2000" height="158.648"/>
		<path id="XMLID_8850_" style="fill:#231F20;" d="M-1631.584,79.324l157.919-158.648h52.64l-157.919,158.648H-1631.584z
			 M-1526.315,79.324l157.919-158.648h52.629l-157.919,158.648H-1526.315z M-1421.056,79.324l157.919-158.648h52.64l-157.93,158.648
			H-1421.056z M-1105.259,79.324l157.919-158.648h52.63l-157.919,158.648H-1105.259z M-1210.528,79.324l157.919-158.648h52.629
			l-157.919,158.648H-1210.528z M-2000,26.456l105.29-105.779h52.629L-2000,79.324V26.456z M-1736.843,79.324l157.919-158.648h52.63
			l-157.919,158.648H-1736.843z M-2000-79.303l0.021-0.021h52.64l-52.661,52.9V-79.303z M-1842.101,79.324l157.919-158.648h52.629
			l-157.919,158.648H-1842.101z M-1947.371,79.324l157.919-158.648h52.629l-157.919,158.648H-1947.371z M-1315.787,79.324
			l157.919-158.648h52.629l-157.919,158.648H-1315.787z M-368.416,79.324l157.919-158.648h52.629L-315.787,79.324H-368.416z
			 M-263.157,79.324l157.919-158.648h52.629L-210.528,79.324H-263.157z M-473.685,79.324l157.919-158.648h52.629L-421.056,79.324
			H-473.685z M-1000,79.324l157.919-158.648h52.629L-947.371,79.324H-1000z M-789.472,79.324l157.919-158.648h52.629
			L-736.843,79.324H-789.472z M-894.741,79.324l157.919-158.648h52.64L-842.101,79.324H-894.741z M-578.944,79.324l157.919-158.648
			h52.629L-526.315,79.324H-578.944z M-684.213,79.324l157.919-158.648h52.64l-157.93,158.648H-684.213z M-52.629,79.324L0,26.456
			v52.869H-52.629z M-157.899,79.324L0-79.303v52.879L-105.269,79.324H-157.899z"/>
	</g>
	<g id="XMLID_8615_">
		<rect id="XMLID_8848_" y="-79.324" style="fill:#FFC403;" width="2000" height="158.648"/>
		<path id="XMLID_8616_" style="fill:#231F20;" d="M368.416,79.324L526.336-79.324h52.64L421.056,79.324H368.416z M473.685,79.324
			L631.605-79.324h52.629L526.315,79.324H473.685z M578.944,79.324L736.864-79.324h52.64L631.573,79.324H578.944z M894.741,79.324
			l157.919-158.648h52.629L947.371,79.324H894.741z M789.472,79.324L947.391-79.324h52.629L842.102,79.324H789.472z M0,26.456
			L105.29-79.324h52.629L0,79.324V26.456z M263.157,79.324L421.077-79.324h52.63L315.787,79.324H263.157z M0-79.303l0.021-0.021
			h52.64L0-26.424V-79.303z M157.899,79.324L315.818-79.324h52.629L210.528,79.324H157.899z M52.629,79.324L210.549-79.324h52.629
			L105.259,79.324H52.629z M684.213,79.324L842.133-79.324h52.629L736.843,79.324H684.213z M1631.584,79.324l157.919-158.648h52.629
			L1684.213,79.324H1631.584z M1736.843,79.324l157.92-158.648h52.629L1789.472,79.324H1736.843z M1526.315,79.324l157.919-158.648
			h52.63L1578.944,79.324H1526.315z M1000,79.324l157.919-158.648h52.629L1052.629,79.324H1000z M1210.528,79.324l157.919-158.648
			h52.629L1263.157,79.324H1210.528z M1105.259,79.324l157.919-158.648h52.64L1157.899,79.324H1105.259z M1421.056,79.324
			l157.919-158.648h52.63L1473.686,79.324H1421.056z M1315.787,79.324l157.919-158.648h52.64l-157.93,158.648H1315.787z
			 M1947.371,79.324L2000,26.456v52.869H1947.371z M1842.101,79.324L2000-79.303v52.879L1894.731,79.324H1842.101z"/>
	</g>
</symbol>
<symbol  id="New_Symbol_21" viewBox="-2000 -76.238 4000 152.475">
	<g id="XMLID_8764_">
		<rect id="XMLID_8876_" x="-2000" y="-76.237" style="fill:#FFC403;" width="2000" height="152.475"/>
		<g id="XMLID_8765_">
			<g id="XMLID_8816_">
				<polygon id="XMLID_8875_" style="fill:#231F20;" points="-1923.765,0.001 -2000,-76.234 -2000,-25.656 -1974.343,0.001 
					-2000,25.658 -2000,76.236 				"/>
				<path id="XMLID_8826_" style="fill:#231F20;" d="M-1050.587,76.232L-1000,25.655v50.578H-1050.587z M-1000-76.238v50.578
					l-50.587-50.578H-1000z"/>
				<polygon id="XMLID_8825_" style="fill:#231F20;" points="-1823.765,0 -1900.003,-76.238 -1950.585,-76.238 -1874.347,0 
					-1950.585,76.238 -1900.003,76.238 				"/>
				<polygon id="XMLID_8824_" style="fill:#231F20;" points="-1723.765,0 -1800.003,-76.238 -1850.585,-76.238 -1774.348,0 
					-1850.585,76.238 -1800.003,76.238 				"/>
				<polygon id="XMLID_8823_" style="fill:#231F20;" points="-1623.766,0 -1700.003,-76.238 -1750.585,-76.238 -1674.348,0 
					-1750.585,76.238 -1700.003,76.238 				"/>
				<polygon id="XMLID_8822_" style="fill:#231F20;" points="-1523.766,0 -1600.003,-76.238 -1650.586,-76.238 -1574.348,0 
					-1650.586,76.238 -1600.003,76.238 				"/>
				<polygon id="XMLID_8821_" style="fill:#231F20;" points="-1423.766,0 -1500.004,-76.238 -1550.586,-76.238 -1474.348,0 
					-1550.586,76.238 -1500.004,76.238 				"/>
				<polygon id="XMLID_8820_" style="fill:#231F20;" points="-1323.766,0 -1400.004,-76.238 -1450.586,-76.238 -1374.348,0 
					-1450.586,76.238 -1400.004,76.238 				"/>
				<polygon id="XMLID_8819_" style="fill:#231F20;" points="-1223.767,0 -1300.004,-76.238 -1350.586,-76.238 -1274.349,0 
					-1350.586,76.238 -1300.004,76.238 				"/>
				<polygon id="XMLID_8818_" style="fill:#231F20;" points="-1123.767,0 -1200.004,-76.238 -1250.587,-76.238 -1174.349,0 
					-1250.587,76.238 -1200.004,76.238 				"/>
				<polygon id="XMLID_8817_" style="fill:#231F20;" points="-1023.767,0 -1100.005,-76.238 -1150.587,-76.238 -1074.349,0 
					-1150.587,76.238 -1100.005,76.238 				"/>
			</g>
			<g id="XMLID_8766_">
				<polygon id="XMLID_8793_" style="fill:#231F20;" points="-923.765,0.001 -1000,-76.234 -1000,-25.656 -974.343,0.001 
					-1000,25.658 -1000,76.236 				"/>
				<path id="XMLID_8776_" style="fill:#231F20;" d="M-50.587,76.232L0,25.655v50.578H-50.587z M0-76.238v50.578l-50.587-50.578H0z"
					/>
				<polygon id="XMLID_8775_" style="fill:#231F20;" points="-823.765,0 -900.003,-76.238 -950.585,-76.238 -874.347,0 
					-950.585,76.238 -900.003,76.238 				"/>
				<polygon id="XMLID_8774_" style="fill:#231F20;" points="-723.765,0 -800.003,-76.238 -850.585,-76.238 -774.347,0 
					-850.585,76.238 -800.003,76.238 				"/>
				<polygon id="XMLID_8773_" style="fill:#231F20;" points="-623.766,0 -700.003,-76.238 -750.585,-76.238 -674.348,0 
					-750.585,76.238 -700.003,76.238 				"/>
				<polygon id="XMLID_8772_" style="fill:#231F20;" points="-523.766,0 -600.003,-76.238 -650.586,-76.238 -574.348,0 
					-650.586,76.238 -600.003,76.238 				"/>
				<polygon id="XMLID_8771_" style="fill:#231F20;" points="-423.766,0 -500.004,-76.238 -550.586,-76.238 -474.348,0 
					-550.586,76.238 -500.004,76.238 				"/>
				<polygon id="XMLID_8770_" style="fill:#231F20;" points="-323.766,0 -400.004,-76.238 -450.586,-76.238 -374.349,0 
					-450.586,76.238 -400.004,76.238 				"/>
				<polygon id="XMLID_8769_" style="fill:#231F20;" points="-223.767,0 -300.004,-76.238 -350.586,-76.238 -274.349,0 
					-350.586,76.238 -300.004,76.238 				"/>
				<polygon id="XMLID_8768_" style="fill:#231F20;" points="-123.767,0 -200.004,-76.238 -250.587,-76.238 -174.349,0 
					-250.587,76.238 -200.004,76.238 				"/>
				<polygon id="XMLID_8767_" style="fill:#231F20;" points="-23.767,0 -100.005,-76.238 -150.587,-76.238 -74.349,0 
					-150.587,76.238 -100.005,76.238 				"/>
			</g>
		</g>
	</g>
	<g id="XMLID_1890_">
		<rect id="XMLID_8763_" y="-76.237" style="fill:#FFC403;" width="2000" height="152.475"/>
		<g id="XMLID_1891_">
			<g id="XMLID_8624_">
				<polygon id="XMLID_8762_" style="fill:#231F20;" points="76.235,0.001 0,-76.234 0,-25.656 25.657,0.001 0,25.658 0,76.236 				
					"/>
				<path id="XMLID_8683_" style="fill:#231F20;" d="M949.413,76.232L1000,25.655v50.578H949.413z M1000-76.238v50.578
					l-50.587-50.578H1000z"/>
				<polygon id="XMLID_8678_" style="fill:#231F20;" points="176.235,0 99.997,-76.238 49.415,-76.238 125.653,0 49.415,76.238 
					99.997,76.238 				"/>
				<polygon id="XMLID_8676_" style="fill:#231F20;" points="276.235,0 199.997,-76.238 149.415,-76.238 225.652,0 149.415,76.238 
					199.997,76.238 				"/>
				<polygon id="XMLID_8675_" style="fill:#231F20;" points="376.234,0 299.997,-76.238 249.415,-76.238 325.652,0 249.415,76.238 
					299.997,76.238 				"/>
				<polygon id="XMLID_8674_" style="fill:#231F20;" points="476.234,0 399.997,-76.238 349.414,-76.238 425.652,0 349.414,76.238 
					399.997,76.238 				"/>
				<polygon id="XMLID_8673_" style="fill:#231F20;" points="576.234,0 499.996,-76.238 449.414,-76.238 525.652,0 449.414,76.238 
					499.996,76.238 				"/>
				<polygon id="XMLID_8628_" style="fill:#231F20;" points="676.234,0 599.996,-76.238 549.414,-76.238 625.652,0 549.414,76.238 
					599.996,76.238 				"/>
				<polygon id="XMLID_8627_" style="fill:#231F20;" points="776.233,0 699.996,-76.238 649.414,-76.238 725.651,0 649.414,76.238 
					699.996,76.238 				"/>
				<polygon id="XMLID_8626_" style="fill:#231F20;" points="876.233,0 799.996,-76.238 749.414,-76.238 825.651,0 749.414,76.238 
					799.996,76.238 				"/>
				<polygon id="XMLID_8625_" style="fill:#231F20;" points="976.233,0 899.995,-76.238 849.413,-76.238 925.651,0 849.413,76.238 
					899.995,76.238 				"/>
			</g>
			<g id="XMLID_5761_">
				<polygon id="XMLID_8623_" style="fill:#231F20;" points="1076.235,0.001 1000,-76.234 1000,-25.656 1025.657,0.001 1000,25.658 
					1000,76.236 				"/>
				<path id="XMLID_8620_" style="fill:#231F20;" d="M1949.413,76.232L2000,25.655v50.578H1949.413z M2000-76.238v50.578
					l-50.587-50.578H2000z"/>
				<polygon id="XMLID_8619_" style="fill:#231F20;" points="1176.235,0 1099.997,-76.238 1049.415,-76.238 1125.653,0 
					1049.415,76.238 1099.997,76.238 				"/>
				<polygon id="XMLID_8618_" style="fill:#231F20;" points="1276.235,0 1199.997,-76.238 1149.415,-76.238 1225.652,0 
					1149.415,76.238 1199.997,76.238 				"/>
				<polygon id="XMLID_8617_" style="fill:#231F20;" points="1376.234,0 1299.997,-76.238 1249.415,-76.238 1325.652,0 
					1249.415,76.238 1299.997,76.238 				"/>
				<polygon id="XMLID_5775_" style="fill:#231F20;" points="1476.234,0 1399.996,-76.238 1349.414,-76.238 1425.652,0 
					1349.414,76.238 1399.996,76.238 				"/>
				<polygon id="XMLID_5773_" style="fill:#231F20;" points="1576.234,0 1499.996,-76.238 1449.414,-76.238 1525.652,0 
					1449.414,76.238 1499.996,76.238 				"/>
				<polygon id="XMLID_5772_" style="fill:#231F20;" points="1676.234,0 1599.996,-76.238 1549.414,-76.238 1625.651,0 
					1549.414,76.238 1599.996,76.238 				"/>
				<polygon id="XMLID_5771_" style="fill:#231F20;" points="1776.233,0 1699.996,-76.238 1649.414,-76.238 1725.651,0 
					1649.414,76.238 1699.996,76.238 				"/>
				<polygon id="XMLID_5770_" style="fill:#231F20;" points="1876.233,0 1799.996,-76.238 1749.413,-76.238 1825.651,0 
					1749.413,76.238 1799.996,76.238 				"/>
				<polygon id="XMLID_5763_" style="fill:#231F20;" points="1976.233,0 1899.995,-76.238 1849.413,-76.238 1925.651,0 
					1849.413,76.238 1899.995,76.238 				"/>
			</g>
		</g>
	</g>
</symbol>
<g id="Layer_2">
	<rect id="XMLID_935_" style="fill:#FFFFFF;" width="2000" height="2000"/>
</g>
<g id="Layer_28">
	<g id="XMLID_178_">
		
			<radialGradient id="XMLID_00000113331551249055696070000007432175391833245098_" cx="1782.0183" cy="443.596" r="1684.4355" gradientUnits="userSpaceOnUse">
			<stop  offset="0" style="stop-color:#42B5B4"/>
			<stop  offset="1" style="stop-color:#016080"/>
		</radialGradient>
		<path id="XMLID_179_" style="fill:url(#XMLID_00000113331551249055696070000007432175391833245098_);" d="M1607.983,779.981
			L1607.983,779.981c0.594,15.774,13.245,28.425,29.019,29.019l0,0l0,0c-15.774,0.594-28.425,13.245-29.019,29.019v0v0
			c-0.594-15.774-13.245-28.425-29.019-29.019l0,0l0,0C1594.738,808.406,1607.389,795.755,1607.983,779.981L1607.983,779.981z"/>
		
			<radialGradient id="XMLID_00000115488070689694030680000009813635623661545101_" cx="1782.0182" cy="443.5966" r="1684.4321" gradientUnits="userSpaceOnUse">
			<stop  offset="0" style="stop-color:#42B5B4"/>
			<stop  offset="1" style="stop-color:#016080"/>
		</radialGradient>
		<path id="XMLID_180_" style="fill:url(#XMLID_00000115488070689694030680000009813635623661545101_);" d="M1674.558,629.477
			L1674.558,629.477c0.768,20.415,17.141,36.788,37.556,37.556l0,0l0,0c-20.415,0.768-36.788,17.141-37.556,37.556l0,0l0,0
			c-0.769-20.415-17.141-36.788-37.556-37.556l0,0l0,0C1657.417,666.264,1673.79,649.891,1674.558,629.477L1674.558,629.477z"/>
		
			<radialGradient id="XMLID_00000037654545124638291410000003097495700171722927_" cx="1782.0187" cy="443.5964" r="1684.4341" gradientUnits="userSpaceOnUse">
			<stop  offset="0" style="stop-color:#42B5B4"/>
			<stop  offset="1" style="stop-color:#016080"/>
		</radialGradient>
		<path id="XMLID_181_" style="fill:url(#XMLID_00000037654545124638291410000003097495700171722927_);" d="M1625.526,699.557
			L1625.526,699.557c0.32,8.498,7.136,15.314,15.634,15.634h0h0c-8.498,0.32-15.314,7.136-15.634,15.634v0v0
			c-0.32-8.498-7.136-15.314-15.634-15.634l0,0l0,0C1618.391,714.871,1625.206,708.055,1625.526,699.557L1625.526,699.557z"/>
		
			<radialGradient id="XMLID_00000133507254537068750970000012700026888455668150_" cx="1782.0187" cy="443.597" r="1684.4313" gradientUnits="userSpaceOnUse">
			<stop  offset="0" style="stop-color:#42B5B4"/>
			<stop  offset="1" style="stop-color:#016080"/>
		</radialGradient>
		<path id="XMLID_182_" style="fill:url(#XMLID_00000133507254537068750970000012700026888455668150_);" d="M1508.768,597.661
			L1508.768,597.661c0.333,8.84,7.423,15.93,16.263,16.263h0h0c-8.84,0.333-15.93,7.423-16.263,16.263l0,0l0,0
			c-0.333-8.84-7.423-15.93-16.263-16.263l0,0l0,0C1501.345,613.592,1508.436,606.502,1508.768,597.661L1508.768,597.661z"/>
		
			<radialGradient id="XMLID_00000167362685586712692880000004543814419791846042_" cx="1782.0187" cy="443.5978" r="1684.4271" gradientUnits="userSpaceOnUse">
			<stop  offset="0" style="stop-color:#42B5B4"/>
			<stop  offset="1" style="stop-color:#016080"/>
		</radialGradient>
		<path id="XMLID_183_" style="fill:url(#XMLID_00000167362685586712692880000004543814419791846042_);" d="M1678.47,761.608
			L1678.47,761.608c0.209,5.549,4.66,10,10.209,10.209h0h0c-5.549,0.209-10,4.66-10.209,10.209l0,0l0,0
			c-0.209-5.549-4.66-10-10.209-10.209l0,0l0,0C1673.81,771.608,1678.261,767.157,1678.47,761.608L1678.47,761.608z"/>
		
			<radialGradient id="XMLID_00000067224644577343668920000009045557888769200293_" cx="1782.0186" cy="443.596" r="1684.4353" gradientUnits="userSpaceOnUse">
			<stop  offset="0" style="stop-color:#42B5B4"/>
			<stop  offset="1" style="stop-color:#016080"/>
		</radialGradient>
		<path id="XMLID_184_" style="fill:url(#XMLID_00000067224644577343668920000009045557888769200293_);" d="M1522.062,785.199
			L1522.062,785.199c0.209,5.549,4.66,10,10.209,10.209l0,0l0,0c-5.549,0.209-10,4.66-10.209,10.209l0,0l0,0
			c-0.209-5.549-4.66-10-10.209-10.209l0,0l0,0C1517.403,795.199,1521.853,790.748,1522.062,785.199L1522.062,785.199z"/>
		
			<radialGradient id="XMLID_00000005229928242344138130000014083350104435759497_" cx="1512.5992" cy="660.3708" r="1439.9983" gradientUnits="userSpaceOnUse">
			<stop  offset="0" style="stop-color:#42B5B4"/>
			<stop  offset="1" style="stop-color:#016080"/>
		</radialGradient>
		<path id="XMLID_185_" style="fill:url(#XMLID_00000005229928242344138130000014083350104435759497_);" d="M1573.422,706.071
			c11.976-8.016,34.102-19.114,31.263-26.892c-2.473-6.778-13.387-2.041-25.381,2.33c-9.181,3.345-20.071,4.674-24.084,8.304
			c-0.688,0.622-1.377,1.231-2.069,1.827c-17.828,15.356-41.039,23.021-64.549,22.035c-27.015-1.133-68.064-5.57-94.011-13.205
			c-20.331-5.982-41.565-8.171-62.68-6.338c-46.81,4.063-94.856-5.972-135.893-28.913c-9.599-5.366-19.011-11.485-29.682-14.141
			c-12.475-3.105-25.759-1.233-38.274-4.17c-0.061-0.014-0.121-0.029-0.182-0.043c-9.859-2.374-17.69-9.912-20.736-19.584
			c-3.764-11.948-3.843-25.514,2.234-41.447c18.369,12.994,36.921,21.957,44.32,11.441c1.42-2.017,1.587-4.927,2.012-8.375
			c0.692-5.613,4.207-10.371,9.139-13.14c0.215-0.121,0.422-0.246,0.618-0.376c2.104-1.387,2.822-3.31,2.638-5.125
			c-0.122-1.194-1.019-2.793-2.258-3.746c1.505-0.342,2.948-0.951,4.214-1.841c0.601-0.422,1.114-0.988,1.327-1.69
			c0.432-1.419-0.609-2.191-1.473-2.948l-0.033-0.029c-1.31-1.156-1.792-2.988-1.221-4.638l0.096-0.275
			c0.518-1.497,1.781-2.619,3.331-2.944c5.433-1.139,11.649-0.479,14.316-3.649c2.883-3.425-0.359-5.489-2.064-8.512
			c-2.021-3.584-6.749-9.224-7.612-18.197c-0.562-5.829,3.815-9.987,4.902-15.742c1.062-5.617,1.354-11.75,1.23-17.353l0.002,0
			c0,0,9.22,3.094,7.478-21.486c-4.68-66.04-77.226-87.484-141.483-77.806c-95.207,14.338-154.452,92.903-201.79,49.477
			c9.088,25.92,21.158,46.758,54.455,46.031c24.754-0.54,61.399-26.605,94.098-14.642c-56.698-4.221-89.989,72.037-162.957,43.206
			c-24.732-9.772-41.612-36.33-72.838-26.007c19.097-1.032,31.442,23.134,43.354,40.258c8.476,12.184,18.402,22.037,33.549,26.839
			c39.483,12.516,67.945,6.414,90.838-4.129c-37.226,26.71-82.516,17.613-103.612,8.516c26.903,40.258,137.032,37.161,170.71,8.258
			c-26.639,32.834-71.227,16-104.59,47.62c30.524-16.394,66.733-1.775,105.621-6.072c13.54-1.496,24.354-4.383,33.255-8.382
			c-10.096,10.43-24.565,17.261-45.409,19.307c-18.025,1.769-41.732-5.71-57.622,2.983c-25.212,13.792-28.7,42.66-35.721,70.527
			c-13.57,53.862-20.696,144.21-35.664,176.21c-2.152,4.601-5.354,9.829-9.545,15.69c-18.257,25.529-45.021,48.12-97.32,117.175
			c-14.296,18.876-22.392,24-36.209,32.848c-6.394,4.095-12.275,7.878-17.396,12.84c-5.701,5.523-16.446,19.852-18.545,33.37
			c-0.982,6.334-2.033,16.652,3.532,14.551c-0.128,2.103-0.076,4.216,0.168,6.308c0.135,1.152,0.337,2.33,0.934,3.325
			c0.596,0.995,1.668,1.78,2.827,1.73c0.107-0.005,0.205-0.035,0.309-0.052c0.017,0.536,0.038,1.052,0.057,1.508
			c0.118,2.939,0.487,5.942,1.696,8.625c2.038,4.524,6.037,3.692,6.884,1.591c-0.293,5.702-0.582,12.096,1.363,18.027
			c1.028,3.133,5.257,3.811,7.07,1.057c0.316-0.48,0.597-0.984,0.839-1.497c1.194-2.532,1.63-5.341,2.18-8.086
			c2.955-14.774,10.844-40.889,24.193-50.949c3.223-2.428,7.938-1.546,9.929,1.962c1.615,2.845,2.606,6.593,2.777,9.524
			c0.494,8.385-1.23,18.323,3.871,18.323c2.129,0,2.323-4.261,3.383-7.358c2.521-7.375,3.39-21.07,3.097-31.896
			c-0.173-6.359-0.942-10.409,1.508-17.33c12.75-36.017,81.797-77.715,123.303-118.577c33.291-32.774,47.742-110.194,68.985-158.057
			c3.531,71.605,40.176,124.767-9.715,200.563c-4.937,0.365-9.677,2.34-13.408,5.75c-91.353,83.494-9.587,213.661,7.607,256.152
			c19.272,47.627,34.938,99.1,26.671,149.809c-11.694,71.73-74.093,130.759-145.635,143.557
			c-71.541,12.798-147.915-18.534-194.159-74.6c-46.244-56.067-58.023-119.302-36.089-180.205
			c19.422-53.922,64.259-102.193,13.261-220.843c0.675,67.165-52.505,90.091-85.647,113.617
			c-39.478,28.023-47.626,53.343-45.203,75.872c-41.107-88.194-125.441-74.039-124.732-125.034
			c-99.871,120.774-27.097,168.774,30.754,200.245c64.955,35.336,81.355,37.11,123.053,69.174
			c81.549,62.71,127.359,149.636,238.354,200.677c106.064,48.774,232.203,12.682,277.961-15.38
			c203.021-124.51,168.216-400.847,127.303-550.22c-1.345-4.909-4.794-8.889-9.325-10.957
			c-30.35-85.205,13.888-143.993,31.375-198.054c18.816-6.094,30.738-22.924,30.707-42.374c-0.004-2.518-0.219-5.014-0.592-7.488
			c-0.092-0.606-0.198-1.209-0.31-1.812c-0.032-0.175-0.063-0.35-0.097-0.524c-0.112-0.583-0.234-1.164-0.365-1.744
			c-0.039-0.177-0.08-0.355-0.122-0.532c-0.139-0.594-0.282-1.187-0.438-1.778c-0.026-0.1-0.055-0.199-0.081-0.299
			c-0.532-1.985-1.156-3.952-1.854-5.901c-0.033-0.092-0.064-0.184-0.098-0.276c-0.203-0.563-0.417-1.124-0.633-1.684
			c-0.078-0.202-0.155-0.405-0.235-0.607c-0.206-0.525-0.418-1.049-0.634-1.571c-0.095-0.227-0.191-0.454-0.286-0.681
			c-0.216-0.512-0.434-1.023-0.658-1.532c-0.091-0.205-0.184-0.41-0.276-0.615c-0.429-0.956-0.855-1.913-1.32-2.852
			c-0.12-0.243-0.233-0.49-0.352-0.733c-0.197-0.406-0.399-0.809-0.601-1.213c-0.177-0.355-0.353-0.71-0.532-1.063
			c-0.186-0.367-0.374-0.731-0.562-1.096c-0.206-0.397-0.412-0.794-0.62-1.189c-0.172-0.328-0.346-0.656-0.519-0.983
			c-0.246-0.461-0.493-0.92-0.742-1.378c-0.141-0.26-0.281-0.521-0.423-0.78c-0.394-0.717-0.788-1.432-1.185-2.142
			c-0.006-0.01-0.011-0.019-0.017-0.028l0,0c-8.368-14.961-18.446-25.425-28.523-38.752c0.066,0.045,30.169,20.436,47.337,42.231
			c32.92,4.704,73.275,4.684,116.853,12.032c20.377,3.436,41.12,4.11,61.708,2.333c41.452-3.578,96.982-6.875,138.406-10.55
			c3.34-0.157,6.351-0.21,8.981-0.133c3.311,0.097,6.504,1.089,9.396,2.703c20.31,11.329,40.686-6.649,52.617-5.152
			c1.526,0.191,2.712-1.244,2.354-2.739c-2.555-10.647-27.148-0.751-28.287-4.316
			C1553.586,725.023,1560.525,714.706,1573.422,706.071z"/>
		
			<radialGradient id="XMLID_00000158728169609215925790000012460366517180746373_" cx="609.8893" cy="1268.887" r="813.7594" gradientUnits="userSpaceOnUse">
			<stop  offset="0" style="stop-color:#42B5B4"/>
			<stop  offset="1" style="stop-color:#016080"/>
		</radialGradient>
		<path id="XMLID_186_" style="fill:url(#XMLID_00000158728169609215925790000012460366517180746373_);" d="M600.626,1128.462
			c3.265,27.844-3.525,55.934-12.929,82.344c-9.405,26.41-21.471,51.881-29.383,78.776c-7.912,26.895-11.509,55.966-3.635,82.872
			c-15.409-35.738-17.682-75.624-4.859-112.369c7.948-22.775,20.989-43.353,32.253-64.684
			C593.337,1174.071,600.258,1152.581,600.626,1128.462z"/>
		<radialGradient id="SVGID_1_" cx="1052.1624" cy="1193.0161" r="1016.4644" gradientUnits="userSpaceOnUse">
			<stop  offset="0" style="stop-color:#42B5B4"/>
			<stop  offset="1" style="stop-color:#016080"/>
		</radialGradient>
		<path style="fill:url(#SVGID_1_);" d="M972.005,1420.352c18.013-47.897,13.227-101.277-1.709-149.583
			c-9.305-30.091-23.911-58.212-36.859-86.924c-12.949-28.712-24.419-58.69-26.819-90.095c-2.4-31.406,5.268-64.728,26.56-87.938
			c-20.578,48.623-13.611,110.559,17.007,185.183C973.308,1247.356,1037.107,1350.412,972.005,1420.352z"/>
		
			<radialGradient id="XMLID_00000128468463266927981570000010725717276069471677_" cx="960.9861" cy="651.8547" r="250.5022" gradientUnits="userSpaceOnUse">
			<stop  offset="0" style="stop-color:#42B5B4"/>
			<stop  offset="1" style="stop-color:#016080"/>
		</radialGradient>
		<path id="XMLID_187_" style="fill:url(#XMLID_00000128468463266927981570000010725717276069471677_);" d="M994.704,631.289
			c-13.718,4.953-42.363-2.531-59.079,7.731c-8.261,5.071-14.244,13.292-17.651,22.366c-3.407,9.075-4.662,18.791-5.892,28.405
			c5.421-13.937,15.113-31.269,28.195-39.292C961.631,637.403,987.309,641.661,994.704,631.289z"/>
		
			<radialGradient id="XMLID_00000132052947756315400920000014324977408732381061_" cx="1125.3768" cy="412.9123" r="625.8525" gradientUnits="userSpaceOnUse">
			<stop  offset="0" style="stop-color:#42B5B4"/>
			<stop  offset="1" style="stop-color:#016080"/>
		</radialGradient>
		<path id="XMLID_188_" style="fill:url(#XMLID_00000132052947756315400920000014324977408732381061_);" d="M1092.328,398.61
			c18.455-0.684,37.085,4.52,52.514,14.669c15.429,10.149,27.584,25.196,34.263,42.414c-10.46-1.199-14.112-8.006-21.561-15.448
			c-7.448-7.442-12.272-14.503-22.871-22.127C1123.721,410.24,1105.411,401.906,1092.328,398.61z"/>
	</g>
</g>
</svg>
