<?xml version="1.0" encoding="utf-8"?>
<!-- Generator: Adobe Illustrator 27.5.0, SVG Export Plug-In . SVG Version: 6.00 Build 0)  -->
<svg version="1.1" id="Layer_1" xmlns="http://www.w3.org/2000/svg" xmlns:xlink="http://www.w3.org/1999/xlink" x="0px" y="0px"
	 viewBox="0 0 3994 2663" style="enable-background:new 0 0 3994 2663;" xml:space="preserve">
<g>
	<path d="M2411.86,2090.15c1.31-0.45,2.63-0.89,3.96-1.31c0.32-0.42,0.65-0.84,0.98-1.26c0.31-0.39,0.63-0.78,0.95-1.17
		C2415.76,2087.63,2413.8,2088.88,2411.86,2090.15z"/>
	<path d="M3151.18,1725c-2.27,23.95-49.67,65.29-68.23,80.66c-45.17,37.42-108.38,70.1-168.24,63.92
		c-35.81-3.7-71.01-20.49-105.16-31.44c-84.32-27.03-173.41-22.17-244.39,34.61c-6.39,5.11-11.97,10.58-17.38,16.71
		c60.7-151.26-104.8-255.8,19.44-403.68c20.25-24.11,46.67-36.27,74.36-49.68c6.68-3.24,15.21-6.19,20.44-11.52
		c-119.83,4.09-209.13,38.17-291.84,127.14c-65.87,70.85-84.28,158.38-80.45,252.47c1.64,40.36,16.77,71.95,26.7,110.03
		c17.01,65.23,10.7,144.62-36.3,196.05c-92.62,101.34-198.08,164.79-337.51,170.32c-31.43,1.25-56.56-8.5-79.54-30.23
		c-45.97-43.45-67.31-107.22-68.67-169.34c-0.11-5.08-0.1-10.15,0.04-15.23c0.1-3.67,0.27-7.34,0.51-11.01
		c11.46-182.02,201.98-312.22,267.2-479.8c36.23-93.09,21.66-198.52-19.15-287.28c-22.54-49-48.95-88.19-47.73-144.93
		c1.35-62.54,36.18-117.82,53.97-176.27c15.51-50.99,24.42-103.4,32.95-155.9c36.57,47.76,66.1,100.97,101.37,149.79
		c30.28,41.92,61.58,85.78,96.84,123.57c89.39,95.78,208.75,153.54,320.21,219.04c11.03,6.46,24.13,12.76,34.04,20.67
		c16.05,12.83,23.77,28.66,43.79,36.89c16.82,6.93,35.18,6.44,52.21,11.93c10.12,3.26,21.85,13.2,31.83,14.47
		c0.6,0.08,1.2,0.12,1.79,0.18c1.23-4.07,1.3-4.77-0.62-8.67c-9.93-20.15-40.93-30.14-46.54-41.63
		c15.94-17.07,78.11-26.02,113.68-60.7c6.79-6.61,13.99-14.75,14.22-24.68c-12.19,0.2-23.37,11.24-35.02,10.83
		c5.25-5.84,16.35-14.94,17.81-22.48c-12.33-3.81-36.43,20.15-45.69,12.45c1.82-4.66,3.54-9.3,5.02-14.07
		c-6.37-2.6-95.51,36.75-136.2,25.43c-71.9-20.01-162.97-143.16-220.74-193.35c-28.85-25.06-68.5-39.47-91.74-69.47
		c-35.86-46.29-80.45-140.14-106.46-194.67c-0.13-0.28-0.22-0.57-0.33-0.86c45.44,28.18,102.18,29.18,133.19,79.54
		c9.43,15.32,12.81,32.64,21.14,48.14c0.19,0.35,0.38,0.69,0.58,1.04c-10.5-116.25-83.14-101-138.98-177.76
		c68.28,29.79,112.65-5.75,163.16,12.51c28.82,10.42,42.89,38.31,69.49,51.57c15.25,7.61,31.99,9.44,48.17,3.7
		c9.96-3.53,22.68-10.67,27.46-20.47c-8.94-0.95-19.19,10.75-29.26,10.86c-9.61,0.1-18.87-0.91-27.96-4.18
		c-15.38-5.54-35.09-22.37-41.59-37.5c-3.67-8.55-4.83-18.27-9.12-26.57c-22.64-43.87-122.49-25.79-164.81-38.79
		c-49.08-15.08-69.93-53.07-92.4-95.39c72.65,22.57,125.68,82.65,208.95,67.22c33.65-6.23,62.19-25.5,96.59-31.22
		c-55.11-5.14-109.43,10.42-161.21-17.05c13.74,0.13,27.47,0.26,41.13-1.41c26.22-3.22,60.91-15.36,86.82-9.2
		c27.45,6.52,49.04,26.58,77.17,32.5c20.08,4.23,44.64,3.26,62.2-8.46c14.3-9.55,25.9-28.17,29.36-44.88
		c-6.45,10.76-12.72,18.52-23.38,25.31c-25.91,16.48-59.92,8.24-83.12-9.24c-12.52-9.42-23.1-21.5-35.99-30.38
		c-2.63-1.78-5.34-3.45-8.12-4.99c-2.77-1.55-5.62-2.97-8.52-4.27c-2.9-1.29-5.86-2.46-8.86-3.49c-3.01-1.04-6.05-1.94-9.14-2.71
		c-32.53-7.88-67.31-3-100.46-3.68c-20.79-0.42-40.03-3.87-60.2-8.46c76.95-5.62,108.74-64.46,139.12-67.52
		c21.27-2.15,44.84,11.57,67.48,11.02c13.59-0.33,34.28-3.91,43.75-14.64c6.02-6.83,5.79-15,5.13-23.44
		c-5.61,8.16-6.94,14.06-16.45,19.21c-34.31,18.58-69.62-36.47-101.02-46.05c-38-11.61-60.89,15.77-90.95,31.65
		c-33.93,17.92-67.81,10.86-102.58,0.04c22.48-5.8,44.85-11.94,64.03-25.7c18.97-13.62,34.93-34.26,57.26-42.54
		c23.37-8.66,50.64,5.53,72.45-7.7c26.82-16.28,39.01-49.92,66.71-63.64c19.61-9.71,37.94-4.57,57.5,1.89
		c-7.13-5.13-14.67-9.97-22.87-13.23c-54.36-21.6-63.84,17.2-107.49,29.65c-20.03,5.71-40.66-5.39-60.91-3.69
		c-37.39,3.15-62.12,29.68-94.89,43.4c-42.22,17.68-73.3-10.53-110.75-26.02c54.92-26.69,98.77-2.27,154.71-40.13
		c29.19-19.74,45.02-50.37,72.23-71.31c27.18-20.92,55.8-22.6,88.33-18.2c-112.55-53.33-117.71,46.25-177.14,53.34
		c-39.61,4.72-74.57-25.81-116.03-11.34c-37.06,12.94-54.12,54.29-97.33,57.94c-24.72,2.08-43.29-10.84-61.14-26.03
		c6.81,2.24,13.73,4.53,20.71,6.12c85.11,19.4,62.43-50.89,112.61-75.46c25.63-12.56,58.04,1.08,82.98-15.74
		c11.05-7.46,16.85-18.28,19.2-31.16c-8.55,12.48-16.5,23.6-32.29,27.06c-25.81,5.65-49.94-13.61-79.64-4.99
		c-62.46,18.14-34.46,80.01-135.64,66.2c-38.24-43.32-90.06-86.07-150.29-89.57c-28.68-1.67-53.93,6.13-78.78,20.02
		c-5.07-14.65-10.51-31.25-22.1-42.1l-3.2-0.05c-4.62,13.63,12.34,48.5-3.62,64.73c-5.24-0.16-6.47-1.39-10.13-5.28
		c-11.74-12.47-17.63-30.88-28.07-44.6c3.07,22.74,12.08,57.74,6.28,79.68l-2.5,2.18c-10.53-4.98-13.31-22.34-23.4-26.9
		c-4.32,13.56,3.66,40.77,6.15,54.92c-7.29,18.36-21.85,39.89-13.56,59.7c6.09,14.55,15.64,23.65,9.41,40.46
		c-5.84,15.75-24.83,36.23-27.49,50.7c3.36,4.51,5.53,5.55,11.12,6.39c6.67,1.01,13.35,0.79,19.09,4.67
		c-0.63,6.54-4.92,30.14-1.61,34.26c5.91,7.35,16.04,11.12,22.15,18.21c10.64,12.34-4.13,36.4,21.11,39.22
		c22.49,2.52,45.31-12.57,67.18-16.36c1.68,25.49,4.87,47.69-13.27,68.47c-56.11,64.27-120.41,16.92-181.53,78.71
		c-28.86,29.18-51.98,61.77-77.72,93.55c-41.71,51.51-84.42,99.28-134.09,143.4c-16.73,14.86-39.14,37.74-62.48,38.95
		c-28.54,1.48-58.33-5.75-86.87-7.93c-71.45-5.47-148.57,0.75-217.09-22.73c-44.8-64.25-53.92-72.98-127.66-101.23
		c2.66,6.86,5.26,14.31,10.03,20.01c6.78,8.11,34.57,26.1,35.81,34.5c0.15,1.03-1.37,4.7-1.73,5.91c-4.64,5.67-9.7,7.25-16.83,7.95
		c-41.59,4.1-93.88-28.1-104.11-26.89c-2.4,6.22,1.22,13.46,3.8,19.21c16.62,36.96,46.31,67.78,84.6,82.36
		c21.57,8.21,45.97,9.64,68.74,7c10.98-1.27,23.36-4.43,34.25-1.64c34.13,8.75,67.88,29.26,100.61,42.75
		c53.66,22.12,188.8,65.03,243.9,39.8c20.93-9.57,41.08-22.03,60.98-33.62c70.14-40.83,134.08-85.12,187.2-147.29
		c1.87-24.06,3.12-47.13,22.69-64.16c8.86-7.71,22.84-15.06,33.94-18.7c-23.75,25-48.02,39.14-47.24,77.46
		c0.39,19.67,7.94,36.63,22.17,50.18c15.61,14.85,36.08,22.27,57.57,21.38c21.25-0.87,36.34-8.93,54.86-18.3
		c-21.57,17.88-40.69,30.87-70.16,28.01c-1.95-0.18-3.91-0.42-5.85-0.71c-1.92,24.74-3.35,49.42-1.36,74.21
		c3.59,44.59,16.67,87.26,5.05,131.98c-15.27,58.81-50.94,105.85-83.05,156.06c-9.25,14.33-17.88,29.03-25.91,44.08
		c-8.03,15.05-15.41,30.42-22.16,46.08c-32.76,76.68-52.84,159.17-67.02,241.12c-41.15,237.86-30.75,513.4,133.46,705.3
		c63.14,73.8,162.72,142.89,262.07,150.68c121.98,9.55,230.93-59.66,320.07-136.1c13.68-11.59,26.96-23.62,39.84-36.09
		c12.88-12.47,25.34-25.35,37.37-38.64c12.03-13.29,23.61-26.97,34.74-41.03c11.12-14.05,21.78-28.47,31.95-43.23
		c23.74-35.14,41.42-75.44,67.47-108.81c-1.33,0.42-2.65,0.86-3.96,1.31c1.94-1.27,3.9-2.52,5.89-3.74
		c45.48-55.96,139.09-61.81,205.63-56.83c32.53,2.43,64.66,8.91,97.22,10.74c98.86,5.56,189.3-23.68,264.71-88.18
		c17.6-15.05,83.65-76.53,86.53-95.93c-0.28,20.71-33.7,52.56-48.41,66.88c-88.05,85.81-175.13,129.52-298.85,127.55
		c-37.91-0.6-74.5-7.74-112.15-10.35c-64.4-4.47-139.22,11.92-194.68,46.12c-0.32,0.39-0.64,0.78-0.95,1.17
		c-0.33,0.42-0.66,0.84-0.98,1.26c59.88-19.52,129.93-22.28,191.69-12.21c29.21,4.77,57.91,12.29,87.22,16.48
		c77.9,11.13,163.61,4.7,232.95-35.88c21.4-12.53,40.93-28.96,59.47-45.33c56.74-50.12,100.71-107,134.02-175.23
		C3133.57,1811.29,3157.94,1752.46,3151.18,1725z M2178.73,694.47c3.5,7.7,8.15,16.25,10.35,24.38
		c-20.55-18.59-34-41.46-57.91-57.53c-46.6-31.32-110.5-21.21-155.44-53.29c-21.01-15.01-23.76-35.88-28-59.56
		C2027.75,664.06,2131.53,590.81,2178.73,694.47z M1890.03,915.95c24.22,12.61,43.93,22.96,72.18,22.9
		c28.1-0.07,45.41-13.05,64.48-32.09l0.77,3.7c-1.65,2.89-3.39,5.74-5.51,8.31c-13.31,16.17-35.23,27.13-56.02,28.98
		c-28.55,2.55-52.78-9.99-74.05-27.75l-3.15-2.38L1890.03,915.95z M2415.79,1570.59c-36.11,41.35-55.24,96.29-62.75,150.16
		c-4.45,31.97-5.49,65.24-4.53,97.47c1.73,58.29,15.62,152.98-6.92,206.16c-1.48,3.5-1.23,3.44-4.65,4.85
		c15.28-57.17-3.15-140.99-4.38-200.82c-1.89-92.05,22.7-201.79,88.09-270.12C2422.47,1563.64,2419.18,1566.7,2415.79,1570.59z"/>
	<path d="M2258.615,188.283l1.183-0.985L2258.615,188.283z"/>
	<path d="M2631.749,599.472l0.806-2.481L2631.749,599.472z"/>
</g>
</svg>
