<?xml version="1.0" encoding="utf-8"?>
<!-- Generator: Adobe Illustrator 27.5.0, SVG Export Plug-In . SVG Version: 6.00 Build 0)  -->
<svg version="1.1" xmlns="http://www.w3.org/2000/svg" xmlns:xlink="http://www.w3.org/1999/xlink" x="0px" y="0px"
	 viewBox="0 0 2000 2000" style="enable-background:new 0 0 2000 2000;" xml:space="preserve">
<symbol  id="New_Symbol_20" viewBox="-2000 -79.324 4000 158.649">
	<g id="XMLID_8849_">
		<rect id="XMLID_8872_" x="-2000" y="-79.324" style="fill:#FFC403;" width="2000" height="158.648"/>
		<path id="XMLID_8850_" style="fill:#231F20;" d="M-1631.584,79.324l157.919-158.648h52.64l-157.919,158.648H-1631.584z
			 M-1526.315,79.324l157.919-158.648h52.629l-157.919,158.648H-1526.315z M-1421.056,79.324l157.919-158.648h52.64l-157.93,158.648
			H-1421.056z M-1105.259,79.324l157.919-158.648h52.63l-157.919,158.648H-1105.259z M-1210.528,79.324l157.919-158.648h52.629
			l-157.919,158.648H-1210.528z M-2000,26.456l105.29-105.779h52.629L-2000,79.324V26.456z M-1736.843,79.324l157.919-158.648h52.63
			l-157.919,158.648H-1736.843z M-2000-79.303l0.021-0.021h52.64l-52.661,52.9V-79.303z M-1842.101,79.324l157.919-158.648h52.629
			l-157.919,158.648H-1842.101z M-1947.371,79.324l157.919-158.648h52.629l-157.919,158.648H-1947.371z M-1315.787,79.324
			l157.919-158.648h52.629l-157.919,158.648H-1315.787z M-368.416,79.324l157.919-158.648h52.629L-315.787,79.324H-368.416z
			 M-263.157,79.324l157.919-158.648h52.629L-210.528,79.324H-263.157z M-473.685,79.324l157.919-158.648h52.629L-421.056,79.324
			H-473.685z M-1000,79.324l157.919-158.648h52.629L-947.371,79.324H-1000z M-789.472,79.324l157.919-158.648h52.629
			L-736.843,79.324H-789.472z M-894.741,79.324l157.919-158.648h52.64L-842.101,79.324H-894.741z M-578.944,79.324l157.919-158.648
			h52.629L-526.315,79.324H-578.944z M-684.213,79.324l157.919-158.648h52.64l-157.93,158.648H-684.213z M-52.629,79.324L0,26.456
			v52.869H-52.629z M-157.899,79.324L0-79.303v52.879L-105.269,79.324H-157.899z"/>
	</g>
	<g id="XMLID_8615_">
		<rect id="XMLID_8848_" y="-79.324" style="fill:#FFC403;" width="2000" height="158.648"/>
		<path id="XMLID_8616_" style="fill:#231F20;" d="M368.416,79.324L526.336-79.324h52.64L421.056,79.324H368.416z M473.685,79.324
			L631.605-79.324h52.629L526.315,79.324H473.685z M578.944,79.324L736.864-79.324h52.64L631.573,79.324H578.944z M894.741,79.324
			l157.919-158.648h52.629L947.371,79.324H894.741z M789.472,79.324L947.391-79.324h52.629L842.102,79.324H789.472z M0,26.456
			L105.29-79.324h52.629L0,79.324V26.456z M263.157,79.324L421.077-79.324h52.63L315.787,79.324H263.157z M0-79.303l0.021-0.021
			h52.64L0-26.424V-79.303z M157.899,79.324L315.818-79.324h52.629L210.528,79.324H157.899z M52.629,79.324L210.549-79.324h52.629
			L105.259,79.324H52.629z M684.213,79.324L842.133-79.324h52.629L736.843,79.324H684.213z M1631.584,79.324l157.919-158.648h52.629
			L1684.213,79.324H1631.584z M1736.843,79.324l157.92-158.648h52.629L1789.472,79.324H1736.843z M1526.315,79.324l157.919-158.648
			h52.63L1578.944,79.324H1526.315z M1000,79.324l157.919-158.648h52.629L1052.629,79.324H1000z M1210.528,79.324l157.919-158.648
			h52.629L1263.157,79.324H1210.528z M1105.259,79.324l157.919-158.648h52.64L1157.899,79.324H1105.259z M1421.056,79.324
			l157.919-158.648h52.63L1473.686,79.324H1421.056z M1315.787,79.324l157.919-158.648h52.64l-157.93,158.648H1315.787z
			 M1947.371,79.324L2000,26.456v52.869H1947.371z M1842.101,79.324L2000-79.303v52.879L1894.731,79.324H1842.101z"/>
	</g>
</symbol>
<symbol  id="New_Symbol_21" viewBox="-2000 -76.238 4000 152.475">
	<g id="XMLID_8764_">
		<rect id="XMLID_8876_" x="-2000" y="-76.237" style="fill:#FFC403;" width="2000" height="152.475"/>
		<g id="XMLID_8765_">
			<g id="XMLID_8816_">
				<polygon id="XMLID_8875_" style="fill:#231F20;" points="-1923.765,0.001 -2000,-76.234 -2000,-25.656 -1974.343,0.001 
					-2000,25.658 -2000,76.236 				"/>
				<path id="XMLID_8826_" style="fill:#231F20;" d="M-1050.587,76.232L-1000,25.655v50.578H-1050.587z M-1000-76.238v50.578
					l-50.587-50.578H-1000z"/>
				<polygon id="XMLID_8825_" style="fill:#231F20;" points="-1823.765,0 -1900.003,-76.238 -1950.585,-76.238 -1874.347,0 
					-1950.585,76.238 -1900.003,76.238 				"/>
				<polygon id="XMLID_8824_" style="fill:#231F20;" points="-1723.765,0 -1800.003,-76.238 -1850.585,-76.238 -1774.348,0 
					-1850.585,76.238 -1800.003,76.238 				"/>
				<polygon id="XMLID_8823_" style="fill:#231F20;" points="-1623.766,0 -1700.003,-76.238 -1750.585,-76.238 -1674.348,0 
					-1750.585,76.238 -1700.003,76.238 				"/>
				<polygon id="XMLID_8822_" style="fill:#231F20;" points="-1523.766,0 -1600.003,-76.238 -1650.586,-76.238 -1574.348,0 
					-1650.586,76.238 -1600.003,76.238 				"/>
				<polygon id="XMLID_8821_" style="fill:#231F20;" points="-1423.766,0 -1500.004,-76.238 -1550.586,-76.238 -1474.348,0 
					-1550.586,76.238 -1500.004,76.238 				"/>
				<polygon id="XMLID_8820_" style="fill:#231F20;" points="-1323.766,0 -1400.004,-76.238 -1450.586,-76.238 -1374.348,0 
					-1450.586,76.238 -1400.004,76.238 				"/>
				<polygon id="XMLID_8819_" style="fill:#231F20;" points="-1223.767,0 -1300.004,-76.238 -1350.586,-76.238 -1274.349,0 
					-1350.586,76.238 -1300.004,76.238 				"/>
				<polygon id="XMLID_8818_" style="fill:#231F20;" points="-1123.767,0 -1200.004,-76.238 -1250.587,-76.238 -1174.349,0 
					-1250.587,76.238 -1200.004,76.238 				"/>
				<polygon id="XMLID_8817_" style="fill:#231F20;" points="-1023.767,0 -1100.005,-76.238 -1150.587,-76.238 -1074.349,0 
					-1150.587,76.238 -1100.005,76.238 				"/>
			</g>
			<g id="XMLID_8766_">
				<polygon id="XMLID_8793_" style="fill:#231F20;" points="-923.765,0.001 -1000,-76.234 -1000,-25.656 -974.343,0.001 
					-1000,25.658 -1000,76.236 				"/>
				<path id="XMLID_8776_" style="fill:#231F20;" d="M-50.587,76.232L0,25.655v50.578H-50.587z M0-76.238v50.578l-50.587-50.578H0z"
					/>
				<polygon id="XMLID_8775_" style="fill:#231F20;" points="-823.765,0 -900.003,-76.238 -950.585,-76.238 -874.347,0 
					-950.585,76.238 -900.003,76.238 				"/>
				<polygon id="XMLID_8774_" style="fill:#231F20;" points="-723.765,0 -800.003,-76.238 -850.585,-76.238 -774.347,0 
					-850.585,76.238 -800.003,76.238 				"/>
				<polygon id="XMLID_8773_" style="fill:#231F20;" points="-623.766,0 -700.003,-76.238 -750.585,-76.238 -674.348,0 
					-750.585,76.238 -700.003,76.238 				"/>
				<polygon id="XMLID_8772_" style="fill:#231F20;" points="-523.766,0 -600.003,-76.238 -650.586,-76.238 -574.348,0 
					-650.586,76.238 -600.003,76.238 				"/>
				<polygon id="XMLID_8771_" style="fill:#231F20;" points="-423.766,0 -500.004,-76.238 -550.586,-76.238 -474.348,0 
					-550.586,76.238 -500.004,76.238 				"/>
				<polygon id="XMLID_8770_" style="fill:#231F20;" points="-323.766,0 -400.004,-76.238 -450.586,-76.238 -374.349,0 
					-450.586,76.238 -400.004,76.238 				"/>
				<polygon id="XMLID_8769_" style="fill:#231F20;" points="-223.767,0 -300.004,-76.238 -350.586,-76.238 -274.349,0 
					-350.586,76.238 -300.004,76.238 				"/>
				<polygon id="XMLID_8768_" style="fill:#231F20;" points="-123.767,0 -200.004,-76.238 -250.587,-76.238 -174.349,0 
					-250.587,76.238 -200.004,76.238 				"/>
				<polygon id="XMLID_8767_" style="fill:#231F20;" points="-23.767,0 -100.005,-76.238 -150.587,-76.238 -74.349,0 
					-150.587,76.238 -100.005,76.238 				"/>
			</g>
		</g>
	</g>
	<g id="XMLID_1890_">
		<rect id="XMLID_8763_" y="-76.237" style="fill:#FFC403;" width="2000" height="152.475"/>
		<g id="XMLID_1891_">
			<g id="XMLID_8624_">
				<polygon id="XMLID_8762_" style="fill:#231F20;" points="76.235,0.001 0,-76.234 0,-25.656 25.657,0.001 0,25.658 0,76.236 				
					"/>
				<path id="XMLID_8683_" style="fill:#231F20;" d="M949.413,76.232L1000,25.655v50.578H949.413z M1000-76.238v50.578
					l-50.587-50.578H1000z"/>
				<polygon id="XMLID_8678_" style="fill:#231F20;" points="176.235,0 99.997,-76.238 49.415,-76.238 125.653,0 49.415,76.238 
					99.997,76.238 				"/>
				<polygon id="XMLID_8676_" style="fill:#231F20;" points="276.235,0 199.997,-76.238 149.415,-76.238 225.652,0 149.415,76.238 
					199.997,76.238 				"/>
				<polygon id="XMLID_8675_" style="fill:#231F20;" points="376.234,0 299.997,-76.238 249.415,-76.238 325.652,0 249.415,76.238 
					299.997,76.238 				"/>
				<polygon id="XMLID_8674_" style="fill:#231F20;" points="476.234,0 399.997,-76.238 349.414,-76.238 425.652,0 349.414,76.238 
					399.997,76.238 				"/>
				<polygon id="XMLID_8673_" style="fill:#231F20;" points="576.234,0 499.996,-76.238 449.414,-76.238 525.652,0 449.414,76.238 
					499.996,76.238 				"/>
				<polygon id="XMLID_8628_" style="fill:#231F20;" points="676.234,0 599.996,-76.238 549.414,-76.238 625.652,0 549.414,76.238 
					599.996,76.238 				"/>
				<polygon id="XMLID_8627_" style="fill:#231F20;" points="776.233,0 699.996,-76.238 649.414,-76.238 725.651,0 649.414,76.238 
					699.996,76.238 				"/>
				<polygon id="XMLID_8626_" style="fill:#231F20;" points="876.233,0 799.996,-76.238 749.414,-76.238 825.651,0 749.414,76.238 
					799.996,76.238 				"/>
				<polygon id="XMLID_8625_" style="fill:#231F20;" points="976.233,0 899.995,-76.238 849.413,-76.238 925.651,0 849.413,76.238 
					899.995,76.238 				"/>
			</g>
			<g id="XMLID_5761_">
				<polygon id="XMLID_8623_" style="fill:#231F20;" points="1076.235,0.001 1000,-76.234 1000,-25.656 1025.657,0.001 1000,25.658 
					1000,76.236 				"/>
				<path id="XMLID_8620_" style="fill:#231F20;" d="M1949.413,76.232L2000,25.655v50.578H1949.413z M2000-76.238v50.578
					l-50.587-50.578H2000z"/>
				<polygon id="XMLID_8619_" style="fill:#231F20;" points="1176.235,0 1099.997,-76.238 1049.415,-76.238 1125.653,0 
					1049.415,76.238 1099.997,76.238 				"/>
				<polygon id="XMLID_8618_" style="fill:#231F20;" points="1276.235,0 1199.997,-76.238 1149.415,-76.238 1225.652,0 
					1149.415,76.238 1199.997,76.238 				"/>
				<polygon id="XMLID_8617_" style="fill:#231F20;" points="1376.234,0 1299.997,-76.238 1249.415,-76.238 1325.652,0 
					1249.415,76.238 1299.997,76.238 				"/>
				<polygon id="XMLID_5775_" style="fill:#231F20;" points="1476.234,0 1399.996,-76.238 1349.414,-76.238 1425.652,0 
					1349.414,76.238 1399.996,76.238 				"/>
				<polygon id="XMLID_5773_" style="fill:#231F20;" points="1576.234,0 1499.996,-76.238 1449.414,-76.238 1525.652,0 
					1449.414,76.238 1499.996,76.238 				"/>
				<polygon id="XMLID_5772_" style="fill:#231F20;" points="1676.234,0 1599.996,-76.238 1549.414,-76.238 1625.651,0 
					1549.414,76.238 1599.996,76.238 				"/>
				<polygon id="XMLID_5771_" style="fill:#231F20;" points="1776.233,0 1699.996,-76.238 1649.414,-76.238 1725.651,0 
					1649.414,76.238 1699.996,76.238 				"/>
				<polygon id="XMLID_5770_" style="fill:#231F20;" points="1876.233,0 1799.996,-76.238 1749.413,-76.238 1825.651,0 
					1749.413,76.238 1799.996,76.238 				"/>
				<polygon id="XMLID_5763_" style="fill:#231F20;" points="1976.233,0 1899.995,-76.238 1849.413,-76.238 1925.651,0 
					1849.413,76.238 1899.995,76.238 				"/>
			</g>
		</g>
	</g>
</symbol>
<g id="Layer_2">
	<rect id="XMLID_1019_" style="fill:#FFFFFF;" width="2000" height="2000"/>
</g>
<g id="Layer_28">
	
		<radialGradient id="XMLID_00000097479119409008901640000006295541212160553372_" cx="1040.2649" cy="459.1289" r="1272.3389" gradientUnits="userSpaceOnUse">
		<stop  offset="0" style="stop-color:#42B5B4"/>
		<stop  offset="1" style="stop-color:#016080"/>
	</radialGradient>
	<path id="XMLID_553_" style="fill:url(#XMLID_00000097479119409008901640000006295541212160553372_);" d="M1000,431.065
		c-309.141,0-559.748,250.608-559.748,559.748c0,56.109,8.259,110.288,23.623,161.39c-9.081-5.331-10.7-11.506-10.7-11.506v0
		c-0.567,40.805,73.23,28.932,106.124,99.504c-1.938-18.028,4.582-38.289,36.172-60.713c26.521-18.826,69.075-37.171,68.535-90.916
		c40.809,94.943,4.93,133.57-10.611,176.717c-17.553,48.735-8.126,99.336,28.878,144.2c37.004,44.865,98.118,69.936,155.365,59.695
		c57.248-10.241,107.179-57.476,116.537-114.874c6.615-40.578-5.921-81.766-21.343-119.877
		c-13.758-34.001-79.186-138.161-6.087-204.972c2.986-2.729,6.779-4.309,10.729-4.601c39.922-60.652,10.6-103.192,7.773-160.49
		c-16.998,38.3-28.561,100.251-55.201,126.477c-33.214,32.697-88.465,66.064-98.667,94.885c-1.961,5.538-1.345,8.779-1.206,13.868
		c0.233,8.663-0.462,19.622-2.479,25.523c-0.848,2.478-1.003,5.888-2.707,5.888c-4.082,0-2.702-7.952-3.097-14.662
		c-0.138-2.345-0.931-5.344-2.224-7.621c-1.594-2.807-5.366-3.513-7.945-1.57c-10.682,8.049-16.994,28.947-19.358,40.769
		c-0.44,2.197-0.789,4.445-1.745,6.471c-0.193,0.411-0.417,0.814-0.671,1.198c-1.451,2.203-4.835,1.661-5.657-0.846
		c-1.557-4.746-1.325-9.863-1.091-14.425c-0.678,1.682-3.878,2.347-5.509-1.273c-0.968-2.147-1.263-4.55-1.357-6.901
		c-0.015-0.365-0.032-0.778-0.045-1.207c-0.083,0.013-0.161,0.038-0.247,0.041c-0.928,0.04-1.785-0.588-2.262-1.385
		c-0.478-0.796-0.64-1.739-0.747-2.661c-0.195-1.674-0.237-3.365-0.135-5.048c-4.454,1.681-3.612-6.575-2.827-11.643
		c1.68-10.817,10.278-22.283,14.841-26.703c4.098-3.971,8.803-6.998,13.92-10.275c11.057-7.08,17.535-11.18,28.974-26.284
		c41.851-55.258,63.267-73.335,77.876-93.764c3.354-4.69,5.915-8.874,7.638-12.555c11.978-25.607,17.68-97.903,28.539-141.003
		c5.617-22.299,8.408-45.399,28.583-56.435c12.715-6.956,31.686-0.971,46.109-2.387c16.679-1.637,28.258-7.104,36.336-15.45
		c-7.122,3.2-15.775,5.51-26.609,6.708c-31.119,3.438-60.093-8.26-84.518,4.858c26.697-25.302,62.377-11.832,83.692-38.105
		c-26.948,23.128-115.073,25.606-136.602-6.608c16.881,7.28,53.122,14.558,82.91-6.815c-18.318,8.437-41.094,13.32-72.688,3.304
		c-12.12-3.842-20.064-11.727-26.846-21.476c-9.533-13.703-19.411-33.041-34.692-32.215c24.986-8.26,38.494,12.991,58.284,20.811
		c58.389,23.071,85.028-37.951,130.398-34.573c-26.165-9.573-55.489,11.284-75.297,11.716
		c-26.645,0.581-36.303-16.093-43.575-36.834c37.88,34.75,85.287-28.118,161.473-39.591c51.418-7.744,109.47,9.415,113.214,62.26
		c1.395,19.669-5.983,17.193-5.983,17.193c-0.001,0-0.001,0-0.001,0c0.099,4.483-0.136,9.391-0.985,13.886
		c-0.87,4.604-4.372,7.932-3.923,12.597c0.69,7.18,4.474,11.694,6.092,14.561c1.364,2.42,3.959,4.071,1.651,6.811
		c-2.135,2.537-7.108,2.008-11.456,2.92c-1.239,0.26-2.25,1.158-2.665,2.356l-0.076,0.22c-0.457,1.321-0.072,2.787,0.977,3.712
		l0.026,0.023c0.69,0.606,1.523,1.224,1.178,2.359c-0.169,0.561-0.58,1.015-1.062,1.352c-1.013,0.712-2.168,1.2-3.372,1.473
		c0.991,0.762,1.71,2.042,1.808,2.997c0.146,1.453-0.429,2.991-2.111,4.101c-0.156,0.104-0.323,0.204-0.494,0.301
		c-3.947,2.216-6.759,6.023-7.313,10.514c-0.34,2.759-0.474,5.087-1.609,6.701c-5.921,8.415-20.767,1.243-35.465-9.155
		c-4.863,12.75-4.8,23.604-1.788,33.165c2.438,7.74,8.703,13.771,16.593,15.671c0.049,0.012,0.098,0.023,0.146,0.035
		c10.016,2.35,20.645,0.852,30.627,3.337c8.539,2.125,16.07,7.021,23.752,11.315c32.838,18.358,71.283,26.387,108.74,23.136
		c16.896-1.466,33.888,0.285,50.156,5.072c20.762,6.109,53.61,9.66,75.228,10.566c18.812,0.789,37.386-5.345,51.651-17.633
		c0.554-0.477,1.105-0.964,1.656-1.462c3.211-2.905,11.926-3.968,19.271-6.645c9.599-3.497,18.332-7.288,20.31-1.865
		c2.272,6.224-15.434,15.105-25.016,21.519c-10.32,6.91-15.873,15.165-14.866,18.315c0.913,2.852,20.592-5.066,22.636,3.454
		c0.286,1.195-0.662,2.344-1.884,2.191c-9.547-1.198-25.853,13.188-42.104,4.122c-2.313-1.291-4.869-2.085-7.518-2.162
		c-2.105-0.062-4.515-0.019-7.187,0.106c-33.147,2.941-77.583,5.579-110.752,8.442c-16.475,1.422-33.074,0.883-49.379-1.867
		c-34.871-5.88-67.163-5.864-93.506-9.628c-13.737-17.44-37.826-33.757-37.879-33.793c8.063,10.664,16.128,19.038,22.824,31.009
		c0.005,0.008,0.009,0.015,0.013,0.023c0.318,0.568,0.634,1.14,0.948,1.714c0.113,0.208,0.226,0.416,0.338,0.625
		c0.2,0.366,0.397,0.734,0.595,1.102c0.139,0.262,0.278,0.524,0.415,0.787c0.167,0.316,0.332,0.633,0.496,0.951
		c0.15,0.292,0.302,0.584,0.45,0.877c0.144,0.283,0.284,0.567,0.426,0.851c0.161,0.323,0.322,0.646,0.48,0.971
		c0.096,0.195,0.185,0.392,0.281,0.587c0.372,0.752,0.714,1.518,1.057,2.283c0.073,0.164,0.148,0.327,0.221,0.491
		c0.181,0.408,0.354,0.817,0.527,1.226c0.076,0.181,0.153,0.363,0.229,0.545c0.173,0.418,0.342,0.837,0.508,1.257
		c0.063,0.162,0.125,0.324,0.188,0.486c0.173,0.448,0.345,0.896,0.507,1.347c0.026,0.074,0.051,0.148,0.078,0.221
		c0.559,1.56,1.058,3.134,1.484,4.722c0.021,0.08,0.044,0.159,0.064,0.239c0.125,0.473,0.239,0.948,0.351,1.423
		c0.033,0.142,0.066,0.284,0.098,0.426c0.104,0.464,0.203,0.929,0.292,1.396c0.028,0.139,0.052,0.279,0.077,0.419
		c0.089,0.482,0.175,0.965,0.248,1.45c0.299,1.98,0.471,3.977,0.474,5.992c0.025,15.564-9.515,29.031-24.571,33.907
		c-13.993,43.26-49.393,90.302-25.106,158.482c3.626,1.655,6.386,4.839,7.462,8.767c32.738,119.528,60.589,340.653-101.867,440.285
		c-36.615,22.456-137.552,51.336-222.424,12.308c-88.818-40.844-125.476-110.401-190.73-160.582
		c-33.366-25.657-46.49-27.077-98.467-55.353c-2.126-1.157-4.291-2.341-6.479-3.555c12.496,12.726,26.877,23.887,41.514,34.089
		c28,19.515,39.279,25.728,65.021,48.139c34.478,30.02,60.756,64.709,87.555,97.947c106.327,131.874,251.363,87.533,300.068,72.854
		c9.351,0.464,18.76,0.703,28.225,0.703c309.14,0,559.748-250.608,559.748-559.748S1309.14,431.065,1000,431.065z M833.954,1194.644
		c0.405,10.617,8.919,19.131,19.536,19.536c-10.617,0.406-19.131,8.919-19.536,19.536c-0.405-10.617-8.919-19.131-19.536-19.536
		C825.035,1213.775,833.549,1205.261,833.954,1194.644z M1390.037,1087.374c0.405,10.617,8.919,19.131,19.536,19.536
		c-10.617,0.406-19.131,8.919-19.536,19.536c-0.405-10.617-8.919-19.131-19.536-19.536
		C1381.118,1106.505,1389.631,1097.991,1390.037,1087.374z M822.949,1345.735c0.634,16.598,13.943,29.908,30.541,30.541
		c-16.598,0.634-29.907,13.944-30.541,30.542c-0.634-16.598-13.943-29.908-30.541-30.542
		C809.006,1375.643,822.315,1362.333,822.949,1345.735z M726.857,963c-0.435-11.404-9.579-20.548-20.983-20.984
		c11.404-0.435,20.549-9.58,20.983-20.984c0.436,11.404,9.58,20.548,20.984,20.984C736.438,942.451,727.293,951.596,726.857,963z
		 M705.874,782.912c-1.102-28.862-24.246-52.006-53.107-53.108c28.861-1.102,52.006-24.246,53.107-53.107
		c1.102,28.862,24.246,52.006,53.107,53.107C730.12,730.906,706.976,754.05,705.874,782.912z M1212.979,1103.999
		c-0.791-20.705-17.394-37.308-38.1-38.099c20.705-0.791,37.309-17.394,38.1-38.099c0.79,20.705,17.394,37.309,38.099,38.099
		C1230.373,1066.691,1213.769,1083.294,1212.979,1103.999z M1423.608,942.016c-28.862,1.102-52.006,24.246-53.108,53.107
		c-1.102-28.862-24.245-52.006-53.107-53.107l0,0v0c28.862-1.102,52.006-24.246,53.107-53.108
		C1371.603,917.77,1394.746,940.914,1423.608,942.016L1423.608,942.016L1423.608,942.016z"/>
</g>
</svg>
