<?xml version="1.0" encoding="utf-8"?>
<!-- Generator: Adobe Illustrator 27.5.0, SVG Export Plug-In . SVG Version: 6.00 Build 0)  -->
<svg version="1.1" xmlns="http://www.w3.org/2000/svg" xmlns:xlink="http://www.w3.org/1999/xlink" x="0px" y="0px"
	 viewBox="0 0 2000 2000" style="enable-background:new 0 0 2000 2000;" xml:space="preserve">
<symbol  id="New_Symbol_20" viewBox="-2000 -79.324 4000 158.649">
	<g id="XMLID_8849_">
		<rect id="XMLID_8872_" x="-2000" y="-79.324" style="fill:#FFC403;" width="2000" height="158.648"/>
		<path id="XMLID_8850_" style="fill:#231F20;" d="M-1631.584,79.324l157.919-158.648h52.64l-157.919,158.648H-1631.584z
			 M-1526.315,79.324l157.919-158.648h52.629l-157.919,158.648H-1526.315z M-1421.056,79.324l157.919-158.648h52.64l-157.93,158.648
			H-1421.056z M-1105.259,79.324l157.919-158.648h52.63l-157.919,158.648H-1105.259z M-1210.528,79.324l157.919-158.648h52.629
			l-157.919,158.648H-1210.528z M-2000,26.456l105.29-105.779h52.629L-2000,79.324V26.456z M-1736.843,79.324l157.919-158.648h52.63
			l-157.919,158.648H-1736.843z M-2000-79.303l0.021-0.021h52.64l-52.661,52.9V-79.303z M-1842.101,79.324l157.919-158.648h52.629
			l-157.919,158.648H-1842.101z M-1947.371,79.324l157.919-158.648h52.629l-157.919,158.648H-1947.371z M-1315.787,79.324
			l157.919-158.648h52.629l-157.919,158.648H-1315.787z M-368.416,79.324l157.919-158.648h52.629L-315.787,79.324H-368.416z
			 M-263.157,79.324l157.919-158.648h52.629L-210.528,79.324H-263.157z M-473.685,79.324l157.919-158.648h52.629L-421.056,79.324
			H-473.685z M-1000,79.324l157.919-158.648h52.629L-947.371,79.324H-1000z M-789.472,79.324l157.919-158.648h52.629
			L-736.843,79.324H-789.472z M-894.741,79.324l157.919-158.648h52.64L-842.101,79.324H-894.741z M-578.944,79.324l157.919-158.648
			h52.629L-526.315,79.324H-578.944z M-684.213,79.324l157.919-158.648h52.64l-157.93,158.648H-684.213z M-52.629,79.324L0,26.456
			v52.869H-52.629z M-157.899,79.324L0-79.303v52.879L-105.269,79.324H-157.899z"/>
	</g>
	<g id="XMLID_8615_">
		<rect id="XMLID_8848_" y="-79.324" style="fill:#FFC403;" width="2000" height="158.648"/>
		<path id="XMLID_8616_" style="fill:#231F20;" d="M368.416,79.324L526.336-79.324h52.64L421.056,79.324H368.416z M473.685,79.324
			L631.605-79.324h52.629L526.315,79.324H473.685z M578.944,79.324L736.864-79.324h52.64L631.573,79.324H578.944z M894.741,79.324
			l157.919-158.648h52.629L947.371,79.324H894.741z M789.472,79.324L947.391-79.324h52.629L842.102,79.324H789.472z M0,26.456
			L105.29-79.324h52.629L0,79.324V26.456z M263.157,79.324L421.077-79.324h52.63L315.787,79.324H263.157z M0-79.303l0.021-0.021
			h52.64L0-26.424V-79.303z M157.899,79.324L315.818-79.324h52.629L210.528,79.324H157.899z M52.629,79.324L210.549-79.324h52.629
			L105.259,79.324H52.629z M684.213,79.324L842.133-79.324h52.629L736.843,79.324H684.213z M1631.584,79.324l157.919-158.648h52.629
			L1684.213,79.324H1631.584z M1736.843,79.324l157.92-158.648h52.629L1789.472,79.324H1736.843z M1526.315,79.324l157.919-158.648
			h52.63L1578.944,79.324H1526.315z M1000,79.324l157.919-158.648h52.629L1052.629,79.324H1000z M1210.528,79.324l157.919-158.648
			h52.629L1263.157,79.324H1210.528z M1105.259,79.324l157.919-158.648h52.64L1157.899,79.324H1105.259z M1421.056,79.324
			l157.919-158.648h52.63L1473.686,79.324H1421.056z M1315.787,79.324l157.919-158.648h52.64l-157.93,158.648H1315.787z
			 M1947.371,79.324L2000,26.456v52.869H1947.371z M1842.101,79.324L2000-79.303v52.879L1894.731,79.324H1842.101z"/>
	</g>
</symbol>
<symbol  id="New_Symbol_21" viewBox="-2000 -76.238 4000 152.475">
	<g id="XMLID_8764_">
		<rect id="XMLID_8876_" x="-2000" y="-76.237" style="fill:#FFC403;" width="2000" height="152.475"/>
		<g id="XMLID_8765_">
			<g id="XMLID_8816_">
				<polygon id="XMLID_8875_" style="fill:#231F20;" points="-1923.765,0.001 -2000,-76.234 -2000,-25.656 -1974.343,0.001 
					-2000,25.658 -2000,76.236 				"/>
				<path id="XMLID_8826_" style="fill:#231F20;" d="M-1050.587,76.232L-1000,25.655v50.578H-1050.587z M-1000-76.238v50.578
					l-50.587-50.578H-1000z"/>
				<polygon id="XMLID_8825_" style="fill:#231F20;" points="-1823.765,0 -1900.003,-76.238 -1950.585,-76.238 -1874.347,0 
					-1950.585,76.238 -1900.003,76.238 				"/>
				<polygon id="XMLID_8824_" style="fill:#231F20;" points="-1723.765,0 -1800.003,-76.238 -1850.585,-76.238 -1774.348,0 
					-1850.585,76.238 -1800.003,76.238 				"/>
				<polygon id="XMLID_8823_" style="fill:#231F20;" points="-1623.766,0 -1700.003,-76.238 -1750.585,-76.238 -1674.348,0 
					-1750.585,76.238 -1700.003,76.238 				"/>
				<polygon id="XMLID_8822_" style="fill:#231F20;" points="-1523.766,0 -1600.003,-76.238 -1650.586,-76.238 -1574.348,0 
					-1650.586,76.238 -1600.003,76.238 				"/>
				<polygon id="XMLID_8821_" style="fill:#231F20;" points="-1423.766,0 -1500.004,-76.238 -1550.586,-76.238 -1474.348,0 
					-1550.586,76.238 -1500.004,76.238 				"/>
				<polygon id="XMLID_8820_" style="fill:#231F20;" points="-1323.766,0 -1400.004,-76.238 -1450.586,-76.238 -1374.348,0 
					-1450.586,76.238 -1400.004,76.238 				"/>
				<polygon id="XMLID_8819_" style="fill:#231F20;" points="-1223.767,0 -1300.004,-76.238 -1350.586,-76.238 -1274.349,0 
					-1350.586,76.238 -1300.004,76.238 				"/>
				<polygon id="XMLID_8818_" style="fill:#231F20;" points="-1123.767,0 -1200.004,-76.238 -1250.587,-76.238 -1174.349,0 
					-1250.587,76.238 -1200.004,76.238 				"/>
				<polygon id="XMLID_8817_" style="fill:#231F20;" points="-1023.767,0 -1100.005,-76.238 -1150.587,-76.238 -1074.349,0 
					-1150.587,76.238 -1100.005,76.238 				"/>
			</g>
			<g id="XMLID_8766_">
				<polygon id="XMLID_8793_" style="fill:#231F20;" points="-923.765,0.001 -1000,-76.234 -1000,-25.656 -974.343,0.001 
					-1000,25.658 -1000,76.236 				"/>
				<path id="XMLID_8776_" style="fill:#231F20;" d="M-50.587,76.232L0,25.655v50.578H-50.587z M0-76.238v50.578l-50.587-50.578H0z"
					/>
				<polygon id="XMLID_8775_" style="fill:#231F20;" points="-823.765,0 -900.003,-76.238 -950.585,-76.238 -874.347,0 
					-950.585,76.238 -900.003,76.238 				"/>
				<polygon id="XMLID_8774_" style="fill:#231F20;" points="-723.765,0 -800.003,-76.238 -850.585,-76.238 -774.347,0 
					-850.585,76.238 -800.003,76.238 				"/>
				<polygon id="XMLID_8773_" style="fill:#231F20;" points="-623.766,0 -700.003,-76.238 -750.585,-76.238 -674.348,0 
					-750.585,76.238 -700.003,76.238 				"/>
				<polygon id="XMLID_8772_" style="fill:#231F20;" points="-523.766,0 -600.003,-76.238 -650.586,-76.238 -574.348,0 
					-650.586,76.238 -600.003,76.238 				"/>
				<polygon id="XMLID_8771_" style="fill:#231F20;" points="-423.766,0 -500.004,-76.238 -550.586,-76.238 -474.348,0 
					-550.586,76.238 -500.004,76.238 				"/>
				<polygon id="XMLID_8770_" style="fill:#231F20;" points="-323.766,0 -400.004,-76.238 -450.586,-76.238 -374.349,0 
					-450.586,76.238 -400.004,76.238 				"/>
				<polygon id="XMLID_8769_" style="fill:#231F20;" points="-223.767,0 -300.004,-76.238 -350.586,-76.238 -274.349,0 
					-350.586,76.238 -300.004,76.238 				"/>
				<polygon id="XMLID_8768_" style="fill:#231F20;" points="-123.767,0 -200.004,-76.238 -250.587,-76.238 -174.349,0 
					-250.587,76.238 -200.004,76.238 				"/>
				<polygon id="XMLID_8767_" style="fill:#231F20;" points="-23.767,0 -100.005,-76.238 -150.587,-76.238 -74.349,0 
					-150.587,76.238 -100.005,76.238 				"/>
			</g>
		</g>
	</g>
	<g id="XMLID_1890_">
		<rect id="XMLID_8763_" y="-76.237" style="fill:#FFC403;" width="2000" height="152.475"/>
		<g id="XMLID_1891_">
			<g id="XMLID_8624_">
				<polygon id="XMLID_8762_" style="fill:#231F20;" points="76.235,0.001 0,-76.234 0,-25.656 25.657,0.001 0,25.658 0,76.236 				
					"/>
				<path id="XMLID_8683_" style="fill:#231F20;" d="M949.413,76.232L1000,25.655v50.578H949.413z M1000-76.238v50.578
					l-50.587-50.578H1000z"/>
				<polygon id="XMLID_8678_" style="fill:#231F20;" points="176.235,0 99.997,-76.238 49.415,-76.238 125.653,0 49.415,76.238 
					99.997,76.238 				"/>
				<polygon id="XMLID_8676_" style="fill:#231F20;" points="276.235,0 199.997,-76.238 149.415,-76.238 225.652,0 149.415,76.238 
					199.997,76.238 				"/>
				<polygon id="XMLID_8675_" style="fill:#231F20;" points="376.234,0 299.997,-76.238 249.415,-76.238 325.652,0 249.415,76.238 
					299.997,76.238 				"/>
				<polygon id="XMLID_8674_" style="fill:#231F20;" points="476.234,0 399.997,-76.238 349.414,-76.238 425.652,0 349.414,76.238 
					399.997,76.238 				"/>
				<polygon id="XMLID_8673_" style="fill:#231F20;" points="576.234,0 499.996,-76.238 449.414,-76.238 525.652,0 449.414,76.238 
					499.996,76.238 				"/>
				<polygon id="XMLID_8628_" style="fill:#231F20;" points="676.234,0 599.996,-76.238 549.414,-76.238 625.652,0 549.414,76.238 
					599.996,76.238 				"/>
				<polygon id="XMLID_8627_" style="fill:#231F20;" points="776.233,0 699.996,-76.238 649.414,-76.238 725.651,0 649.414,76.238 
					699.996,76.238 				"/>
				<polygon id="XMLID_8626_" style="fill:#231F20;" points="876.233,0 799.996,-76.238 749.414,-76.238 825.651,0 749.414,76.238 
					799.996,76.238 				"/>
				<polygon id="XMLID_8625_" style="fill:#231F20;" points="976.233,0 899.995,-76.238 849.413,-76.238 925.651,0 849.413,76.238 
					899.995,76.238 				"/>
			</g>
			<g id="XMLID_5761_">
				<polygon id="XMLID_8623_" style="fill:#231F20;" points="1076.235,0.001 1000,-76.234 1000,-25.656 1025.657,0.001 1000,25.658 
					1000,76.236 				"/>
				<path id="XMLID_8620_" style="fill:#231F20;" d="M1949.413,76.232L2000,25.655v50.578H1949.413z M2000-76.238v50.578
					l-50.587-50.578H2000z"/>
				<polygon id="XMLID_8619_" style="fill:#231F20;" points="1176.235,0 1099.997,-76.238 1049.415,-76.238 1125.653,0 
					1049.415,76.238 1099.997,76.238 				"/>
				<polygon id="XMLID_8618_" style="fill:#231F20;" points="1276.235,0 1199.997,-76.238 1149.415,-76.238 1225.652,0 
					1149.415,76.238 1199.997,76.238 				"/>
				<polygon id="XMLID_8617_" style="fill:#231F20;" points="1376.234,0 1299.997,-76.238 1249.415,-76.238 1325.652,0 
					1249.415,76.238 1299.997,76.238 				"/>
				<polygon id="XMLID_5775_" style="fill:#231F20;" points="1476.234,0 1399.996,-76.238 1349.414,-76.238 1425.652,0 
					1349.414,76.238 1399.996,76.238 				"/>
				<polygon id="XMLID_5773_" style="fill:#231F20;" points="1576.234,0 1499.996,-76.238 1449.414,-76.238 1525.652,0 
					1449.414,76.238 1499.996,76.238 				"/>
				<polygon id="XMLID_5772_" style="fill:#231F20;" points="1676.234,0 1599.996,-76.238 1549.414,-76.238 1625.651,0 
					1549.414,76.238 1599.996,76.238 				"/>
				<polygon id="XMLID_5771_" style="fill:#231F20;" points="1776.233,0 1699.996,-76.238 1649.414,-76.238 1725.651,0 
					1649.414,76.238 1699.996,76.238 				"/>
				<polygon id="XMLID_5770_" style="fill:#231F20;" points="1876.233,0 1799.996,-76.238 1749.413,-76.238 1825.651,0 
					1749.413,76.238 1799.996,76.238 				"/>
				<polygon id="XMLID_5763_" style="fill:#231F20;" points="1976.233,0 1899.995,-76.238 1849.413,-76.238 1925.651,0 
					1849.413,76.238 1899.995,76.238 				"/>
			</g>
		</g>
	</g>
</symbol>
<g id="Layer_2">
	<rect id="XMLID_1509_" style="fill:#FFFFFF;" width="2000" height="2000"/>
</g>
<g id="Layer_28">
	
		<radialGradient id="XMLID_00000135693378331043391180000005574168578612125599_" cx="1351.9164" cy="570.4193" r="950.8049" gradientUnits="userSpaceOnUse">
		<stop  offset="0" style="stop-color:#42B5B4"/>
		<stop  offset="1" style="stop-color:#016080"/>
	</radialGradient>
	<path id="XMLID_205_" style="fill:url(#XMLID_00000135693378331043391180000005574168578612125599_);" d="M1432.64,615.087
		c-0.781-11.841-0.844-22.899-7.536-22.462c-7.68,0.503-8.822,23.485-11.15,36.676c-2.508,14.208-8.681,23.979-12.501,24.384
		c-3.453,0.367-4.262-24.169-14.223-22.451c-1.436,0.248-2.173,1.885-1.439,3.145c5.264,9.032-0.981,30.56,12.249,43.927
		c2.217,2.24,2.494,5.445,1.846,8.53c-8.873,42.293-54.163,68.228-71.176,100.978c-1.278,2.46-5.093-0.593-6.932-1.614
		c-9.855-5.475-32.578-28.242-42.16-39.596c-17.838-21.137-37.602-45.497-61.53-57.067c-20.174-9.755-29.376-7.763-42.211-13.597
		c-0.545-0.248-1.083-0.504-1.614-0.767c-14.52-7.2-23.898-21.698-25.585-37.818c-0.573-5.469-0.46-10.674,0.456-15.458
		c0.809-4.226,3.247-7.616,6.493-9.798c-9.537-8.476-15.307-16.899-15.307-16.899c18.519,11.451,37.292,18.024,37.572,18.122
		c9.669,3.133,17.696,3.5,20.218-0.125c2.562-3.682,1.523-6.782,3.378-14.56c0.64-2.685,2.188-5.076,4.385-6.747
		c1.243-0.947,2.461-1.9,3.112-2.962c1.535-2.509-0.204-4.749-1.908-5.813c4.068-0.1,5.95-2.611,4.429-4.781
		c-1.426-2.035-2.113-3.177-1.907-4.569c0.133-0.898,0.924-1.474,1.771-1.725c4.536-1.34,10.925-0.289,12.228-3.975
		c0.431-1.22,0.076-2.587-0.789-3.549c-10.028-11.162-11.258-12.77-10.495-20.73c0.654-6.818,4.74-13.828,4.508-20.239
		c-0.696-19.223-6.067-36.106-13.18-48.26c0.001-0.001,0.003-0.002,0.004-0.003c9.029-20.201-4.075-36.044-24.317-46.368
		c-124.122-63.303-255.14,52.965-296.036,65.003c-40.896,12.038-80.707,14.231-120.254-1.689
		c25.096,50.32,81.309,39.685,121.19,23.353c20.245-8.291,49.281-22.504,74.064-18.991c-23.53,1.715-48.806,10.979-92.865,47.441
		c-38.07,31.507-102.266,43.905-132.253,16.979c7.352,16.358,22.458,26.075,39.568,31.449c42.566,13.368,88.764-1.863,128.581-21.99
		c39.817-20.127,72.542-53.938,121.698-54.509c-60.762,15.004-80.291,55.805-122.963,75.229
		c-61.692,28.082-95.211,13.839-134.702,44.721c37.647-10.563,75.615-2.456,105.959-3.535
		c85.459-3.038,115.464-23.928,139.393-50.135c-39.881,70.456-115.939,37.602-152.623,90.923
		c54.631-36.04,92.51-2.976,147.306-21.986c37.222-12.914,48.89-45.865,72.687-55.378c-11.679,11.937-8.064,31.272-32.227,33.343
		c30.741,7.607,42.907-14.594,49.871-24.034c-8.76,24.874-35.047,55.39-118.627,63.161c-80.053,7.443-71.94,95.415-77.988,127.701
		c-7.322,39.083-18.865,81.388-29.69,93.922c-31.844,36.872-67.75,92.617-103.69,125.529c-9.289,8.506-20.381,12.235-29.28,17.557
		c-6.578,3.933-12.12,8.361-17.176,13.626c-5.629,5.861-16.238,21.068-18.31,35.413c-0.97,6.722-2.007,17.671,3.488,15.441
		c-0.126,2.231-0.075,4.474,0.166,6.695c0.133,1.223,0.333,2.472,0.922,3.529c0.588,1.056,1.647,1.889,2.791,1.836
		c0.106-0.005,0.202-0.037,0.305-0.055c0.016,0.569,0.038,1.117,0.056,1.601c0.117,3.119,0.481,6.305,1.675,9.153
		c2.012,4.801,5.961,3.918,6.797,1.688c-0.289,6.051-0.575,12.836,1.346,19.13c1.015,3.325,5.19,4.044,6.981,1.122
		c0.313-0.51,0.589-1.044,0.828-1.589c1.179-2.687,1.609-5.668,2.152-8.581c2.918-15.678,10.707-43.392,23.887-54.068
		c3.182-2.576,7.837-1.64,9.803,2.083c1.595,3.019,2.573,6.996,2.742,10.107c0.488,8.898-1.215,19.444,3.822,19.444
		c2.102,0,2.294-4.522,3.34-7.809c2.489-7.826,3.709-22.375,3.057-33.848c-2.935-51.714,84.18-67.864,137.028-152.366
		c10.388-16.61,21.541-34.398,40.071-100.652c2.177-7.786,11.2-44.895,21.275-53.302l0-0.001c0,0,19.745-16.393,37.242,8.343
		c9.271,13.106,16.496,25.591,27.512,33.566c14.425,10.443,32.764,14.029,44.626,9.994c0,0-11.962,8.332-33.905,3.149
		c-11.073-2.616-23.492-12.048-33.753-24.797c-12.542-15.582-13.335-22.434-20.457-24.143
		c17.661,96.568,82.04,169.493,41.875,250.109c0,0,5.1-23.98,2.82-49.337c-162.517,112.452,23.855,246.844,89.19,300.3
		c16.722,13.682,29.545,28.808,40.156,43.883c18.411,23.818,29.509,53.577,29.909,85.916
		c0.976,79.102-64.198,145.241-143.306,145.378c-79.408,0.137-143.824-64.194-143.824-143.57
		c0-77.768,59.941-177.941,43.601-251.291c-7.519,57.014-31.447,61.572-71.328,100.313
		c-77.041,74.839-32.664,176.615-15.573,195.415c-43.869-29.91-43.679-116.414-142.811-136.544
		c-45.582-9.256-131.796,4.083-160.536,75.467c95.397-37.485,202.994,27.183,265.46,83.296
		c71.862,64.554,132.918,101.605,193.137,115.369c108.786,24.865,200.069-17.745,242.645-51.041
		c58.042-45.39,86.904-121.022,86.92-194.705c0.045-202.057-168.049-243.932-158.174-362.625c-1.838-0.001-3.642,0.522-5.428,1.345
		c-8.652,25.088-7.296,45.563-7.296,45.563c-12.344-60.581,29.056-120.212,11.948-208.27c18.254-2.595,29.78-19.517,30.179-36.992
		l0,0.001c1.962-31.899-36.131-61.476-36.131-61.476s34.643,19.562,47.387,57.155c10.464,5.819,43.966,34.76,68.443,50.843
		c5.186,3.408,10.797,10.549,17.278,10.425c47.262-0.903,96.94-126.113,106.005-157.223c2.617-8.982,3.55-25.387,7.303-36.704
		C1436.192,633.912,1433.237,624.151,1432.64,615.087z"/>
</g>
</svg>
