<?xml version="1.0" encoding="utf-8"?>
<!-- Generator: Adobe Illustrator 27.5.0, SVG Export Plug-In . SVG Version: 6.00 Build 0)  -->
<svg version="1.1" xmlns="http://www.w3.org/2000/svg" xmlns:xlink="http://www.w3.org/1999/xlink" x="0px" y="0px"
	 viewBox="0 0 2000 2000" style="enable-background:new 0 0 2000 2000;" xml:space="preserve">
<symbol  id="New_Symbol_20" viewBox="-2000 -79.324 4000 158.649">
	<g id="XMLID_8849_">
		<rect id="XMLID_8872_" x="-2000" y="-79.324" style="fill:#FFC403;" width="2000" height="158.648"/>
		<path id="XMLID_8850_" style="fill:#231F20;" d="M-1631.584,79.324l157.919-158.648h52.64l-157.919,158.648H-1631.584z
			 M-1526.315,79.324l157.919-158.648h52.629l-157.919,158.648H-1526.315z M-1421.056,79.324l157.919-158.648h52.64l-157.93,158.648
			H-1421.056z M-1105.259,79.324l157.919-158.648h52.63l-157.919,158.648H-1105.259z M-1210.528,79.324l157.919-158.648h52.629
			l-157.919,158.648H-1210.528z M-2000,26.456l105.29-105.779h52.629L-2000,79.324V26.456z M-1736.843,79.324l157.919-158.648h52.63
			l-157.919,158.648H-1736.843z M-2000-79.303l0.021-0.021h52.64l-52.661,52.9V-79.303z M-1842.101,79.324l157.919-158.648h52.629
			l-157.919,158.648H-1842.101z M-1947.371,79.324l157.919-158.648h52.629l-157.919,158.648H-1947.371z M-1315.787,79.324
			l157.919-158.648h52.629l-157.919,158.648H-1315.787z M-368.416,79.324l157.919-158.648h52.629L-315.787,79.324H-368.416z
			 M-263.157,79.324l157.919-158.648h52.629L-210.528,79.324H-263.157z M-473.685,79.324l157.919-158.648h52.629L-421.056,79.324
			H-473.685z M-1000,79.324l157.919-158.648h52.629L-947.371,79.324H-1000z M-789.472,79.324l157.919-158.648h52.629
			L-736.843,79.324H-789.472z M-894.741,79.324l157.919-158.648h52.64L-842.101,79.324H-894.741z M-578.944,79.324l157.919-158.648
			h52.629L-526.315,79.324H-578.944z M-684.213,79.324l157.919-158.648h52.64l-157.93,158.648H-684.213z M-52.629,79.324L0,26.456
			v52.869H-52.629z M-157.899,79.324L0-79.303v52.879L-105.269,79.324H-157.899z"/>
	</g>
	<g id="XMLID_8615_">
		<rect id="XMLID_8848_" y="-79.324" style="fill:#FFC403;" width="2000" height="158.648"/>
		<path id="XMLID_8616_" style="fill:#231F20;" d="M368.416,79.324L526.336-79.324h52.64L421.056,79.324H368.416z M473.685,79.324
			L631.605-79.324h52.629L526.315,79.324H473.685z M578.944,79.324L736.864-79.324h52.64L631.573,79.324H578.944z M894.741,79.324
			l157.919-158.648h52.629L947.371,79.324H894.741z M789.472,79.324L947.391-79.324h52.629L842.102,79.324H789.472z M0,26.456
			L105.29-79.324h52.629L0,79.324V26.456z M263.157,79.324L421.077-79.324h52.63L315.787,79.324H263.157z M0-79.303l0.021-0.021
			h52.64L0-26.424V-79.303z M157.899,79.324L315.818-79.324h52.629L210.528,79.324H157.899z M52.629,79.324L210.549-79.324h52.629
			L105.259,79.324H52.629z M684.213,79.324L842.133-79.324h52.629L736.843,79.324H684.213z M1631.584,79.324l157.919-158.648h52.629
			L1684.213,79.324H1631.584z M1736.843,79.324l157.92-158.648h52.629L1789.472,79.324H1736.843z M1526.315,79.324l157.919-158.648
			h52.63L1578.944,79.324H1526.315z M1000,79.324l157.919-158.648h52.629L1052.629,79.324H1000z M1210.528,79.324l157.919-158.648
			h52.629L1263.157,79.324H1210.528z M1105.259,79.324l157.919-158.648h52.64L1157.899,79.324H1105.259z M1421.056,79.324
			l157.919-158.648h52.63L1473.686,79.324H1421.056z M1315.787,79.324l157.919-158.648h52.64l-157.93,158.648H1315.787z
			 M1947.371,79.324L2000,26.456v52.869H1947.371z M1842.101,79.324L2000-79.303v52.879L1894.731,79.324H1842.101z"/>
	</g>
</symbol>
<symbol  id="New_Symbol_21" viewBox="-2000 -76.238 4000 152.475">
	<g id="XMLID_8764_">
		<rect id="XMLID_8876_" x="-2000" y="-76.237" style="fill:#FFC403;" width="2000" height="152.475"/>
		<g id="XMLID_8765_">
			<g id="XMLID_8816_">
				<polygon id="XMLID_8875_" style="fill:#231F20;" points="-1923.765,0.001 -2000,-76.234 -2000,-25.656 -1974.343,0.001 
					-2000,25.658 -2000,76.236 				"/>
				<path id="XMLID_8826_" style="fill:#231F20;" d="M-1050.587,76.232L-1000,25.655v50.578H-1050.587z M-1000-76.238v50.578
					l-50.587-50.578H-1000z"/>
				<polygon id="XMLID_8825_" style="fill:#231F20;" points="-1823.765,0 -1900.003,-76.238 -1950.585,-76.238 -1874.347,0 
					-1950.585,76.238 -1900.003,76.238 				"/>
				<polygon id="XMLID_8824_" style="fill:#231F20;" points="-1723.765,0 -1800.003,-76.238 -1850.585,-76.238 -1774.348,0 
					-1850.585,76.238 -1800.003,76.238 				"/>
				<polygon id="XMLID_8823_" style="fill:#231F20;" points="-1623.766,0 -1700.003,-76.238 -1750.585,-76.238 -1674.348,0 
					-1750.585,76.238 -1700.003,76.238 				"/>
				<polygon id="XMLID_8822_" style="fill:#231F20;" points="-1523.766,0 -1600.003,-76.238 -1650.586,-76.238 -1574.348,0 
					-1650.586,76.238 -1600.003,76.238 				"/>
				<polygon id="XMLID_8821_" style="fill:#231F20;" points="-1423.766,0 -1500.004,-76.238 -1550.586,-76.238 -1474.348,0 
					-1550.586,76.238 -1500.004,76.238 				"/>
				<polygon id="XMLID_8820_" style="fill:#231F20;" points="-1323.766,0 -1400.004,-76.238 -1450.586,-76.238 -1374.348,0 
					-1450.586,76.238 -1400.004,76.238 				"/>
				<polygon id="XMLID_8819_" style="fill:#231F20;" points="-1223.767,0 -1300.004,-76.238 -1350.586,-76.238 -1274.349,0 
					-1350.586,76.238 -1300.004,76.238 				"/>
				<polygon id="XMLID_8818_" style="fill:#231F20;" points="-1123.767,0 -1200.004,-76.238 -1250.587,-76.238 -1174.349,0 
					-1250.587,76.238 -1200.004,76.238 				"/>
				<polygon id="XMLID_8817_" style="fill:#231F20;" points="-1023.767,0 -1100.005,-76.238 -1150.587,-76.238 -1074.349,0 
					-1150.587,76.238 -1100.005,76.238 				"/>
			</g>
			<g id="XMLID_8766_">
				<polygon id="XMLID_8793_" style="fill:#231F20;" points="-923.765,0.001 -1000,-76.234 -1000,-25.656 -974.343,0.001 
					-1000,25.658 -1000,76.236 				"/>
				<path id="XMLID_8776_" style="fill:#231F20;" d="M-50.587,76.232L0,25.655v50.578H-50.587z M0-76.238v50.578l-50.587-50.578H0z"
					/>
				<polygon id="XMLID_8775_" style="fill:#231F20;" points="-823.765,0 -900.003,-76.238 -950.585,-76.238 -874.347,0 
					-950.585,76.238 -900.003,76.238 				"/>
				<polygon id="XMLID_8774_" style="fill:#231F20;" points="-723.765,0 -800.003,-76.238 -850.585,-76.238 -774.347,0 
					-850.585,76.238 -800.003,76.238 				"/>
				<polygon id="XMLID_8773_" style="fill:#231F20;" points="-623.766,0 -700.003,-76.238 -750.585,-76.238 -674.348,0 
					-750.585,76.238 -700.003,76.238 				"/>
				<polygon id="XMLID_8772_" style="fill:#231F20;" points="-523.766,0 -600.003,-76.238 -650.586,-76.238 -574.348,0 
					-650.586,76.238 -600.003,76.238 				"/>
				<polygon id="XMLID_8771_" style="fill:#231F20;" points="-423.766,0 -500.004,-76.238 -550.586,-76.238 -474.348,0 
					-550.586,76.238 -500.004,76.238 				"/>
				<polygon id="XMLID_8770_" style="fill:#231F20;" points="-323.766,0 -400.004,-76.238 -450.586,-76.238 -374.349,0 
					-450.586,76.238 -400.004,76.238 				"/>
				<polygon id="XMLID_8769_" style="fill:#231F20;" points="-223.767,0 -300.004,-76.238 -350.586,-76.238 -274.349,0 
					-350.586,76.238 -300.004,76.238 				"/>
				<polygon id="XMLID_8768_" style="fill:#231F20;" points="-123.767,0 -200.004,-76.238 -250.587,-76.238 -174.349,0 
					-250.587,76.238 -200.004,76.238 				"/>
				<polygon id="XMLID_8767_" style="fill:#231F20;" points="-23.767,0 -100.005,-76.238 -150.587,-76.238 -74.349,0 
					-150.587,76.238 -100.005,76.238 				"/>
			</g>
		</g>
	</g>
	<g id="XMLID_1890_">
		<rect id="XMLID_8763_" y="-76.237" style="fill:#FFC403;" width="2000" height="152.475"/>
		<g id="XMLID_1891_">
			<g id="XMLID_8624_">
				<polygon id="XMLID_8762_" style="fill:#231F20;" points="76.235,0.001 0,-76.234 0,-25.656 25.657,0.001 0,25.658 0,76.236 				
					"/>
				<path id="XMLID_8683_" style="fill:#231F20;" d="M949.413,76.232L1000,25.655v50.578H949.413z M1000-76.238v50.578
					l-50.587-50.578H1000z"/>
				<polygon id="XMLID_8678_" style="fill:#231F20;" points="176.235,0 99.997,-76.238 49.415,-76.238 125.653,0 49.415,76.238 
					99.997,76.238 				"/>
				<polygon id="XMLID_8676_" style="fill:#231F20;" points="276.235,0 199.997,-76.238 149.415,-76.238 225.652,0 149.415,76.238 
					199.997,76.238 				"/>
				<polygon id="XMLID_8675_" style="fill:#231F20;" points="376.234,0 299.997,-76.238 249.415,-76.238 325.652,0 249.415,76.238 
					299.997,76.238 				"/>
				<polygon id="XMLID_8674_" style="fill:#231F20;" points="476.234,0 399.997,-76.238 349.414,-76.238 425.652,0 349.414,76.238 
					399.997,76.238 				"/>
				<polygon id="XMLID_8673_" style="fill:#231F20;" points="576.234,0 499.996,-76.238 449.414,-76.238 525.652,0 449.414,76.238 
					499.996,76.238 				"/>
				<polygon id="XMLID_8628_" style="fill:#231F20;" points="676.234,0 599.996,-76.238 549.414,-76.238 625.652,0 549.414,76.238 
					599.996,76.238 				"/>
				<polygon id="XMLID_8627_" style="fill:#231F20;" points="776.233,0 699.996,-76.238 649.414,-76.238 725.651,0 649.414,76.238 
					699.996,76.238 				"/>
				<polygon id="XMLID_8626_" style="fill:#231F20;" points="876.233,0 799.996,-76.238 749.414,-76.238 825.651,0 749.414,76.238 
					799.996,76.238 				"/>
				<polygon id="XMLID_8625_" style="fill:#231F20;" points="976.233,0 899.995,-76.238 849.413,-76.238 925.651,0 849.413,76.238 
					899.995,76.238 				"/>
			</g>
			<g id="XMLID_5761_">
				<polygon id="XMLID_8623_" style="fill:#231F20;" points="1076.235,0.001 1000,-76.234 1000,-25.656 1025.657,0.001 1000,25.658 
					1000,76.236 				"/>
				<path id="XMLID_8620_" style="fill:#231F20;" d="M1949.413,76.232L2000,25.655v50.578H1949.413z M2000-76.238v50.578
					l-50.587-50.578H2000z"/>
				<polygon id="XMLID_8619_" style="fill:#231F20;" points="1176.235,0 1099.997,-76.238 1049.415,-76.238 1125.653,0 
					1049.415,76.238 1099.997,76.238 				"/>
				<polygon id="XMLID_8618_" style="fill:#231F20;" points="1276.235,0 1199.997,-76.238 1149.415,-76.238 1225.652,0 
					1149.415,76.238 1199.997,76.238 				"/>
				<polygon id="XMLID_8617_" style="fill:#231F20;" points="1376.234,0 1299.997,-76.238 1249.415,-76.238 1325.652,0 
					1249.415,76.238 1299.997,76.238 				"/>
				<polygon id="XMLID_5775_" style="fill:#231F20;" points="1476.234,0 1399.996,-76.238 1349.414,-76.238 1425.652,0 
					1349.414,76.238 1399.996,76.238 				"/>
				<polygon id="XMLID_5773_" style="fill:#231F20;" points="1576.234,0 1499.996,-76.238 1449.414,-76.238 1525.652,0 
					1449.414,76.238 1499.996,76.238 				"/>
				<polygon id="XMLID_5772_" style="fill:#231F20;" points="1676.234,0 1599.996,-76.238 1549.414,-76.238 1625.651,0 
					1549.414,76.238 1599.996,76.238 				"/>
				<polygon id="XMLID_5771_" style="fill:#231F20;" points="1776.233,0 1699.996,-76.238 1649.414,-76.238 1725.651,0 
					1649.414,76.238 1699.996,76.238 				"/>
				<polygon id="XMLID_5770_" style="fill:#231F20;" points="1876.233,0 1799.996,-76.238 1749.413,-76.238 1825.651,0 
					1749.413,76.238 1799.996,76.238 				"/>
				<polygon id="XMLID_5763_" style="fill:#231F20;" points="1976.233,0 1899.995,-76.238 1849.413,-76.238 1925.651,0 
					1849.413,76.238 1899.995,76.238 				"/>
			</g>
		</g>
	</g>
</symbol>
<g id="Layer_2">
	<rect id="XMLID_3921_" style="fill:#FFFFFF;" width="2000" height="2000"/>
</g>
<g id="Layer_28">
	<g id="XMLID_615_">
		
			<radialGradient id="XMLID_00000081609629362613185880000007629507671954718871_" cx="1117.2632" cy="1526.7196" r="883.6094" gradientUnits="userSpaceOnUse">
			<stop  offset="0" style="stop-color:#2DA7DF"/>
			<stop  offset="1" style="stop-color:#2A3F8F"/>
		</radialGradient>
		<path id="XMLID_137_" style="fill:url(#XMLID_00000081609629362613185880000007629507671954718871_);" d="M1138.584,1114.43
			L1138.584,1114.43c0.54,14.351,12.05,25.86,26.401,26.401h0h0c-14.351,0.54-25.86,12.05-26.401,26.401l0,0l0,0
			c-0.54-14.351-12.05-25.86-26.401-26.401h0h0C1126.535,1140.291,1138.044,1128.781,1138.584,1114.43L1138.584,1114.43z"/>
		
			<radialGradient id="XMLID_00000074410451466104328240000004217750395729531320_" cx="1117.2635" cy="1526.719" r="883.6099" gradientUnits="userSpaceOnUse">
			<stop  offset="0" style="stop-color:#2DA7DF"/>
			<stop  offset="1" style="stop-color:#2A3F8F"/>
		</radialGradient>
		<path id="XMLID_138_" style="fill:url(#XMLID_00000074410451466104328240000004217750395729531320_);" d="M577.585,1058.821
			L577.585,1058.821c0.401,10.649,8.942,19.19,19.591,19.591l0,0l0,0c-10.649,0.401-19.19,8.942-19.591,19.591l0,0l0,0
			c-0.401-10.649-8.942-19.19-19.591-19.591l0,0l0,0C568.644,1078.011,577.184,1069.471,577.585,1058.821L577.585,1058.821z"/>
		
			<radialGradient id="XMLID_00000163054723133322133240000005485028823890198198_" cx="1117.2631" cy="1526.7191" r="883.6104" gradientUnits="userSpaceOnUse">
			<stop  offset="0" style="stop-color:#2DA7DF"/>
			<stop  offset="1" style="stop-color:#2A3F8F"/>
		</radialGradient>
		<path id="XMLID_139_" style="fill:url(#XMLID_00000163054723133322133240000005485028823890198198_);" d="M1309.769,1273.825
			L1309.769,1273.825c0.3,7.959,6.683,14.342,14.641,14.641h0h0c-7.959,0.3-14.342,6.683-14.641,14.641l0,0l0,0
			c-0.3-7.959-6.683-14.342-14.641-14.641l0,0l0,0C1303.086,1288.167,1309.469,1281.784,1309.769,1273.825L1309.769,1273.825z"/>
		
			<radialGradient id="XMLID_00000173855462058865110510000010754457656292229291_" cx="1289.1276" cy="2417.106" r="1861.2168" gradientUnits="userSpaceOnUse">
			<stop  offset="0" style="stop-color:#2DA7DF"/>
			<stop  offset="1" style="stop-color:#2A3F8F"/>
		</radialGradient>
		<path id="XMLID_140_" style="fill:url(#XMLID_00000173855462058865110510000010754457656292229291_);" d="M961.924,702.049
			L961.924,702.049c0.407,10.814,9.08,19.487,19.894,19.895h0h0c-10.814,0.407-19.487,9.08-19.894,19.894l0,0l0,0
			c-0.407-10.814-9.08-19.487-19.895-19.894h0h0C952.844,721.536,961.517,712.863,961.924,702.049L961.924,702.049z"/>
		
			<radialGradient id="XMLID_00000048475966634017736600000011196123057065298074_" cx="1117.2645" cy="1526.7209" r="883.6118" gradientUnits="userSpaceOnUse">
			<stop  offset="0" style="stop-color:#2DA7DF"/>
			<stop  offset="1" style="stop-color:#2A3F8F"/>
		</radialGradient>
		<path id="XMLID_141_" style="fill:url(#XMLID_00000048475966634017736600000011196123057065298074_);" d="M441.884,888.265
			L441.884,888.265c0.312,8.28,6.952,14.921,15.233,15.233l0,0l0,0c-8.28,0.312-14.921,6.953-15.233,15.233l0,0l0,0
			c-0.312-8.28-6.952-14.921-15.233-15.233l0,0l0,0C434.931,903.186,441.572,896.545,441.884,888.265L441.884,888.265z"/>
		
			<radialGradient id="XMLID_00000031182418021641299110000011293027248459667077_" cx="1117.2639" cy="1526.7172" r="883.6072" gradientUnits="userSpaceOnUse">
			<stop  offset="0" style="stop-color:#2DA7DF"/>
			<stop  offset="1" style="stop-color:#2A3F8F"/>
		</radialGradient>
		<path id="XMLID_142_" style="fill:url(#XMLID_00000031182418021641299110000011293027248459667077_);" d="M468.285,695.542
			L468.285,695.542c0.54,14.351,12.05,25.86,26.401,26.401h0h0c-14.351,0.54-25.86,12.05-26.401,26.401l0,0l0,0
			c-0.54-14.351-12.05-25.86-26.401-26.401h0h0C456.235,721.403,467.744,709.893,468.285,695.542L468.285,695.542z"/>
		
			<radialGradient id="XMLID_00000077304063897115345090000017794385895302495399_" cx="1117.2634" cy="1526.7213" r="883.6136" gradientUnits="userSpaceOnUse">
			<stop  offset="0" style="stop-color:#2DA7DF"/>
			<stop  offset="1" style="stop-color:#2A3F8F"/>
		</radialGradient>
		<path id="XMLID_143_" style="fill:url(#XMLID_00000077304063897115345090000017794385895302495399_);" d="M1215.929,1098.003
			L1215.929,1098.003c0.251,6.676,5.605,12.03,12.281,12.281l0,0l0,0c-6.676,0.251-12.03,5.605-12.281,12.281l0,0l0,0
			c-0.251-6.676-5.605-12.03-12.281-12.281l0,0l0,0C1210.323,1110.033,1215.677,1104.679,1215.929,1098.003L1215.929,1098.003z"/>
		
			<radialGradient id="XMLID_00000164479899056116717880000002751365288220962960_" cx="1117.2632" cy="1526.7181" r="883.6083" gradientUnits="userSpaceOnUse">
			<stop  offset="0" style="stop-color:#2DA7DF"/>
			<stop  offset="1" style="stop-color:#2A3F8F"/>
		</radialGradient>
		<path id="XMLID_144_" style="fill:url(#XMLID_00000164479899056116717880000002751365288220962960_);" d="M811.667,937.706
			L811.667,937.706c0.462,12.26,10.294,22.094,22.555,22.555l0,0l0,0c-12.261,0.461-22.094,10.294-22.555,22.555l0,0l0,0
			c-0.462-12.26-10.294-22.094-22.555-22.555l0,0l0,0C801.372,959.8,811.205,949.967,811.667,937.706L811.667,937.706z"/>
		
			<radialGradient id="XMLID_00000121271716206384441410000013774963677604025520_" cx="1117.2629" cy="1526.7206" r="883.6126" gradientUnits="userSpaceOnUse">
			<stop  offset="0" style="stop-color:#2DA7DF"/>
			<stop  offset="1" style="stop-color:#2A3F8F"/>
		</radialGradient>
		<path id="XMLID_145_" style="fill:url(#XMLID_00000121271716206384441410000013774963677604025520_);" d="M865.518,977.262
			L865.518,977.262c0.261,6.942,5.829,12.51,12.771,12.771l0,0l0,0c-6.942,0.261-12.51,5.829-12.771,12.771l0,0l0,0
			c-0.261-6.942-5.829-12.509-12.771-12.771l0,0l0,0C859.69,989.772,865.257,984.204,865.518,977.262L865.518,977.262z"/>
		
			<radialGradient id="XMLID_00000145756924231192823550000015471633948955252412_" cx="1117.2634" cy="1526.7198" r="883.6081" gradientUnits="userSpaceOnUse">
			<stop  offset="0" style="stop-color:#2DA7DF"/>
			<stop  offset="1" style="stop-color:#2A3F8F"/>
		</radialGradient>
		<path id="XMLID_146_" style="fill:url(#XMLID_00000145756924231192823550000015471633948955252412_);" d="M1485.839,1216.362
			c113.326-6.972,158.829-102.86,253.369-48.702c-39.797-44.756-105.995-67.216-189.136-44.362
			c-63.747,17.523-127.298,47.196-264.791,74.597c-138.306,27.563-261.298,7.525-347.67-52.589
			c-96.12-66.9-95.354-145.305-187.429-143.863c-18.29,0.286-31.326-1.442-35.167-7.388c0,0,9.118,2.945,27.92-2.49
			c-13.721-11.691-10.221-37.961-14.326-62.526c29.257-27.04-7.276-73.152,25.435-90.063c10.861-5.615,21.333-1.845,26.417,2.661
			c0,0-16.218-4.623-24.144,6.686c4.319-0.386,9.578,0.69,15.93,4.391c1.594,0.929,3.083,2.045,4.477,3.254
			c21.665,18.783,42.817,34,68.027,51.498c40.271,27.953,75.575,26.868,148.023,41.716c-0.046-0.007-0.106-0.006-0.149-0.014
			c11.63,2.43,14.041,7.57,17.906,11.282c8.683,8.34,13.887,9.036,21.077,12.652c1.551,0.78,3.295-0.574,2.927-2.27
			c-1.034-4.766-8.126-8.29-12.287-12.855c-0.014-0.016-0.034-0.025-0.052-0.036c23.056,3.837,23.045,14.224,35.381,23.322
			c2.696,1.988,7.033,2.352,6.624-3.857c-0.269-4.076,1.264-2.218,2.138-5.809c0.908-3.732-0.579-6.175-0.633-8.078
			c-0.296-10.442-14.579-26.006-30.176-30.613c-10.246-3.026-22.866-0.287-33.586-1.722c-16.347-3.351-31.16-5.889-48.045-13.57
			c-50.37-22.911-73.752-31.86-83.929-37.743c-33.886-19.589-59.578-56.673-90.825-88.545
			c-13.458-13.728-23.381-17.926-34.986-20.147c15.333-0.096,26.563-0.983,55.525,28.57c27.779,3.152,43.885,68.611,97.81,51.383
			c-36.064-0.5-36.659-44.458-57.667-71.43c-8.453-10.853-25.218-28.568-50.042-30.932c31.054-1.461,47.001,15.923,64.819,30.538
			c42.069,34.507,78.511-0.69,101.417,18.748c-8.907-21.899-39.713-11.362-60.327-27.139c-12.67-9.698-27.178-36.737-46.759-41.829
			c0.276-0.017,0.543-0.031,0.822-0.048c20.414-1.281,41.134-1.742,56.76,11.456c-16.461-19.854-42.03-29.925-67.335-34.908
			c-25.304-4.983-33.202-25.291-58.461-30.502c-24.56-5.067-31.288-3.916-47.271-23.127c13.193,6.165,28.75,7.322,42.77,3.384
			c-11.832-0.989-22.742-6.832-32.345-13.814c-9.603-6.983-18.27-15.203-28.029-21.965c-24.824-17.202-94.906-37.962-133.816-1.612
			c-5.944,5.553-11.049,14.454-11.969,24.726c-0.813,9.08,3.514,19.699,9.546,20.763c0.543,14.786,8.049,21.733-7.633,36.865
			c-0.815,0.786-0.712,2.988,2.47,3.99c1.696,0.534,3.247,0.729,4.624,0.92c3.689,0.511,5.729,4.693,3.701,7.817
			c-0.183,0.282-0.352,0.508-0.484,0.675c-1.027,1.301-2.14,2.704,0.655,4.371c0.416,0.248,0.897,0.386,1.389,0.47
			c-1.201,0.871-2.315,2.277-1.609,3.697c0.276,0.556,0.803,0.936,1.31,1.293c0.948,0.669,2.049,1.163,2.846,2.008
			c2.395,2.539,0.794,7.902,1.213,10.592c0.782,5.016,12.92,5.718,26.305,2.623c7.679,10.398,6.55,22.616-4.719,31.614
			c-1.324,1.057-2.545,2.173-3.673,3.343c-16.172,3.132-32.315,9.662-57.309,24.14c-30.867,17.879-72.024,30.974-88.37,33.182
			c-75.086-7.446-129.805,14.582-166.146-24.812c-2.515-2.726-9.868-4.305-15.929-7.155c-7.918-3.724-15.076-7.631-17.183-3.157
			c-2.418,5.135,12.003,14.076,19.683,20.288c8.272,6.691,12.373,14.162,11.27,16.771c-0.998,2.363-17.176-5.91-19.577,1.201
			c-0.337,0.998,0.384,2.051,1.438,2.015c8.237-0.286,21.039,13.245,35.604,6.764c2.037-0.907,4.221-1.403,6.447-1.273
			c19.901,1.161,70.265,15.893,120.332,22.695c17.196,2.336,32.827,1.75,47.891-0.294c24.441-3.317,64.366-16.94,90.066-19.765
			c0.286-13.539-5.092-21.467-5.092-21.467c22.263,12.806,19.899,32.311,13.003,72.896c-3.075,18.097,3.546,39.009,22.615,48.089
			c6.651,21.818,16.695,30.78,33.91,60.977c7.025,12.322,12.382,31.38,18.886,56.199c8.837,33.716,14.608,66.119,29.251,91.208
			c34.973,59.921,93.572,93.061,170.669,110.555c117.597,26.684,267.798-7.44,449.888-22.396
			c41.567-3.414,117.052-7.316,161.62,18.596c0,0-55.969-12.438-101.227-6.219c20.651,8.5,37.169,17.461,52.7,29.276
			c63.175,48.063,138.585,169.02,266.725,98.617C1612.151,1387.873,1597.297,1228.524,1485.839,1216.362z"/>
	</g>
</g>
</svg>
