<?xml version="1.0" encoding="UTF-8"?>
<svg xmlns="http://www.w3.org/2000/svg" version="1.1" viewBox="0 0 4000 4000">
  <!-- Generator: Adobe Illustrator 28.7.7, SVG Export Plug-In . SVG Version: 1.2.0 Build 194)  -->
  <g>
    <g id="Layer_1">
      <g>
        <path d="M3097.6,2338.7c-208.2,48.8-457,167.4-587.8,342.8-44.2,59.2-81,125.2-97.7,197.7-10.9,47.5-17.6,94.4-35.9,140.1-42.5,106.3-138.9,199.6-247.5,236.2-13.5,4.6-28,10.3-42.2,12.4-54.2,7.8-191.8-65.4-236.1-99.3-76.5-58.5-131.8-141.9-144.8-238.6-27.2-202.7,107.8-349.7,206-509.6,38.4-62.5,71.8-131.7,92.1-202.3,21.4-74.3,26-137.2,5.4-212.3-10.5-38.3-23.7-83.2-46.2-115.9-1.4,1.7-1.2,2.6-1.7,4.8-5.8,26.5-69.1,70.1-90.8,87.3,21.9-30.1,49.6-53.7,66.5-88,40.2-81.6-55.3-113.8-19-223.2,19.4-58.5,66.2-98.6,97.8-149.6,17.6-28.4,27.4-60.2,38.1-91.6,10.5,22.3,25.1,43.3,36.6,65.2,23.5,44.8,45,91.2,66.4,137.1,22.8,49.1,35.2,104.9,65.2,150.1,42.6,64.2,118.4,128.7,180,175.6,21.3,16.2,44.1,30.9,65,47.6,14.6,11.6,23.7,28.4,39,39.3,20.3,14.7,46.6,19,68.7,30.5,22,11.4,38.8,28.4,58.9,42.3,2.9,2,1.3,1.6,4.9.9.9-1.5,1.8-2.8,2.4-4.5,9-26.9-50.7-58.2-56.6-75.4-.7-2-.8-3.1.6-4.8,4.6-5.8,15.2-10.1,22.1-12.5,44.9-15.7,93.1,1.9,136.8,12.6,10.5,2.6,22.5,6.4,33.3,4.9l1.2-1.8c-8.1-21.4-68.2-48.5-89.1-58.7,23.9,5.9,48.1,15.1,72.6,17.9,5.7.6,12.5,1.5,17.1-2.2-.7-1.2-.9-1.8-2.1-2.7-6.3-4.8-30.7-14.9-40-19.2-77.5-36.1-101.6-25.2-181.2-9.2-21.4,4.3-40,6.4-59.1-6.6-21.1-14.3-39.1-36.1-54.1-56.4-38.6-52.4-67.7-111.8-102.2-166.9-19.9-31.8-44.7-59.9-64.9-91.3-12.9-20.1-23.1-42.7-32.3-64.7-32.1-76.7-50.1-155.9-64.7-237.4,28.3,17.7,60.9,41.4,79,70,10.4,16.3,16.1,34.9,20.4,53.6,11.5,49.4,20.8,77.9,59,114.4,50.7,48.4,124.6,71.6,193.8,69.6,43.2-1.3,99.1-14.2,130-46.9-5.9,1.9-11.7,5.4-17.4,7.9-17,7.7-31.9,10.9-50.5,11.4-51.4,1.3-105-15.9-142.6-51.8-37.3-35.6-58.2-91.6-60.4-142.6-1-22.6,1.6-45.3,1-68,12.9,34.8,16.5,73,36.5,104.9,24,38.2,60.6,57.4,103.7,67,44.9,10,90,3.2,128.9-21.7-21.8,5.2-44.3,8.5-66.8,7.8-146.1-4.8-114.1-137.1-159.8-233.6-10.7-22.6-27.1-40.3-44.1-58.4,64.7,30.5,73.6,118.4,109.5,172.3,18.4,27.6,44.8,49.6,74.5,64.2,46.7,23.1,104.3,28.2,153.8,11.2,65.8-22.6,99.8-75.1,129.1-134.4-1.8,2.1-3.6,4.1-5.5,6.2-34,37-63.3,60.1-115.9,62.1-44.6,1.7-85.1-16.5-117.3-46.8-43.5-40.9-58.2-97.2-59.8-155.1,7.4,8.6,15.1,16.8,23.7,24.2,35.3,30.4,81.7,47,128.4,43.3,40.3-3.2,72.9-19.7,98.9-50.4-5.9,4.6-11.8,9-18.2,12.8-27.5,15.8-59.2,16.1-89.2,7.6-62.4-17.7-104.1-62.8-139.2-114.7-8.2-12.1-17-24.2-24.1-36.9.8.5,1.6,1.1,2.3,1.7,12.2,9.1,20.2,24,32,34.1,44.2,37.8,115.5,70,174.8,62.9,52.9-6.4,100.2-39.3,132.5-80.6,34.4-44.1,50.9-96.2,43.7-152-4.1-32-17.1-65.9-43.5-86.2-12.2-9.4-26.4-16.5-40.1-23.7,27.9,25.5,45.7,48,47.5,87.2,2.3,48.7-20.2,95.6-52.6,131-24.5,26.8-55.2,43.5-91.8,44.9-45.8,1.8-83.4-16-116.3-47.1-18.2-17.2-31.4-38.6-48.1-57.2-47.7-52.9-109.9-76.7-176.3-96.4,96.4,11.1,159.3,43,260.2,17,28.5-7.3,56-18.7,79.1-37.1,24.7-19.7,41.7-47.7,45.2-79.4,3.6-32.6-3.6-67.1-24.6-93-17.9-22-43.9-39.7-67.2-55.5,28,30.2,57.1,58.7,55.3,103.1-.8,20.3-7.4,40.4-22.5,54.5-24.5,23.1-63.8,26.9-95.7,25.1-22.2-1.2-45.3-4.3-65.9-13.1-53.3-22.7-72.4-66.2-138.7-78.3-59.9-10.9-109.6,11.9-166.9,22.3-29.7,5.2-60.1,5.4-89.9.4-26.5-4.5-51.6-12.7-75-26.1,51.4,15.9,103.3,13.8,151.3-11.7,58.9-31.3,87.8-98.6,156.5-114,25.3-5.7,50.4-3.3,75,4.1,35.6,10.7,58.1,30.1,82,57.6-8.6-41.2-30.6-70.1-65.8-93.2-45.6-29.9-105.8-44.8-159.7-33.3-82.6,17.6-101.8,99.1-201.9,104.9-23.1,1.4-45.8-3.3-65.5-15.8-27.9-17.7-48.8-45-73-67.1-67.4-61.6-163.6-104.7-256.2-84.9-31.8,6.8-68.9,21.5-87,50.3-11.8,18.9-12.3,40.7-7,61.7.3,1.3.7,2.5,1.1,3.8-31.6,26.8-56.9,68-60.1,110-2.5,32.3,17.1,83.2,11.5,103.3-6,21.5-42,43-29.2,59.3,8.8,11.3,23.8,7.3,27.9,23l-.8,3.3c-3.6,1.9-8.7,3.4-10,7.7-1,3.4-.5,6.2,1.9,8.8,2.1,2.3,5.5,4.2,8.1,6l.8,2.9-4.1,4.8c1.4,10,12.1,13.1,17.2,20.9,8.4,12.6,3.8,36.1,18,45,9.5,6,25.2,1.7,35-1.7,25.6-9,49.7-22.1,75.7-30.2,11.9,29.2,13,64.3.9,93.6-8.6,20.9-23.2,36.1-44.2,44.8-18.5,7.6-38.9,10.6-58.4,14.4-75.1,14.4-108.8,28.5-139.4,100.7-22.7,53.6-44,107.7-63.7,162.5-12.4,35.4-22.9,71.2-32.9,107.4-6.3,22.5-11.3,46.1-20,67.8-4,9.9-9.1,19.2-15.9,27.4-19.9,24.3-47.9,42.5-71.9,62.5-29.6,24.8-58,51.1-85.1,78.7-28.2,29-100.6,107.7-134.1,120.9-38.4,15.1-79.4,2.3-118.9,1-30.3-1-58.4,4.4-86.4,15.9-20,8.3-39.5,18.9-55.2,34,21.6-6.2,41.5-9.2,64-8.8-36.2,15-66.2,41.6-88.2,73.7,53.3-28.7,111.8-42,172.1-37.5,12.2.9,25.8,1.8,37.5,5.5,2.5.8,4.3,1.9,6.3,3.5,1.1,5.3-1.1,9.1-3.9,13.4-28.8,43.6-40.3,33.7-37.6,96.2,20.5-46,34.6-51.6,76.5-75.3,10.5-6,21.4-12.5,30.3-20.7,14.9-13.7,23.8-37.2,40.2-47.9,22.5-14.7,52.4-22.7,76.8-34.6,74.1-35.9,145.7-81.4,203.9-140.2,47.5-47.9,63.7-104.1,96.3-160.5,20.3-35,44.4-67.4,65.9-101.6l-4.9-20c21.1,29,43.5,48.9,80,54.7,32.6,5.2,60.4-3.3,89.1-18.2-25.1,21-53.5,38.2-87.6,35-15.1-1.4-27.9-6.4-40.9-14,10.2,46.4,41.6,121.9,37.8,165.8-1.2,14.5-6.8,27.4-14.6,39.5-14.5,22.6-33.8,40.3-51.3,60.3-10.4,11.9-18.6,25.5-29.2,37.3-32.4,35.9-67.2,68.8-96.8,107.3-25.5,33.1-49.8,69-68.6,106.4-99.5,197.9-94.5,447.7-50,659.4,58.5,278.3,201.9,508.2,441.9,664.6,154.9,100.9,331.6,159.4,516.7,164.7,62.4,1.8,126.1-2.1,187.2-15.1,141.1-30,274.3-107.9,353.6-230.9,63.1-97.8,72.8-200.3,79.6-312.7,3.1-51.6,6.8-103.4,15.4-154.4,26.7-157,95.8-307.1,215-415.1,27.2-24.6,57.7-42.1,86.6-64-37.2,4.9-75.6,10-113.2,18.8ZM2536.3,1085.1c.3-.3.8-.4,1.2-.2.4.1.7.5.8.9.1.4-.1.9-.5,1.1-.5.4-1.2.3-1.6-.2-.4-.5-.4-1.2.1-1.6ZM2387.3,1220.4c.4-.4,1.1-.4,1.5,0,.4.4.5,1.1.2,1.5-.2.3-.7.5-1.1.4-.4-.1-.8-.4-.9-.8-.2-.4,0-.8.3-1.1ZM1815.4,1466.8c.5-.4,1.3-.4,1.8.2.4.5.4,1.3-.1,1.8,35.8,33.4,60.5,48.7,110.7,46.7,38.5-1.5,69.2-13.9,96.6-40.8-4.2,6-8.2,12.1-13,17.6-19.7,24-46,38.6-77.1,41.7-31.3,3-61.4-7-85.4-27.2-11.5-9.7-25.5-24.2-31.8-38-.4.3-.8.4-1.2.2-.4-.2-.7-.5-.8-1-.2-.5-.1-.9.3-1.2ZM2283.9,3308.5c-.6,0-1.1-.4-1.2-1-.1-.5.1-.9.5-1.2.4-.2.9-.2,1.3,0,.4.3.6.7.6,1.2-.1.6-.6,1-1.2,1ZM2287.6,3307.2c-.4.2-.9.2-1.3,0-.4-.3-.6-.7-.5-1.2.1-.6.6-1,1.2-1s1.1.4,1.2,1c0,.5-.2,1-.6,1.2ZM2801.5,2728.3c-35.3,92.1-55.8,189.5-94.5,280.4-13.8,31.9-30.9,62.3-51.1,90.6-83.4,116.8-225.6,184-364,207.4l.1-.7c3.2-3.6,33.6-9.1,40.9-11.3,73.4-21.1,142-56.1,202-103.1,133.9-105.3,160.4-213.1,216.2-363.7,20.4-54.2,44.4-106.9,71.8-157.9,1.4,8.9-17.2,47.3-21.4,58.3ZM2825.2,2669.5c-.7,0-1.3-.6-1.3-1.3s.6-1.2,1.3-1.2,1.3.6,1.3,1.2c0,.7-.6,1.3-1.3,1.3ZM2826.8,2666.4c-.7,0-1.2-.5-1.2-1.2s.5-1.2,1.2-1.2,1.2.5,1.2,1.2c0,.6-.5,1.2-1.2,1.2Z"/>
        <path d="M2663,1599.5c.4-.1.8-.4.9-.8.1-.4,0-.9-.3-1.2-.5-.5-1.1-.5-1.6-.1-.5.4-.6,1.1-.2,1.6.2.4.6.5,1.2.5Z"/>
      </g>
    </g>
  </g>
</svg>