<svg version="1.2" xmlns="http://www.w3.org/2000/svg" viewBox="0 0 1024 1024" width="1024" height="1024"><style></style><path fill-rule="evenodd" d="m583.7 813c-12.8-0.3-25-3.6-37.1-7.3-7.5-2.3-15.1-4.3-22.7-5.6-14.3-2.5-28.2 0.4-41.9 4.2-9.3 2.6-18.6 5.4-28 7.1-13.5 2.3-26.9 1.7-39.9-3.4-8.1-3.1-15-7.9-19.8-15.2-5.9-9-4.8-18.5 2.9-25.8 2.9-2.8 6.2-5.1 9.7-7.1 6.4-3.6 4.1-8.1-0.5-9.7-5.6-1.9-11.5-2.9-17.3-4.1-3.3-0.7-6.7-0.9-9.9-1.5-9.9-2-18.3-6.9-25.4-14.1-7.3-7.5-14.4-15.2-22-22.5-17.7-16.9-38.9-27.2-62.8-31.8-10.3-2.1-20.7-3.2-31.1-4.2-44.5-4.5-77.2-32.6-83-80.3-1.5-12.3-0.6-24.2 4-35.8 1.1-2.8 2.3-5.6 4-8 7-10.3 7.7-21.6 5.7-33.5-1.4-8.4-2.4-16.9-2.6-25.3-0.5-14.2 5.1-25.9 16.3-34.8 3-2.4 6-4.9 8.8-7.4 8.7-7.9 13.2-17.7 13.1-29.6-0.1-8.3-0.3-16.8 0.9-24.9 2.8-18 16.1-34.4 38.7-36.5 3.8-0.4 7.6-0.6 11.4-1 1.8-0.1 3.7-0.3 5.5-0.7 12.4-2.4 18.7-11.3 17-23.9-0.6-4.8-1.4-9.5-2-14.3-2.1-19.7 9-36.2 27.9-42 10.2-3.1 20.4-2.3 30.7-0.6 4.3 0.7 8.5 1.6 12.8 2.2 8.4 1.3 15.5-1.1 20.3-8.5 3.3-5.2 6.3-10.6 9.6-15.8 4.1-6.2 7.9-12.8 12.8-18.4 16.7-19.5 38.6-25.1 63.2-16.1 9.3 3.4 18.1 8.2 27.1 12.5 5 2.3 9.7 5.1 14.7 7.4 7.5 3.5 15.2 3.7 22.8 0.4 6-2.6 12-5.7 17.8-8.9 9.7-5.5 19.2-11.3 29.9-14.7 21-6.5 40.1-3.8 57.1 10.8 5.7 4.9 10.1 11 13.6 17.7q4.2 7.9 7.9 16.2c3.9 8.8 10.5 13.1 20.2 12 8.7-1.1 17.5-2.3 26.2-3.5 24.3-3.1 45.8 14.3 50.6 36.5 1.2 5.5 1.5 11.2 2.1 16.8 0.4 4.3 0.5 8.7 1.1 13 1.2 9 6.4 14.4 15.3 16 5.4 1 10.9 1.3 16.4 2 12.5 1.8 23.7 6.7 32 16.6 7.9 9.4 11 20.4 9.7 32.6-0.5 5.3-1.2 10.6-1.5 15.9-0.6 7.6 2.7 13.6 8.4 18.3 2.9 2.3 6.1 4.1 9.2 6 4.5 2.8 9.4 5.2 13.5 8.5 13.9 10.9 18.3 25.6 16.4 42.6-0.9 9-4.1 17.5-7.1 25.9-1.7 4.7-2.6 9.6-3.5 14.5-0.6 3.3 0.6 6.2 2.8 8.7 13 14.8 16 32.2 13.5 50.9-3.4 25.9-15.5 46.9-36.1 62.8-12.7 9.9-27.5 14.5-43.2 16.7-14.9 2.1-29.8 3.7-44.2 8-22.3 6.8-42.6 17.1-59.1 33.9-4.4 4.5-8.6 9.4-12.2 14.6-8.4 12.2-19.9 18-34.5 18.7-5.6 0.3-11.2 1.6-16.7 2.9-2.3 0.6-4.5 2.1-6.3 3.7-2.3 2-2 4 0.3 5.9 1.5 1.3 3.3 2.2 5 3.3 4.9 3.3 9.2 7.1 11.2 12.9 2.8 8.2 0.2 15.1-5.2 21.2-7 7.9-16 12.5-26.1 14.6-6 1.3-12.2 1.6-18.4 2.3zm36.4-576c-1.1 2.2-1.7 3.4-2.2 4.6-6 14.3-12.3 28.4-17.9 42.8-17.8 46.2-32 93.5-42.3 141.9-5.8 27.4-11 55.1-15.8 82.8-3.3 19.5-5.6 39.2-8 58.8-2.3 18.5-4.1 37.1-6 55.6q-1.9 18.4-3.7 36.8-1.7 18.2-3.2 36.4c-0.9 11.6-1.8 23.2-2.6 34.8-0.4 5.3-0.8 10.6-1.2 15.9q0.6 0.1 1.1 0.2c0.9-4.3 1.7-8.6 2.7-12.9 7.6-35.3 14.8-70.6 23.1-105.7 14.8-62.9 33.1-124.7 54.9-185.5 18.5-51.7 39.1-102.6 59.5-153.5 0.9-2.2 1.8-4.4 2.9-7.4-13.2 1.3-20.4-5.7-25.8-15.5-2.6-4.8-5-9.8-7.5-14.6-2.5-4.9-5-9.7-8-15.5zm-71.6 505.1q0.5 0.4 1 0.8c2.9-3.4 5.9-6.7 8.6-10.1 24.2-30.1 48-60.6 72.6-90.4 36.7-44.3 75.5-86.6 118.5-125.1 25.3-22.6 51.6-44.2 80.1-62.8 0.6-0.4 1.2-1 2-1.6-16.7-6.4-26.3-17.5-25.7-36.1-1.9 0.9-3.2 1.5-4.5 2.2-17.4 9.5-33.7 20.8-49.1 33.4-40.2 33.1-74.8 71.5-105.1 113.8-35.8 50.1-65.9 103.5-91.3 159.6-2.4 5.4-4.7 10.9-7.1 16.3zm-14.8 2.7q0.6 0.2 1.2 0.3c1-2.4 2.1-4.8 3.1-7.2 16.4-40 32.9-80 51.1-119.2 27.5-59.3 58.2-116.7 96-170.2 22.4-31.6 46.6-61.6 75-88.1 0.6-0.5 1.1-1.1 1.6-1.7-0.3-0.3-0.4-0.5-0.5-0.5q-0.7-0.1-1.5-0.2c-7.9-0.3-13.9-4-18.5-10.3-4.2-5.8-6.2-12.4-6.2-19.6-0.1-4.2-0.1-8.4-0.1-13.3-1.2 1-1.7 1.4-2.1 1.8-4 4.1-8 8.1-11.8 12.3-22 24.7-40.9 51.7-58.1 79.8-27.6 45.3-50.3 93.1-69.8 142.3-23 58.3-41.1 118.1-56 178.9-1.2 4.9-2.2 9.9-3.4 14.9zm-38.5-21.2q0.5 0.1 0.9 0.1c-0.4-6.6-0.7-13.2-1.4-19.8-2.2-19.7-4.1-39.4-7-59-4.9-34.1-10-68.2-16-102.1-8.1-45.3-17.6-90.4-28.7-135.1-12.2-48.8-26.4-97-44.9-143.8-2.3-5.9-4.8-11.8-7.5-18.3-3 6-5.6 11.4-8.4 16.7-2.9 5.4-6.5 10.4-11.3 14.5-4.7 3.9-10.2 6.2-16.4 6.3-3.7 0-7.5 0-11.5 0 0.6 0.9 1.2 1.8 1.8 2.8 17.5 26 31.9 53.8 45 82.2 18.1 39.7 33 80.6 46.3 122.1 18.5 57.7 32.7 116.5 46 175.6 4.3 19.3 8.7 38.5 13.1 57.8zm-4.3 23.4q0.3-0.1 0.7-0.3c-0.1-0.7-0.2-1.5-0.3-2.2-13.9-52.7-28.9-105.1-47.2-156.5-22.8-64.2-51-125.7-87.2-183.4-17.3-27.4-36.5-53.3-59-76.7-3.9-4.1-8-7.9-12.1-11.9 0.4 6.3 1.3 12.2 1.2 18.2-0.3 13.3-9 23.7-21.8 27-1.5 0.3-2.9 0.7-5.3 1.4 1.1 0.6 1.8 0.9 2.3 1.3 18.5 14.8 34.7 32 50 50.1 28.9 34.2 53.4 71.4 75.9 110 26.6 45.5 48.7 93.2 68.9 141.7 10.6 25.4 20.9 50.8 31.3 76.1 0.7 1.8 1.7 3.5 2.6 5.2zm15.9 1.7q0.6 0 1.2 0.1c0.3-1.3 0.8-2.5 0.9-3.8 0.4-7.8 0.8-15.6 1.1-23.4 0.5-11.9 0.8-23.7 1.3-35.5q1.8-49.7 3.7-99.4c0.7-19.9 1.4-39.9 2.4-59.9 1.4-28.8 3.1-57.5 4.7-86.3 1-17.4 2.1-34.9 3.3-52.3q2.6-35.9 5.6-71.8c1.4-15.6 3-31.1 4.6-46.7 1-9.7 2.1-19.5 3.2-29.3-21.4 12.9-25.2 13.5-55.6 8 0 0.7 0 1.3 0.1 2 0.8 8.8 1.9 17.5 2.5 26.3 2.1 30.1 4.1 60.1 5.9 90.2q2 33.4 3.5 66.9c2 47.4 4 94.8 5.6 142.3 1.4 39.6 2.2 79.2 3.4 118.9 0.5 16.1 1.2 32.3 1.9 48.4 0 1.8 0.4 3.5 0.7 5.3zm-314.6-289.5c1.9 0.8 3 1.2 4 1.6 10.5 4.6 21.4 8.6 31.5 13.9 31.6 16.7 59.4 38.7 85.4 63 43.6 40.9 80.9 87.1 113.4 137.2 14 21.5 27.4 43.3 41.1 65 0.8 1.4 1.8 2.7 2.7 4q0.5-0.3 0.9-0.6-3-7.3-6-14.6c-23.3-55.8-50.7-109.3-84.9-159.2-28.9-42.1-62-80.5-102-112.5-16.7-13.5-34.5-25.5-54.3-34.2-2.7-1.2-5.4-2.1-8.6-3.2 0.3 18-7.4 30.7-23.2 39.6zm261.5 282.9q0.3-0.4 0.6-0.7c0-0.2-0.1-0.3-0.1-0.4q-3.7-5.7-7.4-11.4c-34.8-53.9-76.2-102.1-125.4-143.5-24.5-20.6-50.5-39.1-79.2-53.6-16.6-8.4-33.8-15.5-52.3-19-4.1-0.8-8.3-2.2-12.8-1.1 2.7 7.3 3.8 14.5 1.9 21.8-1.4 5-3.6 9.7-5.4 14.5-2.4 6.3-4.9 12.6-7.1 19.1-0.7 1.8-0.3 4-0.4 6.4 7.8-3.1 15.2-5 22.9-5.3 15.5-0.7 30 3.1 44.3 8.6 24.8 9.5 47.7 22.7 69.9 37.2 49 31.9 93.5 69.4 134.4 111.2 5.3 5.5 10.7 10.8 16.1 16.2zm400.8-185c-13.2 1.4-25.5 3.4-37.6 6.5-27.6 7.1-53.2 18.8-77.8 33-24.8 14.4-48 31.2-70.6 48.8-30.9 24.3-60.7 50-87.9 78.5-3.5 3.7-6.9 7.6-10.4 11.4q0.4 0.3 0.8 0.7c4-3.2 8.1-6.2 12-9.5 21.5-18.4 43-37 64.5-55.4 23.6-20.3 47.9-39.8 73.9-57 22.1-14.5 45-27.2 70.1-35.6 18.7-6.3 37.8-10.8 57.8-8.5 3.4 0.3 6.8 1 10.8 1.7-1.9-5.1-3.7-9.7-5.6-14.6zm-423.4 178q0.4-0.5 0.9-1c-8.3-5.8-16.5-11.8-24.9-17.5-27.3-18.7-55.3-36.3-85.5-50.2-22.4-10.4-45.9-17.6-70.7-19.5-10.8-0.9-21.6-1.1-32.4-1.9-12.9-1-24.8-4.9-34.9-13.2-1.7-1.5-3.3-3-5-4.6-0.1 1.2 0.3 2.1 0.8 2.8 5.1 7.7 11.9 13.4 20.4 17 10.6 4.5 21.7 6.1 33 7 9 0.7 18 1.2 26.9 2.3 27.3 3.4 53 12.2 77.7 24.1 24.7 12 48 26.5 71.3 41 7.5 4.6 15 9.2 22.4 13.7z"/></svg>