<?xml version="1.0" encoding="utf-8"?>
<!-- Generator: Adobe Illustrator 27.5.0, SVG Export Plug-In . SVG Version: 6.00 Build 0)  -->
<svg version="1.1" id="Layer_1" xmlns="http://www.w3.org/2000/svg" xmlns:xlink="http://www.w3.org/1999/xlink" x="0px" y="0px"
	 viewBox="0 0 3000 3000" style="enable-background:new 0 0 3000 3000;" xml:space="preserve">
<rect style="fill:#FFFFFF;" width="3000" height="3000"/>
<g id="XMLID_00000133503963689270257130000004721491409889622681_">
	<g>
		<path style="fill:#61A6B4;" d="M2683.26,1360.163l-755.933,889.797l734.235-982.514l0.905,0.38
			c-0.584,1.343-0.905,2.015-0.905,2.015s0.029,10.396,0.935,24.092c1.46,22.311,5.198,53.323,14.835,62.376
			c1.752,1.665,3.708,2.57,5.869,2.57L2683.26,1360.163z"/>
		<path style="fill:#61A6B4;" d="M2468.242,931.502l-0.467,1.168l-626.45,1203.401l583.347-1284.146l1.84-0.351
			c0.438,1.431,2.862,9.199,6.571,19.391c6.717,18.427,17.638,44.855,28.618,55.923
			C2463.891,929.107,2466.081,930.684,2468.242,931.502z"/>
		<path style="fill:#61A6B4;" d="M2049.743,605.924l-363.336,1442.627l297.164-1502.054l1.051-0.029
			c0.234,6.454,1.635,17.317,7.563,28.005c7.184,13.053,21.113,25.902,47.892,30.283
			C2043.114,605.253,2046.356,605.661,2049.743,605.924z"/>
		<path style="fill:#A3E2DA;" d="M2778.576,1588.818c-26.224,162.424-67.02,232.159-106.122,278.678
			c-39.102,46.519-254.265,266.676-460.813,392.246c0,0-0.205,0.438-0.643,1.285l-0.555-0.087
			c-142.449,124.548-565.825,328.439-579.025,334.776l1.256,4.322c-5.811,1.665-11.097,4.964-15.156,9.666
			c-29.203,33.875-118.474,116.956-217.149,5.987c-3.972-4.439-8.907-7.768-14.338-9.841l2.219-4.526
			c-200.212-99.317-590.823-330.98-590.823-330.98l-0.146,0.234c-29.815-20.471-546.552-378.2-571.52-589.509
			c-22.69-192.152-1.927-277.306,51.133-308.26c4.818-2.833,9.929-5.198,15.273-7.155l766.913,894.294l-738.353-994.312
			l-0.117,0.058c-1.372-3.329-2.745-6.454-4.059-9.286c-2.161-4.614-3.972-9.403-5.432-14.251
			c-2.599-8.702-4.03-17.755-4.147-26.866c-0.905-64.567,11.126-236.802,159.562-295.148c5.753-2.249,11.885-2.95,17.813-2.132
			c5.549,0.73,10.892,2.803,15.565,6.162c2.424,1.723,5.081,3.446,7.914,4.935l-0.263,0.496l648.614,1199.196L566.787,855.663
			l-2.628-0.409c0.935-6.191,1.869-12.411,2.803-18.719v-0.029c10.951-73.21,25.727-153.05,133.426-223.924
			c102.617-67.516,176.003-52.769,207.746-30.984c9.578,6.57,15.361,13.754,17.025,19.536c0.613,2.132,1.635,3.796,2.978,5.052
			l-0.584,0.876l383.018,1447.475L1003.538,563.99l-1.343-0.701c1.285-2.336,2.336-4.701,3.095-7.038
			c1.343-4.088,2.336-9.491,3.417-15.915c7.476-44.037,20.646-136.842,201.088-193.495c155.006-48.68,212.097,11.301,230.962,44.358
			c6.278,11.068,8.323,19.098,8.323,19.098s1.314,0.73,3.679,1.84l48.038,1622.747l27.888-1617.491
			c2.716-1.518,5.344-3.387,7.826-5.607c1.314-1.197,2.716-2.482,4.147-3.855c33.174-31.539,96.485-106.881,245.417-61.208
			c122.854,37.671,175.623,136.93,192.356,176.85c4.41,10.571,6.308,16.967,6.308,16.967s-0.234,2.248-0.117,5.928l-1.051,0.029
			l-297.164,1502.054l363.336-1442.627c2.687,0.204,5.461,0.35,8.381,0.409c0,0,2.541-2.628,7.33-6.629
			c26.574-22.164,122.475-86.03,240.715,25.435c98.354,92.688,117.832,167.067,120.752,202.898
			c1.226,15.039-0.468,23.304-0.468,23.304s0.029,0.087,0.059,0.233l-1.84,0.351l-583.347,1284.146l626.45-1203.401l0.467-1.168
			c4.176,1.606,8.235,0.234,11.973-5.402c3.125-4.702,7.534-8.352,12.995-10.717c31.889-13.959,99.61,15.068,153.313,126.125
			c43.92,90.79,33.816,166.161,23.741,203.336v0.029c-3.154,11.593-6.278,19.478-7.797,22.953l-0.905-0.38l-734.235,982.514
			l755.933-889.797l-0.059-1.285c1.665,0,3.475-0.555,5.403-1.723c4.556-2.745,10.893-2.541,18.222,0.497
			C2742.424,1372.282,2800.332,1453.991,2778.576,1588.818z"/>
		<path style="fill:#61A6B4;" d="M1644.735,2598.987c-4.118-0.438-8.177-0.058-12.061,1.051l-1.256-4.322
			c13.199-6.337,436.575-210.228,579.025-334.776l0.555,0.087c-10.221,20.968-125.567,275.798-190.508,307.542
			C1927.327,2614.109,1711.988,2606.171,1644.735,2598.987z"/>
		<path style="fill:#61A6B4;" d="M1528.685,417.393l-27.888,1617.491l-48.038-1622.747c2.774,1.314,6.979,3.154,12.119,5.023
			c13.637,4.906,33.962,9.841,52.185,4.964C1521.092,421.073,1524.976,419.525,1528.685,417.393z"/>
		<path style="fill:#61A6B4;" d="M1310.572,2054.538L927.554,607.063l0.584-0.876c2.453,2.307,6.045,3.212,10.338,3.008
			c15.039-0.701,38.781-15.098,53.907-32.21c3.972-4.439,7.33-9.082,9.812-13.696l1.343,0.701L1310.572,2054.538z"/>
		<path style="fill:#61A6B4;" d="M1156.179,2128.799L507.565,929.603l0.263-0.496c3.563,1.84,7.388,3.358,11.301,4.088
			c14.893,2.891,31.159-5.052,39.423-45.38c0.672-3.241,1.285-6.512,1.898-9.783c1.343-7.476,2.541-15.098,3.709-22.778l2.628,0.409
			L1156.179,2128.799z"/>
		<path style="fill:#61A6B4;" d="M1059.081,2259.947l-766.913-894.294c2.395-0.847,4.848-1.665,7.33-2.365
			c0.058-0.029,0.087-0.058,0.146-0.058c28.677-8.177,35.131-30.575,32.823-54.054c-1.489-15.244-6.658-30.925-11.856-43.482
			l0.117-0.058L1059.081,2259.947z"/>
		<path style="fill:#61A6B4;" d="M797.428,2270.343c0,0,390.611,231.663,590.823,330.98l-2.219,4.526
			c-5.432-2.044-11.36-2.862-17.288-2.219c-76.481,8.206-321.054,32.764-394.232-15.098
			c-63.498-41.531-186.34-242.059-175.886-317.021c0,0-0.467-0.321-1.343-0.934L797.428,2270.343z"/>
	</g>
	<g>
		<g>
			<path style="fill:#61A6B4;" d="M2706.826,1357.652l-764.372,899.725c-2.307,2.716-5.578,4.118-8.907,4.118
				c-2.541,0-5.11-0.818-7.271-2.541c-4.935-3.942-5.84-11.067-2.073-16.119l744.631-996.415c0.438-0.584,0.905-1.11,1.431-1.548
				c-3.154,11.593-6.278,19.478-7.797,22.953c-0.584,1.343-0.905,2.015-0.905,2.015s0.029,10.396,0.935,24.092l-495.769,663.391
				l510.604-601.014c1.752,1.665,3.708,2.57,5.869,2.57c1.665,0,3.475-0.555,5.403-1.723
				C2693.159,1354.41,2699.496,1354.615,2706.826,1357.652z"/>
		</g>
		<g>
			<path style="fill:#61A6B4;" d="M2493.21,915.382c-0.146,1.343-0.525,2.657-1.197,3.913l-635.298,1220.426
				c-2.103,3.971-6.162,6.279-10.396,6.279c-1.694,0-3.446-0.38-5.081-1.168c-5.695-2.774-8.148-9.578-5.519-15.331
				l591.202-1301.463c1.226,15.039-0.468,23.304-0.468,23.304s0.029,0.087,0.059,0.233c0.438,1.431,2.862,9.199,6.571,19.391
				l-395.78,871.195l424.398-815.272c2.19,2.219,4.38,3.796,6.541,4.614c4.176,1.606,8.235,0.234,11.973-5.402
				C2483.34,921.398,2487.75,917.747,2493.21,915.382z"/>
		</g>
		<g>
			<path style="fill:#61A6B4;" d="M2065.454,599.704L1700.57,2048.405c-1.343,5.286-6.103,8.848-11.331,8.848
				c-0.847,0-1.694-0.117-2.57-0.292c-6.191-1.402-10.133-7.447-8.907-13.667l300.668-1519.721
				c4.41,10.571,6.308,16.967,6.308,16.967s-0.234,2.248-0.117,5.928c0.234,6.454,1.635,17.317,7.563,28.005l-203.307,1027.661
				l251.199-997.378c3.037,0.496,6.279,0.905,9.666,1.168c2.687,0.204,5.461,0.35,8.381,0.409
				C2058.124,606.333,2060.665,603.705,2065.454,599.704z"/>
		</g>
		<g>
			<path style="fill:#61A6B4;" d="M1540.658,407.932l-27.976,1623.974c-0.117,6.337-5.256,11.448-11.623,11.477
				c-0.029,0-0.029,0-0.058,0c-6.308,0-11.506-5.023-11.681-11.331l-48.563-1640.853c6.278,11.068,8.323,19.098,8.323,19.098
				s1.314,0.73,3.679,1.84c2.774,1.314,6.979,3.154,12.119,5.023l33.028,1115.677l19.157-1110.713
				c4.03-1.051,7.914-2.599,11.623-4.731c2.716-1.518,5.344-3.387,7.826-5.607C1537.825,410.59,1539.227,409.305,1540.658,407.932z"
				/>
		</g>
		<g>
			<path style="fill:#61A6B4;" d="M1310.748,2063.006c-0.876,0.204-1.781,0.321-2.687,0.321c-5.169,0-9.9-3.475-11.272-8.702
				L908.339,586.68c-0.438-1.723-0.496-3.446-0.205-5.081c9.578,6.57,15.361,13.754,17.025,19.536
				c0.613,2.132,1.635,3.796,2.978,5.052c2.453,2.307,6.045,3.212,10.338,3.008l273.305,1032.888L992.383,576.985
				c3.972-4.439,7.33-9.082,9.812-13.696c1.285-2.336,2.336-4.701,3.095-7.038c1.343-4.088,2.336-9.491,3.417-15.915
				l310.83,1508.945C1320.793,2055.472,1316.909,2061.546,1310.748,2063.006z"/>
		</g>
		<g>
			<path style="fill:#61A6B4;" d="M1156.734,2137.385c-1.665,0.847-3.475,1.256-5.227,1.256c-4.147,0-8.177-2.249-10.279-6.133
				L484.349,918.01c5.549,0.73,10.892,2.803,15.565,6.162c2.424,1.723,5.081,3.446,7.914,4.935c3.563,1.84,7.388,3.358,11.301,4.088
				l464.143,858.171L560.451,878.032c1.343-7.476,2.541-15.098,3.709-22.778c0.935-6.191,1.869-12.411,2.803-18.719
				l595.145,1285.489C1164.765,2127.777,1162.37,2134.552,1156.734,2137.385z"/>
		</g>
		<g>
			<path style="fill:#61A6B4;" d="M1060.308,2269.087c-2.132,1.694-4.701,2.541-7.271,2.541c-3.3,0-6.571-1.402-8.877-4.088
				l-767.263-894.732c4.818-2.833,9.929-5.198,15.273-7.155c2.395-0.847,4.848-1.665,7.33-2.365l545.646,636.291l-512.677-690.403
				c-1.489-15.244-6.658-30.925-11.856-43.482c-1.372-3.329-2.745-6.454-4.059-9.286c-2.161-4.614-3.972-9.403-5.432-14.251
				c0.935,0.643,1.752,1.489,2.482,2.453l748.807,1008.388C1066.148,2258.02,1065.243,2265.145,1060.308,2269.087z"/>
		</g>
	</g>
</g>
</svg>
