<?xml version="1.0" encoding="utf-8"?>
<!-- Generator: Adobe Illustrator 27.5.0, SVG Export Plug-In . SVG Version: 6.00 Build 0)  -->
<svg version="1.1" id="Layer_1" xmlns="http://www.w3.org/2000/svg" xmlns:xlink="http://www.w3.org/1999/xlink" x="0px" y="0px"
	 viewBox="0 0 3000 3000" style="enable-background:new 0 0 3000 3000;" xml:space="preserve">
<rect style="fill:#FFFFFF;" width="3000" height="3000"/>
<g>
	<path style="fill:#A3E2DA;" d="M1499.844,2340.518c-73.402,0.947-130.601-22.855-130.601-22.855
		c-329.769,71.831-293.853-120.806-293.853-120.806c-502.816-84.891-711.778-244.878-777.079-316.708s-22.855-124.071-13.06-156.722
		c9.795-32.65-48.301-87.41-29.385-173.047c16.212-73.398,71.831-65.301,97.951-111.011c26.12-45.711-24.275-136.553,6.53-185.922
		c45.25-72.519,94.686-45.895,133.866-81.811c39.18-35.915,17.054-117.045,66.03-166.02
		c48.975-48.975,126.608-26.617,172.318-42.942c45.711-16.325,29.385-71.831,97.951-127.336
		c68.566-55.506,133.866-6.53,192.637-22.855c58.771-16.325,37.335-84.566,134.34-106.798
		c82.956-19.012,130.174,10.625,163.639,27.633c15.654,7.956,34.758,3.981,45.85-9.632c20.359-24.987,63.448-64.229,133.275-64.229
		c76.793,0,117.562,39.75,135.593,64.711c9.543,13.211,27.388,17.229,41.887,9.788c33.111-16.993,79.62-47.951,163.71-28.555
		c88.886,20.502,98.954,103.817,135.913,107.082c60.759,5.368,117.872-23.967,192.637,22.855
		c66.392,41.579,52.24,111.011,97.951,127.336s109.388-9.795,172.173,42.854c53.072,44.504,26.994,130.193,66.174,166.109
		s94.543,35.5,127.336,97.951c30.043,57.214-13.06,124.071,13.06,169.782c26.12,45.71,84.03,37.145,97.951,111.011
		c17.278,91.678-39.18,140.397-29.385,173.047c9.795,32.65,52.241,84.891-13.06,156.722s-274.263,231.818-777.078,316.708
		c0,0,35.915,192.637-293.853,120.806c0,0-62.362,23.802-130.601,22.855H1499.844z"/>
	<path style="fill:#3F92A3;" d="M1077.282,2192.125c77.519,17.461,151.1,48.333,223.234,81.046
		c24.001,11.215,47.763,22.833,70.793,36.061c2.685,1.56,3.597,5.001,2.037,7.686c-1.276,2.197-3.818,3.204-6.169,2.644
		c-12.963-3.1-25.694-6.779-38.372-10.591c-75.596-23.594-149.976-51.679-220.538-87.786c-11.746-6.141-23.415-12.478-34.769-19.598
		C1068.727,2198.537,1071.603,2191.033,1077.282,2192.125L1077.282,2192.125z"/>
	<path style="fill:#3F92A3;" d="M1923.011,2201.56c-45.361,25.59-92.802,47.168-140.589,67.71
		c-47.897,20.226-96.431,39.367-146.464,53.738c-6.544,1.713-10.369-7.158-4.495-10.69c5.662-3.286,11.373-6.459,17.131-9.516
		c74.851-39.236,153.242-71.463,233.105-98.975c12.353-4.128,24.754-8.141,37.356-11.674
		C1924.773,2190.625,1928.238,2198.433,1923.011,2201.56L1923.011,2201.56z"/>
	<path style="fill:#3F92A3;" d="M297.075,1709.491c63.984,37.017,125.75,77.765,188.448,116.89
		c102.025,63.182,206.574,122.736,314.339,175.617c65.922,32.345,134.211,62.633,203.205,87.857
		c7.867,3.009,18.101,6.57,26.081,9.26c6.915,2.348,19.174,6.712,26.23,8.84c0.087,0.021,26.481,8.364,26.565,8.386
		c6.69,2.24,4.271,12.502-3.147,10.892c-5.75-1.481-28.822-7.588-33.808-8.877c-3.885-1.095-15.993-4.695-20.12-5.902
		c-100.352-29.843-197.378-71.347-291.453-117.027c-56.434-27.574-111.927-57.198-166.64-88.015
		c-96.623-56.056-193.881-111.428-280.287-183.108c-3.863-3.241-4.368-8.999-1.128-12.862
		C288.291,1707.94,293.298,1707.201,297.075,1709.491L297.075,1709.491z"/>
	<path style="fill:#3F92A3;" d="M365.731,1422.234c86.358,55.816,169.156,118.294,250.258,181.447
		c48.59,37.653,97.694,76.498,145.394,115.291c64.157,51.713,125.99,106.459,188.331,160.32
		c62.291,53.391,125.231,106.979,189.519,157.885c2.499,1.95,2.943,5.556,0.993,8.055c-1.888,2.418-5.339,2.904-7.823,1.164
		c-16.298-11.457-34.071-24.527-50.086-36.51c-41.175-30.879-81.953-62.749-122.064-94.972
		c-55.863-44.521-111.555-92.155-167.355-136.693c-143.768-116.408-295.566-223.106-437.937-341.309
		c-3.874-3.232-4.389-9.004-1.143-12.868C356.804,1420.488,361.927,1419.785,365.731,1422.234L365.731,1422.234z"/>
	<path style="fill:#3F92A3;" d="M514.083,1152.534c102.987,100.803,196.547,215.044,290.391,324.386
		c136.13,160.975,272.986,326.508,402.681,492.635c1.955,2.495,1.517,6.101-0.978,8.056c-2.411,1.889-5.861,1.544-7.854-0.734
		c-58.68-67.302-116.913-134.942-175.412-202.355c-111.227-128.4-239.775-276.33-351.365-403.948
		c-58.813-67.134-116.947-134.947-171.083-205.959C494.167,1156.053,505.193,1144.785,514.083,1152.534L514.083,1152.534z"/>
	<path style="fill:#3F92A3;" d="M760.077,948.4c87.809,135.148,160.88,279.062,237.835,420.486
		c96.981,181.539,193.653,367.576,282.811,553.038c1.225,2.527,0.169,5.569-2.359,6.794c-2.457,1.191-5.401,0.225-6.688-2.152
		c-128.782-239.446-265.769-487.862-398.236-725.454c-44.356-79.198-90.29-161.942-129.215-243.756
		C739.764,947.644,752.982,938.833,760.077,948.4L760.077,948.4z"/>
	<path style="fill:#3F92A3;" d="M1031.95,810.158c48.099,142.994,87.39,292.646,131.241,437.097
		c56.453,189.43,116.841,381.608,180.232,568.884c0.026,0.077,22.497,66.537,22.521,66.608c1.219,3.607-0.716,7.519-4.322,8.738
		c-3.515,1.188-7.325-0.633-8.645-4.064c-8.801-22.89-29.377-76.682-37.639-98.58c-60.639-163.579-117.764-333.035-169.64-499.516
		c-27-86.291-55.954-182.594-80.848-269.5c-18.884-67.834-36.738-135.914-50.503-205.021c-0.956-4.947,2.278-9.733,7.225-10.69
		C1026.112,803.235,1030.524,805.893,1031.95,810.158L1031.95,810.158z"/>
	<path style="fill:#3F92A3;" d="M1353.463,739.92c13.753,93.374,22.207,187.887,29.69,281.973
		c8.271,102.011,20.125,251.61,28.119,353.217c12.627,163.631,25.53,331.167,37.288,494.684c0.244,3.245-2.196,6.075-5.443,6.308
		c-3.151,0.227-5.902-2.086-6.266-5.193l-8.125-70.435c-23.459-209.96-44.115-424.468-63.287-634.824
		c-11.867-136.773-27.79-287.58-30.121-424.236c-0.067-5.039,3.964-9.178,9.003-9.245
		C1348.934,732.109,1352.792,735.485,1353.463,739.92L1353.463,739.92z"/>
	<path style="fill:#3F92A3;" d="M2712.579,1724.301c-57.249,47.923-119.846,88.644-183.635,127.174
		c-43.772,26.456-88.097,52.214-132.961,76.803c-134.795,73.266-274.507,139.96-421.972,183.586
		c-6.884,1.973-19.817,5.861-26.907,7.56c0,0-27.061,6.968-27.061,6.968c-2.567,0.661-5.184-0.884-5.846-3.452
		c-0.653-2.528,0.845-5.098,3.319-5.812l26.384-8.468c11.994-3.818,27.297-9.418,39.286-13.499
		c58.113-21.1,116.351-45.927,172.32-72.212c139.756-66.175,274.2-143.686,404.581-226.685
		c46.972-29.402,93.997-58.928,141.905-86.775c4.366-2.583,10.029-1.106,12.563,3.296
		C2716.794,1716.662,2715.866,1721.497,2712.579,1724.301L2712.579,1724.301z"/>
	<path style="fill:#3F92A3;" d="M2644.105,1436.912c-70.353,60.172-145.5,114.643-219.27,170.471
		c-32.313,24.488-66.009,50.221-98.064,74.88c-156.138,117.934-301.255,249.689-460.437,363.684
		c-2.332,1.658-5.566,1.112-7.224-1.219c-1.614-2.269-1.14-5.394,1.036-7.088c16.175-12.551,32.19-25.571,48.142-38.554
		c87.862-71.38,172.753-146.197,258.619-219.973c50.631-42.904,103.955-85.753,155.893-127.027
		c35.583-28.104,73.753-57.747,109.76-85.478c65.201-50.438,130.887-100.227,200.775-144.374
		C2642.547,1416.601,2652.769,1428.842,2644.105,1436.912L2644.105,1436.912z"/>
	<path style="fill:#3F92A3;" d="M2498.603,1164.615c-32.964,45.117-68.797,87.914-105.194,130.239
		c-191.718,218.263-402.269,461.113-592.978,681.714c-1.914,2.214-5.26,2.458-7.475,0.545c-2.146-1.854-2.431-5.067-0.706-7.279
		c165.155-210.595,337.119-416.806,511.439-619.935c49.89-58.198,102.815-120.207,157.1-174.033
		c7.919-7.905,15.952-15.698,24.195-23.332c3.706-3.433,9.493-3.211,12.926,0.495
		C2500.927,1156.285,2501.123,1161.159,2498.603,1164.615L2498.603,1164.615z"/>
	<path style="fill:#3F92A3;" d="M2254.841,957.355c-28.132,63.055-60.863,123.913-94.498,184.158
		c-144.039,257.834-291.979,525.678-432.199,785.405c-1.556,2.874-5.148,3.941-8.021,2.385c-2.781-1.506-3.864-4.932-2.521-7.755
		c109.266-227.883,227.519-452.554,347.924-674.78c48.885-88.987,98.611-184.826,154.074-269.67
		c6.292-9.662,12.718-19.24,19.39-28.698c2.912-4.129,8.62-5.115,12.749-2.203C2255.358,948.749,2256.566,953.457,2254.841,957.355
		L2254.841,957.355z"/>
	<path style="fill:#3F92A3;" d="M1974.964,811.381c-16.155,92.363-40.596,183.542-66.019,273.749
		c-17.81,62.718-40.178,140.659-59.164,202.674c-60.706,201.094-128.354,403.483-204.67,599.257
		c-1.157,3.018-4.541,4.526-7.559,3.369c-2.968-1.135-4.472-4.434-3.427-7.402c7.755-23.146,26.077-77.804,33.56-99.884
		c32.394-98.543,65.272-202.04,95.321-301.301c33.059-109.285,67.203-227.274,97.874-337.173
		c31.181-112.063,60.349-227.068,96.406-337.636c1.558-4.794,6.708-7.416,11.501-5.858
		C1973.15,802.595,1975.713,806.989,1974.964,811.381L1974.964,811.381z"/>
	<path style="fill:#3F92A3;" d="M1668.485,738.295c-3.966,94.566-12.016,189.458-20.88,283.663
		c-26.312,281.586-53.859,568.148-85.283,848.962c-0.371,3.287-3.337,5.651-6.623,5.28c-3.213-0.363-5.543-3.218-5.299-6.415
		c21.616-278.161,46.342-571.852,70.309-850.237c8.029-94.272,16.907-189.081,29.642-282.859
		C1652.098,725.798,1668.287,726.306,1668.485,738.295L1668.485,738.295z"/>
</g>
</svg>
