<?xml version="1.0" encoding="utf-8"?>
<!-- Generator: Adobe Illustrator 27.5.0, SVG Export Plug-In . SVG Version: 6.00 Build 0)  -->
<svg version="1.1" xmlns="http://www.w3.org/2000/svg" xmlns:xlink="http://www.w3.org/1999/xlink" x="0px" y="0px"
	 viewBox="0 0 4000 4000" style="enable-background:new 0 0 4000 4000;" xml:space="preserve">
<g id="Ñëîé_1">
	<rect style="fill:none;" width="4000" height="4000"/>
</g>
<g id="Ñëîé_2">
	<g>
		<g>
			<path style="fill:#F7931E;" d="M644.613,1187.562c186.799,198.324,691.56,542.668,939.855,517.135
				c52.13-5.361,94.129-57.334,93.688-109.737c-4.455-528.552,463.974-1198.101,565.076-1096.998
				c86.2,86.2-191.991,340.882-149.458,1174.546c4.048,79.339,89.617,93.632,169.049,94.945
				c338.219,5.592,779.36-106.695,1175.581,163.249c36.754,25.04,16.197,82.486-28.074,78.248
				c-285.107-27.292-760.683,48.489-982.963,134.126c-77.727,29.946-127.683,128.087-78.074,194.998
				c228.417,308.087,657.985,753.725,603.241,1007.24c-10.096,46.754-69.428,87.472-88.391,43.56
				c-135.056-312.748-547.445-420.498-883.549-866.439c-27.627-36.656-87.761-27.115-124.475,0.738
				c-408.094,309.592-709.95,1023.147-804.015,987.873c-140.961-52.861,70.527-850.246,415.327-1218.555
				c52.943-56.552,32.147-130.481-43.1-148.891c-349.458-85.5-855.64-530.451-881.591-928.61
				C538.566,1150.953,600.614,1140.848,644.613,1187.562z"/>
			<path style="fill:#F15A24;" d="M1678.156,1594.959c0.245,29.046-12.424,57.59-32.413,78.393
				c-9.977,10.384-21.925,18.96-35.211,24.58c-15.248,6.449-31.187,7.614-47.57,7.911c-31.557,0.57-62.723-3.55-93.516-10.166
				c241.893,66.838,345.989,220.668,325.036,186.873c-129.653-213.477-86.035-546.381,30.508-886.262
				C1739.662,1184.34,1676.507,1399.306,1678.156,1594.959z"/>
			<path style="fill:#F15A24;" d="M710.652,1621.258c184.052,252.838,483.003,465.902,713.679,522.341
				c65.989,16.145,90.096,74.987,59.323,127.364c69.521-68.058,116.016-104.834,245.316-157.73
				C1400.462,2137.266,1144.116,2073.624,710.652,1621.258z"/>
			<path style="fill:#F15A24;" d="M2262.823,1767.453c-72.725-1.203-150.582-13.296-166.32-76.219
				c8.613,57.608-12.055,145.079-47.025,215.6c119.489-120.035,769.727-178.563,1032.245-127.659
				C2792.141,1716.518,2501.792,1771.404,2262.823,1767.453z"/>
			<path style="fill:#F15A24;" d="M1779.757,2586.687c25.01-22.599,50.471-43.873,76.362-63.515
				c36.714-27.853,96.847-37.394,124.475-0.738c89.459,118.694,184.323,213.427,277.923,294.447
				c-217.557-218.762-307.679-387.746-341.114-507.428C1906.714,2384.004,1858.413,2485.629,1779.757,2586.687z"/>
			<path style="fill:#F15A24;" d="M2135.972,2155.843c85.459,39.782,148.383,102.861,201.186,160.875
				c-26.973-64.877,20.414-146.752,90.21-173.642c7.09-2.732,14.445-5.453,22.035-8.161
				C2351.724,2149.852,2226.313,2167.245,2135.972,2155.843z"/>
		</g>
		<g>
			<path style="fill:#FBB03B;" d="M578.004,1254.171c45.059,270.355,763.15,982.835,1336.101,783.637
				c-126.622-221.662-1012.851-421.205-1281.774-802.314C614.01,1209.53,572.78,1222.826,578.004,1254.171z"/>
			<path style="fill:#FCC275;" d="M1739.622,2071.494c-280.424-20.486-636.581-183.798-885.814-413.084
				C1082.729,1880.454,1420.381,2088.281,1739.622,2071.494z"/>
			<path style="fill:#FCC275;" d="M790.793,1395.741c225.565,212.874,732.503,391.057,986.479,521.704
				C1538.423,1770.41,1073.292,1616.673,790.793,1395.741z"/>
		</g>
		<g>
			<path style="fill:#FCC275;" d="M1914.105,2037.807c-256.664-319.396-65.187-1182.754,242.927-1490.869
				c35.264-35.264,63.481,19.581,49.591,45.059C1891.542,1169.93,2215.805,1755.698,1914.105,2037.807z"/>
			<path style="fill:#FBB03B;" d="M2175.521,535.898c-267.163,289.591-511.313,1193.562-287.865,1470.074
				c9.502,11.759,18.611,22.53,34.492,24.073c287.809-284.985-27.747-865.36,284.474-1438.048
				C2217.963,571.197,2201.235,530.831,2175.521,535.898z"/>
			<path style="fill:#FCC275;" d="M2054.676,1379.047c-21.076,242.491-14.769,503.502-123.417,641.648
				C2072.929,1870.561,2057.922,1642.859,2054.676,1379.047z"/>
		</g>
		<g>
			<path style="fill:#FBB03B;" d="M1914.105,2037.807c163.648-201.061,1014.555-336.501,1460.2-107.32
				c12.715,6.539,7.914,26.348-6.367,25.665C2658.56,1922.221,2265.49,2293.708,1914.105,2037.807z"/>
			<path style="fill:#FCC275;" d="M3218.958,1954.771c-182.293-10.251-487.76,19.916-769.555,105.566
				c-198.311,60.276-399.924,46.36-525.878-15.84C2247.076,2269.4,2607.893,1972.492,3218.958,1954.771z"/>
		</g>
		<g>
			<path style="fill:#FBB03B;" d="M1030.554,3391.54c82.339-727.328,722.174-1338.009,883.55-1353.733
				c56.814,295.823-636.705,1044.196-824.328,1395.754C1073.585,3463.9,1023.064,3457.705,1030.554,3391.54z"/>
			<path style="fill:#FCC275;" d="M1868.187,2262.81c-191.133,300.357-498.05,719.28-698.543,1039.571
				C1365.738,3006.673,1735.257,2567.742,1868.187,2262.81z"/>
		</g>
		<g>
			<path style="fill:#FBB03B;" d="M2913.182,3254.404c-252.049-544.713-717.701-1041.617-999.077-1216.596
				c11.755,598.503,614.175,745.435,973.669,1273.41C2896.76,3324.416,2936.751,3305.34,2913.182,3254.404z"/>
			<path style="fill:#FCC275;" d="M1932.838,2197.266c60.233,268.344,256.591,437.577,474.558,622.08
				C2184.459,2598.121,2019.137,2390.885,1932.838,2197.266z"/>
		</g>
		<g>
			
				<ellipse transform="matrix(0.9239 -0.3827 0.3827 0.9239 -631.1628 887.0253)" style="fill:#FFF4DE;" cx="1914.105" cy="2030.046" rx="13.904" ry="13.904"/>
			
				<ellipse transform="matrix(0.0812 -0.9967 0.9967 0.0812 433.3043 3162.5535)" style="fill:#FFF4DE;" cx="1932.054" cy="1346.248" rx="33.794" ry="24.978"/>
			
				<ellipse transform="matrix(0.1322 -0.9912 0.9912 0.1322 501.2452 2987.8958)" style="fill:#FFF4DE;" cx="1957.032" cy="1207.683" rx="29.289" ry="21.649"/>
			
				<ellipse transform="matrix(0.2223 -0.975 0.975 0.2223 495.0894 2768.4661)" style="fill:#FFF4DE;" cx="1982.888" cy="1073.899" rx="29.289" ry="21.649"/>
			<path style="fill:#FFF4DE;" d="M2030.206,968.926c-4.58,12.956-16.057,20.715-25.633,17.33
				c-9.576-3.385-13.626-16.633-9.046-29.589c4.58-12.956,16.057-20.715,25.633-17.329
				C2030.736,942.722,2034.786,955.97,2030.206,968.926z"/>
			
				<ellipse transform="matrix(0.4454 -0.8953 0.8953 0.4454 350.4658 2310.0078)" style="fill:#FFF4DE;" cx="2039.907" cy="872.102" rx="20.692" ry="15.294"/>
			<path style="fill:#FFF4DE;" d="M2078.997,797.016c-4.215,8.471-12.707,12.814-18.969,9.698
				c-6.261-3.115-7.921-12.508-3.706-20.979c4.215-8.471,12.707-12.814,18.969-9.698
				C2081.552,779.152,2083.211,788.545,2078.997,797.016z"/>
			<path style="fill:#FFF4DE;" d="M2114.933,711.796c-4.215,8.471-12.707,12.814-18.969,9.698
				c-6.261-3.115-7.921-12.508-3.706-20.979c4.215-8.471,12.707-12.814,18.969-9.698
				C2117.488,693.932,2119.148,703.324,2114.933,711.796z"/>
			
				<ellipse transform="matrix(0.4454 -0.8953 0.8953 0.4454 638.9064 2271.3787)" style="fill:#FFF4DE;" cx="2152.942" cy="619.955" rx="17.132" ry="12.663"/>
			<ellipse style="fill:#FFF4DE;" cx="1917.403" cy="1495.359" rx="24.978" ry="33.794"/>
			<ellipse style="fill:#FFF4DE;" cx="1914.105" cy="1647.098" rx="26.884" ry="36.373"/>
			<ellipse style="fill:#FFF4DE;" cx="1914.105" cy="1786.799" rx="17.949" ry="24.284"/>
			<ellipse style="fill:#FFF4DE;" cx="1914.105" cy="1882.549" rx="17.949" ry="24.284"/>
			<ellipse style="fill:#FFF4DE;" cx="1914.105" cy="1960.423" rx="11.755" ry="15.903"/>
			
				<ellipse transform="matrix(0.5346 -0.8451 0.8451 0.5346 -1533.6464 2450.804)" style="fill:#FFF4DE;" cx="1458.225" cy="2617.776" rx="33.794" ry="24.978"/>
			
				<ellipse transform="matrix(0.5757 -0.8177 0.8177 0.5757 -1654.328 2280.4788)" style="fill:#FFF4DE;" cx="1370.137" cy="2734.228" rx="29.289" ry="21.649"/>
			
				<ellipse transform="matrix(0.6294 -0.7771 0.7771 0.6294 -1742.8724 2073.3093)" style="fill:#FFF4DE;" cx="1302.189" cy="2863.855" rx="29.29" ry="21.649"/>
			
				<ellipse transform="matrix(0.5355 -0.8445 0.8445 0.5355 -1940.2988 2422.0757)" style="fill:#FFF4DE;" cx="1231.744" cy="2974.951" rx="24.882" ry="18.391"/>
			<path style="fill:#FFF4DE;" d="M1197.771,3077.573c4.901-10.323,2.689-21.629-4.941-25.252
				c-7.63-3.623-17.789,1.809-22.691,12.133c-4.901,10.323-2.689,21.629,4.941,25.252
				C1182.711,3093.328,1192.87,3087.896,1197.771,3077.573z"/>
			<path style="fill:#FFF4DE;" d="M1160.965,3163.022c4.058-8.547,2.226-17.908-4.091-20.908c-6.318-3-14.729,1.498-18.787,10.046
				c-4.058,8.547-2.227,17.908,4.091,20.907S1156.906,3171.57,1160.965,3163.022z"/>
			
				<ellipse transform="matrix(0.3235 -0.9462 0.9462 0.3235 -2312.8518 3251.7275)" style="fill:#FFF4DE;" cx="1117.76" cy="3243.421" rx="17.132" ry="12.663"/>
			
				<ellipse transform="matrix(0.3235 -0.9462 0.9462 0.3235 -2421.9539 3284.4526)" style="fill:#FFF4DE;" cx="1086.079" cy="3336.074" rx="17.132" ry="12.663"/>
			
				<ellipse transform="matrix(0.5757 -0.8177 0.8177 0.5757 -1387.5552 2333.0015)" style="fill:#FFF4DE;" cx="1554.146" cy="2503.455" rx="33.794" ry="24.978"/>
			
				<ellipse transform="matrix(0.5757 -0.8177 0.8177 0.5757 -1257.2775 2358.9175)" style="fill:#FFF4DE;" cx="1644.252" cy="2390.885" rx="38.138" ry="26.683"/>
			
				<ellipse transform="matrix(0.7071 -0.7071 0.7071 0.7071 -1104.0814 1892.9006)" style="fill:#FFF4DE;" cx="1732.889" cy="2279.192" rx="24.284" ry="17.949"/>
			<path style="fill:#FFF4DE;" d="M1823.373,2199.411c9.484-9.484,11.489-22.854,4.48-29.864c-7.01-7.01-20.38-5.004-29.864,4.479
				s-11.489,22.854-4.479,29.864C1800.519,2210.9,1813.889,2208.895,1823.373,2199.411z"/>
			<path style="fill:#FFF4DE;" d="M1887.696,2111.422c6.211-6.211,7.524-14.967,2.934-19.557c-4.59-4.591-13.346-3.277-19.557,2.934
				s-7.524,14.967-2.934,19.557C1872.729,2118.946,1881.485,2117.633,1887.696,2111.422z"/>
			
				<ellipse transform="matrix(0.9978 -0.0669 0.0669 0.9978 -122.2528 175.186)" style="fill:#FFF4DE;" cx="2554.728" cy="1913.055" rx="33.794" ry="24.978"/>
			
				<ellipse transform="matrix(0.9999 -0.0157 0.0157 0.9999 -29.2785 42.6579)" style="fill:#FFF4DE;" cx="2704.598" cy="1887.695" rx="29.29" ry="21.649"/>
			<ellipse style="fill:#FFF4DE;" cx="2831.785" cy="1874.713" rx="29.289" ry="21.649"/>
			
				<ellipse transform="matrix(0.0758 -0.9971 0.9971 0.0758 865.5499 4683.2827)" style="fill:#FFF4DE;" cx="2959.215" cy="1874.713" rx="18.391" ry="24.882"/>
			
				<ellipse transform="matrix(0.1375 -0.9905 0.9905 0.1375 783.9484 4657.7554)" style="fill:#FFF4DE;" cx="3066.343" cy="1878.754" rx="15.294" ry="20.692"/>
			
				<ellipse transform="matrix(0.1971 -0.9804 0.9804 0.1971 675.9924 4606.2432)" style="fill:#FFF4DE;" cx="3150.283" cy="1890.402" rx="12.663" ry="17.132"/>
			
				<ellipse transform="matrix(0.1971 -0.9804 0.9804 0.1971 728.5948 4705.4077)" style="fill:#FFF4DE;" cx="3237.142" cy="1907.867" rx="12.663" ry="17.132"/>
			
				<ellipse transform="matrix(0.3083 -0.9513 0.9513 0.3083 459.2363 4488.3335)" style="fill:#FFF4DE;" cx="3315.907" cy="1928.385" rx="12.663" ry="17.132"/>
			
				<ellipse transform="matrix(0.989 -0.1477 0.1477 0.989 -259.1578 378.1711)" style="fill:#FFF4DE;" cx="2416.269" cy="1933.736" rx="33.794" ry="24.978"/>
			
				<ellipse transform="matrix(0.9804 -0.197 0.197 0.9804 -341.5257 488.026)" style="fill:#FFF4DE;" cx="2281.916" cy="1960.423" rx="36.373" ry="26.884"/>
			
				<ellipse transform="matrix(0.9631 -0.269 0.269 0.9631 -456.9002 653.8452)" style="fill:#FFF4DE;" cx="2157.306" cy="1994.064" rx="24.284" ry="17.949"/>
			
				<ellipse transform="matrix(0.9804 -0.197 0.197 0.9804 -356.5873 444.7229)" style="fill:#FFF4DE;" cx="2056.735" cy="2014.45" rx="24.284" ry="17.949"/>
			
				<ellipse transform="matrix(0.989 -0.1477 0.1477 0.989 -278.188 314.5021)" style="fill:#FFF4DE;" cx="1978.171" cy="2030.046" rx="15.903" ry="11.755"/>
			
				<ellipse transform="matrix(0.7916 -0.6111 0.6111 0.7916 -1078.8739 1956.2598)" style="fill:#FFF4DE;" cx="2328.354" cy="2559.711" rx="24.978" ry="33.794"/>
			
				<ellipse transform="matrix(0.8323 -0.5544 0.5544 0.8323 -1066.1005 1795.448)" style="fill:#FFF4DE;" cx="2434.107" cy="2659.562" rx="21.649" ry="29.289"/>
			
				<ellipse transform="matrix(0.8323 -0.5544 0.5544 0.8323 -1106.1337 1858.2937)" style="fill:#FFF4DE;" cx="2517.954" cy="2757.146" rx="21.649" ry="29.289"/>
			
				<ellipse transform="matrix(0.8323 -0.5544 0.5544 0.8323 -1151.3171 1922.3608)" style="fill:#FFF4DE;" cx="2601.248" cy="2863.855" rx="18.391" ry="24.882"/>
			<path style="fill:#FFF4DE;" d="M2664.939,2979.327c-5.714-9.897-4.416-21.344,2.899-25.567
				c7.315-4.223,17.877,0.376,23.591,10.273c5.714,9.897,4.416,21.344-2.899,25.567S2670.653,2989.224,2664.939,2979.327z"/>
			<path style="fill:#FFF4DE;" d="M2734.753,3057.802c-5.526-7.681-5.404-17.218,0.273-21.302s14.759-1.169,20.285,6.511
				c5.526,7.681,5.404,17.218-0.273,21.303C2749.361,3068.398,2740.279,3065.483,2734.753,3057.802z"/>
			<path style="fill:#FFF4DE;" d="M2795.773,3143.215c-5.245-7.875-4.779-17.402,1.042-21.279s14.791-0.636,20.037,7.239
				c5.245,7.875,4.779,17.402-1.042,21.279C2809.989,3154.331,2801.018,3151.09,2795.773,3143.215z"/>
			
				<ellipse transform="matrix(0.8935 -0.4491 0.4491 0.8935 -1142.1666 1626.0769)" style="fill:#FFF4DE;" cx="2857.115" cy="3221.026" rx="12.663" ry="17.132"/>
			
				<ellipse transform="matrix(0.7641 -0.6451 0.6451 0.7641 -1067.8932 2018.5192)" style="fill:#FFF4DE;" cx="2226.229" cy="2469.525" rx="24.978" ry="33.794"/>
			
				<ellipse transform="matrix(0.7916 -0.6111 0.6111 0.7916 -996.1882 1801.2408)" style="fill:#FFF4DE;" cx="2142.445" cy="2360.988" rx="26.884" ry="36.373"/>
			
				<ellipse transform="matrix(0.8329 -0.5535 0.5535 0.8329 -908.6615 1522.1539)" style="fill:#FFF4DE;" cx="2066.043" cy="2265.634" rx="17.949" ry="24.284"/>
			
				<ellipse transform="matrix(0.8715 -0.4903 0.4903 0.8715 -811.6866 1258.306)" style="fill:#FFF4DE;" cx="1995.474" cy="2178.154" rx="17.949" ry="24.284"/>
			
				<ellipse transform="matrix(0.895 -0.4461 0.4461 0.895 -735.0699 1094.2126)" style="fill:#FFF4DE;" cx="1956.364" cy="2108.255" rx="11.755" ry="15.903"/>
			
				<ellipse transform="matrix(0.5 -0.866 0.866 0.5 -929.6519 2013.8564)" style="fill:#FFF4DE;" cx="1279.22" cy="1812.028" rx="24.978" ry="33.794"/>
			
				<ellipse transform="matrix(0.5 -0.866 0.866 0.5 -929.6526 1867.2374)" style="fill:#FFF4DE;" cx="1152.252" cy="1738.723" rx="21.649" ry="29.289"/>
			
				<ellipse transform="matrix(0.631 -0.7758 0.7758 0.631 -914.1142 1415.4663)" style="fill:#FFF4DE;" cx="1030.875" cy="1668.646" rx="21.649" ry="29.289"/>
			
				<ellipse transform="matrix(0.7003 -0.7139 0.7139 0.7003 -866.2252 1149.8734)" style="fill:#FFF4DE;" cx="936.301" cy="1606.546" rx="18.391" ry="24.882"/>
			
				<ellipse transform="matrix(0.7003 -0.7139 0.7139 0.7003 -838.8095 1068.6251)" style="fill:#FFF4DE;" cx="853.245" cy="1533.27" rx="15.294" ry="20.692"/>
			<path style="fill:#FFF4DE;" d="M782.316,1453.118c6.312,7.049,7.205,16.545,1.995,21.211s-14.551,2.733-20.862-4.316
				c-6.312-7.049-7.205-16.545-1.995-21.211C766.663,1444.136,776.004,1446.068,782.316,1453.118z"/>
			
				<ellipse transform="matrix(0.866 -0.5 0.5 0.866 -602.2053 540.1415)" style="fill:#FFF4DE;" cx="706.823" cy="1393.809" rx="12.663" ry="17.132"/>
			<path style="fill:#FFF4DE;" d="M651.963,1318.598c5.26,7.865,4.812,17.393-1.001,21.281c-5.813,3.888-14.79,0.664-20.05-7.201
				c-5.26-7.865-4.812-17.393,1.001-21.281C637.726,1307.51,646.703,1310.733,651.963,1318.598z"/>
			
				<ellipse transform="matrix(0.309 -0.9511 0.9511 0.309 -820.8242 2645.6257)" style="fill:#FFF4DE;" cx="1410.279" cy="1887.695" rx="24.978" ry="33.794"/>
			
				<ellipse transform="matrix(0.2223 -0.975 0.975 0.2223 -691.2455 3014.8435)" style="fill:#FFF4DE;" cx="1544.143" cy="1940.709" rx="26.884" ry="36.373"/>
			
				<ellipse transform="matrix(0.309 -0.9511 0.9511 0.309 -734.5418 2945.6179)" style="fill:#FFF4DE;" cx="1659.892" cy="1978.318" rx="17.949" ry="24.284"/>
			
				<ellipse transform="matrix(0.309 -0.9511 0.9511 0.309 -699.0727 3054.7751)" style="fill:#FFF4DE;" cx="1752.729" cy="2008.482" rx="17.949" ry="24.284"/>
			
				<ellipse transform="matrix(0.309 -0.9511 0.9511 0.309 -652.1039 3144.7617)" style="fill:#FFF4DE;" cx="1838.149" cy="2021.154" rx="11.755" ry="15.903"/>
		</g>
		<g>
			<path style="fill:#C6461E;" d="M1059.188,3515.647c-2.876,0-5.626-0.485-8.258-1.472c-18.958-7.11-32.306-26.68-39.672-58.168
				c-23.157-98.996,14.834-309.802,96.786-537.052c42.755-118.559,95.544-235.767,152.659-338.954
				c64.32-116.204,133.053-213.706,204.288-289.798c24.693-26.377,34.005-57.805,25.547-86.228
				c-8.308-27.922-32.729-48.744-67.001-57.13c-85.896-21.016-183.579-64.44-282.49-125.578
				c-98.484-60.875-195.714-137.762-281.178-222.35c-90.088-89.165-166.327-186.411-220.477-281.226
				c-60.126-105.278-93.767-207.049-99.987-302.485c-1.779-27.292,8.218-47.736,27.427-56.092
				c23.582-10.258,55.819,0.253,80.215,26.155c99.056,105.167,274.178,239.384,446.145,341.935
				c207.201,123.562,381.555,185.418,490.934,174.167c48.745-5.013,91.121-54.725,90.686-106.383
				c-0.92-109.141,18.096-230.017,56.521-359.271c33.342-112.157,81.703-230.392,139.853-341.923
				c105.872-203.059,236.729-368.734,318.22-402.893c24.074-10.092,42.981-8.513,56.189,4.696
				c33.708,33.708,14.787,90.06-19.56,192.361c-58.164,173.236-155.513,463.182-128.921,984.379
				c1.774,34.784,19.513,58.934,54.233,73.829c26.626,11.424,62.065,17.125,111.53,17.943c76.842,1.269,158.479-3.522,244.907-8.598
				c293.19-17.215,625.508-36.728,932.502,172.427c18.096,12.328,24.992,33.57,17.569,54.114
				c-7.385,20.435-26.172,32.301-47.844,30.225c-285.93-27.373-762.362,49.513-981.443,133.918
				c-42.656,16.434-78.352,55.066-90.938,98.421c-9.701,33.418-4.606,65.902,14.347,91.466
				c49.141,66.28,107.164,138.39,168.592,214.734c224.3,278.76,478.526,594.712,435.232,795.202
				c-6.9,31.951-36.096,62.24-62.479,64.82c-14.437,1.413-25.891-5.918-32.249-20.641
				c-68.669-159.015-211.135-266.067-376.097-390.024c-160.508-120.608-342.43-257.308-507.053-475.728
				c-9.041-11.996-22.624-19.559-39.282-21.872c-25.591-3.551-57.193,5.577-80.501,23.26
				c-233.161,176.883-431.656,486.029-576.591,711.758C1175.38,3402.946,1103.018,3515.639,1059.188,3515.647z M586.434,1161.882
				c-6,0-11.718,1.095-16.935,3.364c-16.47,7.164-25.007,25.215-23.422,49.526c11.869,182.092,124.98,387.857,318.497,579.392
				c173.051,171.279,387.843,303.93,560.553,346.187c36.64,8.964,62.818,31.459,71.821,61.717
				c9.152,30.76-0.716,64.549-27.075,92.706c-133.995,143.13-263.583,371.463-355.538,626.45
				c-81.545,226.117-119.448,435.436-96.565,533.26c6.825,29.177,18.772,47.153,35.509,53.43
				c37.686,14.108,119.306-112.99,222.644-273.933c145.205-226.15,344.071-535.875,578.177-713.475
				c24.654-18.702,58.2-28.338,85.462-24.556c18.457,2.564,33.569,11.026,43.703,24.471
				c164.053,217.666,345.575,354.066,505.73,474.408c165.723,124.528,308.847,232.074,378.218,392.718
				c5.184,12.004,13.965,17.763,25.46,16.636c23.379-2.286,50.354-30.681,56.594-59.575
				c18.969-87.849-19.431-207.156-117.396-364.74c-86.12-138.531-203.244-284.091-316.509-424.859
				c-61.472-76.398-119.535-148.558-168.754-214.944c-20.228-27.282-25.696-61.842-15.398-97.313
				c13.148-45.288,50.419-85.638,94.957-102.796c109.368-42.136,284.564-83.109,468.646-109.602
				c199.431-28.701,382.622-37.485,515.836-24.734c22.54,2.163,36.125-12.573,40.918-25.842c4.825-13.349,3.779-33.49-15.044-46.315
				c-305.112-207.87-636.216-188.429-928.346-171.277c-86.557,5.082-168.318,9.887-245.409,8.608
				c-71.892-1.188-167.972-12.652-172.333-98.117c-11.545-226.296-0.323-436.895,33.356-625.949
				c28.561-160.318,67.484-276.25,95.906-360.9c33.497-99.768,51.949-154.725,21.171-185.505
				c-11.103-11.102-27.546-12.198-48.877-3.257c-80.18,33.608-209.661,198.019-314.875,399.817
				c-74.057,142.04-197.948,421.603-195.617,698.046c0.219,26.062-9.954,53.284-27.912,74.686
				c-18.554,22.112-42.98,35.751-68.777,38.404c-59.021,6.071-135.339-8.173-226.845-42.334
				c-80.917-30.208-171.152-74.868-268.199-132.741c-172.454-102.841-348.143-237.513-447.588-343.093
				C625.291,1171.924,604.591,1161.882,586.434,1161.882z"/>
		</g>
	</g>
</g>
</svg>
