<?xml version="1.0" encoding="utf-8"?>
<!-- Generator: Adobe Illustrator 27.5.0, SVG Export Plug-In . SVG Version: 6.00 Build 0)  -->
<svg version="1.1" id="Ñëîé_1" xmlns="http://www.w3.org/2000/svg" xmlns:xlink="http://www.w3.org/1999/xlink" x="0px" y="0px"
	 viewBox="0 0 4000 4000" style="enable-background:new 0 0 4000 4000;" xml:space="preserve">
<g>
	<rect style="fill-rule:evenodd;clip-rule:evenodd;fill:#FFFFFF;" width="4000" height="4000"/>
	<g>
		<path style="fill-rule:evenodd;clip-rule:evenodd;fill:#F05C4B;" d="M2395.723,863.881c-1.975,10.516-3.814,21.539-5.542,32.998
			c1.205,2.639,2.514,5.524,3.939,8.702c3.002,6.697-1.306,12.373-7.86,19.81c-5.12,40.578-8.949,85.535-11.739,132.456
			c2.127,4.013,4.209,9.698,6.265,21.25c0.919,5.144-2.731,8.6-8.113,12.995c-2.437,50.395-3.802,102.293-4.391,152.831
			c1.889,4.947,3.213,10.793,3.406,17.615c0.336,12.144-1.131,19.319-3.728,23.386c-0.092,21.779-0.042,43.148,0.11,63.854
			c9.698,3.775,13.753,10.615,0.336,33.453c0.464,35.61,1.223,68.685,2.124,97.819c0.565,18.302,1.654,35.815,3.341,52.606
			c2.023,4.224,2.859,9.318,1.812,15.821c3.653,28.628,9.252,55.057,17.272,79.57c9.293,4.099,15.895,7.845,13.601,12.239
			c-1.981,3.784-3.567,7.663-4.799,11.578c10.751,25.855,24.674,49.432,42.417,71.122c9.666-5.81,20.012-5.322,15.856,17.826
			c9.249,9.573,19.379,18.757,30.407,27.593c0.634-0.759,1.282-1.559,1.931-2.437c4.941-6.578,7.979,1.502,13.241,13.955
			c22.086,15.889,47.468,30.621,76.578,44.425c3.079,0.886,6.149,1.737,9.225,2.591c7.22-2.228,15.044-5.391,23.552-9.639
			c16.832-8.41,26.263,11.147,37.181,24.683c10.204,2.216,20.384,4.275,30.544,6.188c3.805-3.002,7.979-7.396,12.593-13.509
			c4.123,0.051,7.952,8.669,13.828,18.198c24.668,4.09,49.232,7.396,73.781,10.079c1.163-0.803,2.344-1.636,3.549-2.514
			c11.915-8.711,23.133-2.169,34.726,6.215c19.724,1.669,39.466,3.002,59.249,4.082c2.463-2.707,4.968-5.87,7.533-9.579
			c11.436-16.538,27.887-0.042,44.026,11.873c11.647,0.414,23.335,0.767,35.048,1.071c1.19-1.812,2.335-3.93,3.433-6.417
			c10.475-23.731,25.956-6.256,51.734,7.631c47.757,0.887,96.323,1.535,146.194,3.103c4.302-1.684,8.981-3.531,14.083-5.557
			c14.048-5.572,23.594-0.143,32.668,7.33c23.951,1.062,48.23,2.41,72.886,4.174l0.446-0.339c0.042-0.033,3.508,0.363,8.761,1.005
			c49.03,3.686,99.595,9.047,152.096,17.008c35.723-3.439,28.58-12.319,38.017,6.191c27.542,4.858,51.371,10.659,71.714,17.27
			c19.504-2.258,41.658-3.38,37.895,15.154c67.683,33.462,72.609,80.35,34.887,128.99c-0.91,3.18-2.951,6.012-6.027,7.369
			c-12.852,14.937-29.577,29.981-49.637,44.796c-1.764,9.243-4.317,17.995-19.355,13.509c-4.798,3.189-9.713,6.358-14.797,9.514
			c-2.017,4.796-6.099,9.46-17.406,10.371c-21.015,12.102-44.121,23.841-68.932,35.048c-0.943,7.506-3.168,13.182-17.192,7.548
			c-18.891,8.08-38.692,15.83-59.225,23.181c-0.491,0.693-0.901,1.383-1.223,2.05c-12.033,25.391-12.016,13.224-32.534,9.446
			l-1.719,0.565c-34.932,11.224-71.58,19.709-109.317,26.438c-0.473,0.824-0.902,1.687-1.282,2.579
			c-5.227,12.254-10.127,7.143-19.706,0.97c-22.122,3.549-44.57,6.569-67.219,9.252c-0.354,2.097-2.707,5.498-10.912,11.906
			c-6.563,5.12-16.68-1.669-26.926-7.717c-12.566,1.309-25.183,2.541-37.806,3.737c-0.547,0.11-1.089,0.152-1.618,0.152
			c-24.692,2.335-49.452,4.537-74.109,6.831c-5.786,7.33-4.563,12.59-21.708,2.068c-25.272,2.445-50.401,5.075-75.212,8.145
			c-9.529,6.61-17.76,11.959-26.048,3.424c-28.824,4.004-57.125,8.761-84.634,14.663c-1.633,1.139-3.186,1.351-4.679,1.02
			c-4.992,1.098-9.96,2.234-14.893,3.415c-2.454,0.027-4.873,0.077-7.303,0.119c-2.966,7.161-7.958,14.446-22.836,0.667
			c-26.783,1.08-51.719,3.145-74.909,6.191c-1.247,0.809-2.573,0.892-4.082,0.556c-13.45,1.854-26.31,4.031-38.606,6.542
			c-3.439,8.594-8.871,17.54-31.647,7.565c-15.499,4.266-29.972,9.157-43.464,14.672c-3.254,2.895-9.413,6.366-20.518,10.888
			c-0.58,0.235-1.535,0.092-2.767-0.28c-9.038,4.581-17.573,9.496-25.626,14.741c3.314,11.831,6.941,10.921-7.529,5.078
			c-21.521,15.11-39.409,32.751-54.174,52.883c2.564,8.66-1.907,12.048-8.586,12.563c-11.703,18.308-21.158,38.481-28.646,60.489
			c5.397,7.836,0.524,15.214-6.815,22.476c-3.885,14.452-7.057,29.607-9.594,45.469c2.386,1.282,5.108,2.579,8.214,3.897
			c26.881,11.367,4.611,17.192-11.9,23.603c-0.693,6.256-1.306,12.608-1.839,19.057l0.051,0.027
			c9.722,4.105,6.122,10.002-1.356,18.543c-1.806,30.898-1.984,63.922-0.955,99.027c17.558,12.465,32.147,19.971,1.797,43.285
			c0.271,5.188,0.565,10.415,0.878,15.687c9.115,3.558,18.578,10.255,2.302,34.947c1.618,22.505,3.525,45.722,5.64,69.637
			c1.315,14.842,3.011,31.582,5.001,49.83c3.93,8.383,5.691,17.894,3.061,27.408c2.118,18.525,4.453,38.267,6.94,58.954
			c10.659,3.424,22.146,7.773,24.784,25.694c1.609,10.879-11.266,13.56-18.022,30.047c3.87,31.784,7.91,64.999,11.926,98.848
			c3.43,3.846,7.318,8.163,11.745,13.072c7.717,8.535,1.907,21.53-6.045,35.857c2.942,25.73,5.81,51.585,8.5,77.22
			c15.238,11.721,8.6,16.957,2.675,26.007c3.466,34.313,6.551,68.004,9.047,100.217c4.95,3.195,11.004,6.536,18.4,10.043
			c-18.721,39.492-3.531,21.158-15.844,25.695c1.586,24.371,2.74,47.614,3.374,69.328c5.792,3.204,9.166,8.752,2.984,21.782
			c12.447,8.5,7.051,15.178-2.52,20.979c-0.253,26.962-1.604,51.594-3.998,73.787c5.153,7.33,2.743,14.892-2.817,21.851
			c-23.213,153.688-104.087,167.468-220.654-12.498c-6.619,6.61-16.975,5.539-21.765-1.559c-14.419-21.378-10.6-36.877-9.942-50.657
			c-6.486-11.266-13.081-22.895-19.769-34.869c-6.468-4.251-14.967-8.669-26.123-13.384c-26.406-11.165-21.134-41.691-18.611-68.896
			c-8.678-16.335-17.397-32.948-26.117-49.729c-58.55-15.963-29.086-28.949-25.594-49.702
			c-13.949-27.349-27.762-54.798-41.221-81.843c-32.088,5.474-52.731-15.693-47.411-25.861c9.523-18.201,13.697-31.21,14.422-41
			c-4.849-9.918-9.63-19.718-14.312-29.357c-12.15-9.942-26.986-18.679-23.222-48.06c-16.918-35.205-32.165-67.376-45.067-94.817
			c-9.847-0.702-20.542,0.776-27.616-7.919c-16.166-19.885-8.383-39.677-3.356-58.684c-3.037-6.637-5.584-12.221-7.565-16.606
			c-14.884-33.007-29.312-63.086-43.422-90.476c-4.123,1.678-6.399,3.736-42.307-13.289c28.25-49.146-10.121-62.756-16.175-80.653
			c-16.225-47.983-95.46-31.064-89.852-65.178c5.995-36.496-19.557-16.57-10.525-41.616c-4.662-1.871-5.834-4.62-4.804-7.791
			c-53.162-31.362-110.034-32.296-178.576-12.025c-9.234,12.783-23.805,14.065-39.129,13.289
			c-21.949,8.342-45.088,18.436-69.62,30.038c-1.469,0.904-3.037,1.636-4.688,2.21c-21.387,10.213-43.836,21.53-67.48,33.807
			c-4.834,31.969-22.467,27.248-40.632,21.378c-22.904,12.167-46.843,25.028-71.99,38.531
			c-14.387,7.714-30.181,15.955-47.141,24.606c-7.396,16.124-12.295,26.977-61.745,30.889
			c-18.781,9.234-38.394,18.757-58.624,28.479c-17.136,19.521-36.812,42.762-38.151,44.544c-15.425,16.359-26.539,7.53-42.476,2.359
			c-7.86,1.401-15.366,1.948-22.559,2.008c-38.454,18.013-77.667,36.178-116.382,53.977c-6.932,9.017-13.67,10.653-20.063,9.219
			c-17.168,7.884-34.185,15.675-50.952,23.324c-11.703,19.801-19.536,18.308-33.04,15.071c-30.24,13.762-59.35,26.968-86.606,39.323
			c-5.641,10.278-11.317,16.832-24.546,11.123l-38.885,17.615c-2.202,0.997-4.335,1.916-6.5,2.877
			c-15.797,22.785-28.033,48.708-43.91,17.793c-236.207,85.788-220.207-94.062-119.021-203.679c0.057-1.351,0.051-2.523-0.036-3.457
			c-2.496-27.173,15.77-24.314,32.828-28.732c14.455-13.652,31.255-29.238,49.898-46.388c-0.405-7,1.687-18.671,11.698-39.772
			c13.432-28.333,34.524-22.068,54.67-20.914c15.11-13.777,30.865-28.122,47.081-42.913c0.387-1.544,0.768-3.121,1.128-4.772
			c-18.998-14.354,11.807-22.788,43.169-35.672c16.764-15.33,33.867-31.017,51.154-46.938c-0.06-1.255-0.178-2.529-0.414-3.835
			c-7.69-43.294,20.018-37.695,41.465-34.114c16.764-15.556,33.605-31.26,50.395-47.022c21.158-57.99-23.139-89.489,73.636-99.404
			c106.634-10.93,7.994-106.375,106.339-91.506c5.042,0.767,10.136,0.827,15.22,0.321c38.894-40.209,73.368-77.919,100.85-111.289
			c-8.425-75.129,58.068-30.079,49.619-91.372c-2.859-20.718,9.46-24.505,22.955-22.253c11.114-22.844,22.666-46.584,33.013-70.905
			c-6.643-9.091-17.698-10.153-11.745-28.098c1.407-4.251,15.136-14.58,31.638-25.349c11.385-36.74,17.585-74.251,13.343-111.506
			c-12.069,1.981-21.199-8.139-10.272-44.047c-4.156-11.528-9.538-22.978-16.3-34.346c-11.233-4.326-22.458-9.124-19.167-27.331
			c-3.07-3.778-6.31-7.547-9.731-11.302c-21.539-23.621-43.651-46.314-66.243-68.263c-13.137-4.233-19.209-12.516-22.624-21.589
			c-14.967-14.042-30.13-27.777-45.469-41.277c-24.219,0.318-47.007,3.531-42.324-27.408c0.47-3.079,0.663-5.861,0.622-8.383
			c-10.118-8.482-20.307-16.874-30.544-25.198c-12.498-1.499-24.615-1.964-26.986-10.609c-1.357-4.956-2.621-9.654-3.879-14.149
			c-35.559-28.158-71.687-55.599-108.118-82.855c-18.18-1.889-32.525-6.114-31.302-23.332c-21.065-15.66-42.205-31.311-63.363-47.04
			c-18.983-0.015-37.359,1.392-38.43-27.17c-0.024-0.538-0.065-1.053-0.101-1.586c-14.143-10.618-28.292-21.292-42.417-32.07
			c-10.692-8.163-21.167-16.63-31.388-25.308c-16.148-4.343-29.386-9.276-32.448-20.61c-1.139-4.239-2.05-7.925-2.799-11.165
			c-12.474-11.956-24.38-24.159-35.64-36.464c-2.032-0.91-4.206-1.904-6.536-3.002c-2.68-1.264-4.796-5.48-6.533-11.671
			c-104.712-120.892-141.455-245.961-6.259-236.189v-0.015c29.55,1.6,21.538-29.398,59.216,10.356
			c10.07,2.561,20.753,5.631,31.986,9.157c5.944-1.291,12.328-1.038,20.027,6.595c5.768,1.981,11.671,4.088,17.742,6.331
			c9.639,3.561,19.263,7.211,28.875,10.93c7.75-1.425,15.196-0.625,21.074,8.273c14.58,5.81,29.136,11.763,43.675,17.853
			c12.034-4.174,22.497-6.78,23.585,5.12c0.17,1.836,0.693,3.674,1.502,5.507c26.066,11.165,52.097,22.666,78.131,34.313
			c14.006-12.75,19.337,2.648,27.708,12.453l14.741,6.646c2.532-0.479,5.346-1.678,8.526-3.82
			c7.625-5.144,18.275,6.646,31.448,21.866c31.469,14.193,62.991,28.295,94.633,41.997c5.161,0.271,8.729,2.21,11.57,4.992
			c17.32,7.428,34.676,14.732,52.082,21.833c61.998-18.459,49.687,6.601,64.621,25.332c14.907,5.566,29.859,10.948,44.853,16.106
			c16.133-3.136,34.078-22.803,57.52,18.578c19.465,5.843,39.019,11.266,58.692,16.175c4.775-1.467,9.026-4.09,12.346-8.282
			c0.187,0.027,9.538,7.583,22.913,16.496c29.946,6.468,60.168,11.68,90.697,15.398c0.455-0.836,0.884-1.705,1.282-2.63
			c6.872-16.109,18.745-5.474,36.226,6.39c12.304,0.979,24.659,1.719,37.071,2.178c13.964,0.497,27.679,0.866,41.146,0.8
			c0.64-2.758,2.427-5.745,6.988-8.821c13.848-9.344,11.513,23.695,31.531-10.499c7.524-12.852,19.034,4.831,40.825,11.224
			c16.636-3.957,32.929-9.689,48.902-17.879c-3.98-7.125-6.435-12.304-6.444-12.388c-2.716-29.633,27.721-18.712,45.21-13.087
			c20.584-16.808,40.679-38.894,60.388-67.843c-2.151-29.609,11.584-36.827,24.463-38.234c18.983-30.19,38.261-61.325,57.571-93.193
			c1.163-5.12,3.415-9.413,7.574-12.548c6.72-11.147,13.441-22.38,20.152-33.697c-3.954-12.516-13.872-21.97-2.436-19.185
			c5.87-7.051,12.263-8.526,18.394-7.91c8.987-15.365,17.945-30.847,26.831-46.433c-0.547-3.439,1.232-7.613,8.13-14.318
			c11.79-20.845,23.443-41.851,34.896-62.95c-2.38-25.956-9.523-52.808,23.975-67.177c6.28-2.698,11.519-5.492,15.904-8.342
			c7.074-13.804,14.033-27.625,20.854-41.438c-1.324-15.541-6.256-29.422,10.186-37.526c3.728-1.839,7.271-3.713,10.668-5.608
			c23.924-50.583,45.79-100.934,64.732-150.291c-0.33-9.413,0.91-16.368,6.449-19.828c0.455-0.286,0.896-0.565,1.333-0.851
			c1.047-2.832,2.082-5.676,3.112-8.508c3.263-8.981,6.485-17.725,9.68-26.301c-4.132-6.259-8.154-11.022,0.556-15.062
			c2.234-1.038,4.302-2.014,6.215-2.96c13.417-35.333,26.319-67.141,38.692-95.638c-2.083-15.068-3.255-28.714,4.064-29.734
			c3.484-0.479,7.092-1.609,10.692-3.237c10.82-23.386,21.202-44.103,31.177-62.405c-12.429-19.072,1.291-24.377,15.972-27.81
			c13.146-21.607,25.519-38.692,37.121-51.695c-2.707-12.682-1.351,0.533,6.012-6.408c0.312-0.321,0.634-0.658,0.946-0.97
			l0.446-0.506l-0.253,0.312c37.963-38.082,67.421-31.142,89.168,4.141c9.184,0.97,14.64,6.509,12.75,25.87
			c4.546,11.403,8.618,24.338,12.272,38.472c18.822,18.257,13.643,26.522,7.764,35.167c2.413,12.926,4.522,26.596,6.369,40.78
			c2.041,2.312,4.358,4.757,7.006,7.354c-1.021,4.198-2.597,8.981-4.445,14.14c4.159,38.808,6.393,81.076,6.839,124.394
			c0.515,0.776,1.047,1.544,1.612,2.285c9.612,12.7,5.801,18.156-1.571,22.586c-0.125,24.278-0.809,48.732-2.014,72.96
			c0.901,1.181,1.812,2.362,2.776,3.585c13.5,17.127,6.28,24.808-5.17,35.098c-3.222,43.479-8.172,85.398-14.708,123.347
			c3.594,3.135,6.411,5.828,8.113,26.986C2404.981,859.059,2399.953,861.983,2395.723,863.881z"/>
		<path style="fill-rule:evenodd;clip-rule:evenodd;fill:#F38378;" d="M675.836,2692.905l4.671-4.302
			c-0.06-1.255-0.178-2.529-0.414-3.835c-7.69-43.294,20.012-37.686,41.465-34.114c16.764-15.55,33.614-31.252,50.395-47.013
			c21.158-57.999-23.139-89.498,73.636-99.413c106.634-10.93,7.985-106.381,106.33-91.497c5.042,0.759,10.136,0.818,15.229,0.303
			c38.894-40.2,73.359-77.91,100.859-111.28c-8.434-75.129,58.059-30.088,49.61-91.372c-2.85-20.718,9.46-24.505,22.946-22.253
			c9.225-18.95,18.754-38.496,27.625-58.499c3.079,11.216,4.471,24.04,4.174,37.552c-1.693,76.864-23.526,82.617-41.378,129.764
			c-29.868,78.874-29.523,48.125-71.14,100.8c-41.625,52.68-139.724,103.453-153.185,130.608
			c-13.72,27.694-55.682,70.818-84.304,76.503C730.176,2623.157,709.998,2678.182,675.836,2692.905L675.836,2692.905z
			 M1293.528,1354.659l7.25,1.83c4.775-1.458,9.032-4.09,12.346-8.282c0.187,0.027,9.538,7.583,22.913,16.496
			c29.946,6.476,60.168,11.68,90.697,15.389c0.455-0.827,0.884-1.696,1.273-2.621c6.881-16.109,18.754-5.474,36.244,6.399
			c12.304,0.979,24.641,1.719,37.062,2.169c13.964,0.506,27.679,0.86,41.146,0.8c0.649-2.758,2.427-5.745,6.982-8.83
			c13.854-9.335,11.528,23.704,31.537-10.499c7.524-12.843,19.034,4.831,40.825,11.233c16.636-3.957,32.929-9.689,48.902-17.879
			c-3.98-7.125-6.435-12.295-6.444-12.388c-2.716-29.633,27.721-18.712,45.219-13.087c20.575-16.808,40.67-38.894,60.379-67.852
			c-2.035-27.854,10.025-35.89,22.187-37.916c-1.856,10.097-3.823,21.488-6.048,34.854c-10.93,65.716-32.451,141.833-97.831,166.575
			c-78.678,29.785-78.122,22.16-161.598,16.41c-72.859-5.019-48.268-9.216-98.301-29.455
			C1359.143,1390.042,1323.009,1374.088,1293.528,1354.659z"/>
		<path style="fill-rule:evenodd;clip-rule:evenodd;fill:#ED2435;" d="M2440.204,3710.358
			c-26.066,139.866-105.426,147.128-218.217-27.003c-6.619,6.61-16.975,5.539-21.765-1.559c-14.419-21.378-10.6-36.877-9.942-50.657
			c-6.486-11.266-13.081-22.895-19.769-34.869c-6.468-4.251-14.967-8.669-26.123-13.384c-26.406-11.165-21.134-41.691-18.611-68.896
			c-8.678-16.335-17.397-32.948-26.117-49.729c-58.55-15.963-29.086-28.949-25.594-49.702
			c-13.949-27.349-27.762-54.798-41.221-81.843c-32.088,5.474-52.731-15.693-47.411-25.861c9.523-18.201,13.697-31.21,14.422-41
			c-4.849-9.918-9.63-19.718-14.312-29.357c-12.15-9.942-26.986-18.679-23.222-48.06c-16.918-35.205-32.165-67.376-45.067-94.817
			c-9.847-0.702-20.542,0.776-27.616-7.919c-16.166-19.885-8.383-39.677-3.356-58.684c-3.037-6.637-5.584-12.221-7.565-16.606
			c-14.884-33.007-29.312-63.086-43.422-90.476c-4.123,1.678-6.399,3.736-42.307-13.289c28.25-49.146-10.121-62.756-16.175-80.653
			c-16.225-47.983-95.46-31.064-89.852-65.178c5.995-36.496-19.557-16.57-10.525-41.616c-4.662-1.871-5.834-4.62-4.804-7.791
			c-53.162-31.362-110.034-32.296-178.576-12.025c-9.234,12.783-23.805,14.065-39.129,13.289
			c-21.949,8.342-45.088,18.436-69.62,30.038c-1.469,0.904-3.037,1.636-4.688,2.21c-21.387,10.213-43.836,21.53-67.48,33.807
			c-4.834,31.969-22.467,27.248-40.632,21.378c-22.904,12.167-46.843,25.028-71.99,38.531
			c-14.387,7.714-30.181,15.955-47.141,24.606c-7.396,16.124-12.295,26.977-61.745,30.889
			c-18.781,9.234-38.394,18.757-58.624,28.479c-17.136,19.521-36.812,42.762-38.151,44.544c-15.425,16.359-26.539,7.53-42.476,2.359
			c-7.86,1.401-15.366,1.948-22.559,2.008c-38.454,18.013-77.667,36.178-116.382,53.977c-6.932,9.017-13.67,10.653-20.063,9.219
			c-17.168,7.884-34.185,15.675-50.952,23.324c-11.703,19.801-19.536,18.308-33.04,15.071c-30.24,13.762-59.35,26.968-86.606,39.323
			c-5.641,10.278-11.317,16.832-24.546,11.123l-38.885,17.615c-2.202,0.997-4.335,1.916-6.5,2.877
			c-15.797,22.785-28.033,48.708-43.91,17.793c-190.946,69.352-217.063-34.896-166.608-135.297
			c17.716,37.865,64.157,66.216,104.093,56.55c75.224-18.189,50.178-49.839,88.808-89.92
			c26.319-27.304,100.782-88.147,110.995-104.381c27.869-44.342,128.315-56.449,192.597-124.587
			c13.61-14.419,82.272-33.774,110.816-74.016c35.19-49.61,93.133-31.487,163.237-111.75
			c13.298-15.214,101.835-78.199,123.954-82.611c8.113-1.627,46.406-28.411,52.606-36.253
			c50.848,12.379,71.407-30.686,110.739-60.421c34.399-26.007,85.416-24.379,115.219-94.213
			c2.395-5.608,56.771-36.782,63.179-42.586c44.246,15.062,35.411,2.344,99.467,29.458c1.348,0.574,42.628,0.176,42.949,0.065
			c5.048,8.181,20.28-20.601,20.887-21.452c49.339,0.877,136.368,70.812,165.115,104.679c23.377,27.548,3.299,42.744,52.514,88.18
			c3.894,3.603,6.643,7.44,8.693,11.573c-4.174-48.616,25.671-108.508,24.903-120.752c-4.513-72.615,77.717-131.739,78.509-208.983
			c26.53-18.326,159.644-18.763,196.581-20.804c84.009-4.647,98.884,23.511,150.189-23.029
			c64.217-58.246,197.009,36.699,253.256-20.628c50.731-51.684,191.122,16.267,221.388-18.855
			c78.857-91.506,176.896,30.181,267.491-2.133c87.145-31.085,168.884,34.7,189.352,16.13
			c39.213-35.577,202.474,3.888,227.764-21.461c26.429-26.48,53.439-40.09,77.759-51.618c3.93,21.354-4.344,44.425-22.55,67.903
			c-0.91,3.18-2.951,6.012-6.027,7.369c-12.852,14.937-29.577,29.981-49.637,44.796c-1.764,9.243-4.317,17.995-19.355,13.509
			c-4.798,3.189-9.713,6.358-14.797,9.514c-2.017,4.796-6.099,9.46-17.406,10.371c-21.015,12.102-44.121,23.841-68.932,35.048
			c-0.943,7.506-3.168,13.182-17.192,7.548c-18.891,8.08-38.692,15.83-59.225,23.181c-0.491,0.693-0.901,1.383-1.223,2.05
			c-12.033,25.391-12.016,13.224-32.534,9.446l-1.719,0.565c-34.932,11.224-71.58,19.709-109.317,26.438
			c-0.473,0.824-0.902,1.687-1.282,2.579c-5.227,12.254-10.127,7.143-19.706,0.97c-22.122,3.549-44.57,6.569-67.219,9.252
			c-0.354,2.097-2.707,5.498-10.912,11.906c-6.563,5.12-16.68-1.669-26.926-7.717c-12.566,1.309-25.183,2.541-37.806,3.737
			c-0.547,0.11-1.089,0.152-1.618,0.152c-24.692,2.335-49.452,4.537-74.109,6.831c-5.786,7.33-4.563,12.59-21.708,2.068
			c-25.272,2.445-50.401,5.075-75.212,8.145c-9.529,6.61-17.76,11.959-26.048,3.424c-28.824,4.004-57.125,8.761-84.634,14.663
			c-1.633,1.139-3.186,1.351-4.679,1.02c-4.992,1.098-9.96,2.234-14.893,3.415c-2.454,0.027-4.873,0.077-7.303,0.119
			c-2.966,7.161-7.958,14.446-22.836,0.667c-26.783,1.08-51.719,3.145-74.909,6.191c-1.247,0.809-2.573,0.892-4.082,0.556
			c-13.45,1.854-26.31,4.031-38.606,6.542c-3.439,8.594-8.871,17.54-31.647,7.565c-15.499,4.266-29.972,9.157-43.464,14.672
			c-3.254,2.895-9.413,6.366-20.518,10.888c-0.58,0.235-1.535,0.092-2.767-0.28c-9.038,4.581-17.573,9.496-25.626,14.741
			c0.313,1.122,0.634,2.133,0.937,3.037c-0.196,0.101-0.405,0.185-0.592,0.295c-1.729,1.002-3.448,1.948-5.162,2.868
			c-0.824-0.348-1.728-0.726-2.713-1.122c-3.359,2.353-6.628,4.772-9.809,7.253c-118.786,52.014-188.087-89.676-256.183-69.387
			c-103.135,30.737-64.773,21.107-113.446,85.958c-27.61,36.782-24.076-1.99-62.405,71.24
			c-32.635,62.352-15.348,68.313-53.144,41.86c-8.803-6.155-15.008-13.848-19.209-22.517c3.516,20.265,8.853,45.978,38.817,79.937
			c9.1,10.305,44.802,105.64,70.289,124.771c2.764,2.076,2.969,5.465,2.63,8.511c10.998,54.331-18.317,69.343,4.266,121.324
			c1.199,2.764,1.384,57.925,21.869,95.938c2.799,5.203-2.041,27.197,17.65,46.079c-1.856,15.229,14.631,83.417,26.673,94.835
			c14.741,13.973,12.774,61.334,37.282,82.947c14.232,12.557,8.776,80.802,48.024,110.436
			c-23.552,124.126,9.639,62.42,37.957,170.927c12.016,46.043-2.904,29.96,19.792,83.114c16.755,39.272-23.092,93.074,21.604,123.98
			c0.708,0.482,16.148,108.463,69.723,109.373C2400.503,3754.384,2411.531,3713.214,2440.204,3710.358L2440.204,3710.358z
			 M2395.723,863.881c4.23-1.898,9.258-4.822,15.009-9.621c-1.702-21.158-4.519-23.85-8.113-26.986
			c6.536-37.948,11.486-79.868,14.708-123.347c11.45-10.29,18.671-17.972,5.17-35.098c-0.964-1.223-1.874-2.404-2.776-3.585
			c1.205-24.228,1.889-48.682,2.014-72.96c7.372-4.43,11.183-9.886,1.571-22.586c-0.565-0.741-1.098-1.508-1.612-2.285
			c-0.446-43.318-2.68-85.586-6.839-124.394c1.847-5.159,3.424-9.942,4.445-14.14c-2.648-2.597-4.965-5.042-7.006-7.354
			c-1.847-14.184-3.957-27.854-6.369-40.78c5.879-8.645,11.058-16.909-7.764-35.167c-3.653-14.134-7.726-27.069-12.272-38.472
			c1.889-19.361-3.567-24.9-12.75-25.87c-15.053-24.415-33.789-35.25-56.482-27.003c-0.657,8.678-1.181,18.082-1.594,28.25
			c-4.284,106.693,15.535,201.328-46.355,307.37c-1.425,2.437-21.958,81.918-34.152,107.639
			c-52.781,111.304-25.891,327.921-72.996,370.65c-30.419,27.593-45.487,232.982-90.087,317.514
			c-16.606,31.472,25.897,40.174-28.851,143.924c-17.963,34.033,39.51,39.415-34.902,180.453
			c-36.854,69.833,53.715,398.641,182.274,231.813c57.776-74.959,8.874-92.172,105.42-153.123
			c62.952-39.745-8.146-96.441,114.925-108.743c1.384-0.137,2.698-0.354,4.049-0.541c-4.632-8.583-8.821-17.439-12.626-26.578
			c1.232-3.915,2.817-7.794,4.799-11.578c2.294-4.394-4.308-8.139-13.601-12.239c-8.021-24.513-13.619-50.943-17.272-79.57
			c1.047-6.503,0.211-11.596-1.812-15.821c-1.687-16.791-2.776-34.304-3.341-52.606c-0.902-29.134-1.66-62.209-2.124-97.819
			c13.417-22.839,9.362-29.678-0.336-33.453c-0.152-20.706-0.202-42.075-0.11-63.854c2.597-4.067,4.064-11.242,3.728-23.386
			c-0.193-6.821-1.517-12.667-3.406-17.615c0.589-50.538,1.954-102.436,4.391-152.831c5.382-4.394,9.032-7.851,8.113-12.995
			c-2.056-11.552-4.138-17.237-6.265-21.25c2.791-46.921,6.619-91.878,11.739-132.456c6.554-7.437,10.861-13.113,7.86-19.81
			c-1.425-3.177-2.734-6.063-3.939-8.702C2391.909,885.42,2393.747,874.398,2395.723,863.881L2395.723,863.881z M1199.475,2042.335
			c-1.779,7.175-3.796,14.327-5.997,21.443c-16.502,10.769-30.231,21.098-31.638,25.349c-5.953,17.945,5.102,19.007,11.745,28.098
			c-1.145,2.689-2.3,5.373-3.472,8.053c0.708-0.024,1.425-0.033,2.148-0.042c2.303-2.657,4.462-5.944,6.402-10.043
			c17.499-36.895,22.238-62.807,58.532-83.072c8.687-4.849,22.476-34.515,33.319-33.328c58.288,6.411,127.354-40.257,178.835-25.162
			c42.512,12.462,59.52-71.857,146.144-40.066c-2.353-8.229-5.298-17.017-10.948-27.188c-35.3-63.533-40.679-40.551-90.021-87.356
			c-24.942-23.663-47.643-23.181-86.603-41.649c-27.729-13.155-70.72-40.67-82.12-70.625c-9.395-24.683-41.497-37.594-68.069-60.007
			c-29.532-24.93-78.351-38.844-116.225-56.797c-63.818-30.255-97.382-66.055-154.203-91.217
			c-43.05-19.075-118.685-90.274-119.241-90.494c-22.877-8.83-58.928-57.443-60.826-58.261
			c-35.08-14.97-88.055-77.051-102.097-74.986c-19.801,2.927-107.942-57.452-116.07-69.774
			c-23.3-35.333-59.091-45.537-97.155-63.592c-33.099-15.693-49.458-43.901-52.395-67.338
			c-44.568,35.681-4.275,129.951,75.307,221.82c1.737,6.191,3.852,10.406,6.533,11.671c2.329,1.098,4.504,2.091,6.536,3.002
			c11.26,12.304,23.166,24.507,35.64,36.464c0.75,3.24,1.66,6.926,2.799,11.165c3.061,11.334,16.3,16.267,32.448,20.61
			c10.222,8.678,20.697,17.145,31.388,25.308c14.125,10.778,28.274,21.452,42.417,32.07c0.036,0.532,0.077,1.047,0.101,1.586
			c1.071,28.562,19.447,27.155,38.43,27.17c21.158,15.728,42.298,31.38,63.363,47.04c-1.223,17.219,13.122,21.443,31.302,23.332
			c36.431,27.256,72.559,54.697,108.118,82.855c1.258,4.495,2.523,9.192,3.879,14.149c2.371,8.645,14.488,9.109,26.986,10.609
			c10.237,8.324,20.426,16.716,30.544,25.198c0.042,2.523-0.152,5.304-0.622,8.383c-4.683,30.939,18.105,27.726,42.324,27.408
			c15.339,13.5,30.502,27.235,45.469,41.277c3.415,9.073,9.487,17.356,22.624,21.589c4.688,2.817,64.967,66.011,75.974,79.564
			c-3.29,18.207,7.934,23.005,19.167,27.331c6.762,11.367,12.144,22.818,16.3,34.346c0,0.018-15.955,47.899,10.272,44.047
			C1210.194,1982.967,1206.886,2012.431,1199.475,2042.335z"/>
		<path style="fill-rule:evenodd;clip-rule:evenodd;fill:#ED3035;" d="M1678.799,1973.977c6.628-0.666,29.413-44.038,71.723-59.814
			c39.287-14.649,112.664-75.001,149.606-37.46c23.722,24.103,99.035,21.571,148.351,75.013
			c46.028,49.872,59.68,41.209,51.24,116.516c-2.799,25.004,33.495,54.578-10.971,141.241
			c-24.963,48.667-77.304,39.778-105.631,78.318c-20.408,27.777-116.037,43.125-150.115,32.989
			c-62.958-18.73-99.818,25.061-130.228-56.247c-21.006-56.146-86.731-65.829-80.543-155.765
			c6.545-94.87,7.431-72.556,52.418-136.502C1676.455,1969.702,1675.991,1974.271,1678.799,1973.977z"/>
		<path style="fill-rule:evenodd;clip-rule:evenodd;fill:#D32C23;" d="M1878.694,1844.692
			c24.276-33.605,20.658-112.678,111.852-91.943c131.766,29.961,46.492,122.1,80.814,180.935
			c14.512,24.876,11.915,30.663,34.23,57.892c42.78,52.198,40.197,22.702,78.964,33.875c39.501,11.382,79.017,35.063,80.746,80.448
			c2.413,63.577-25.745,111.06-92.398,108.421c-45.436-1.797-53.245,25.29-90.545,43.919
			c-27.786,13.872-55.253,20.947-62.825,55.479c1.99,1.502,25.635,50.074,21.916,62.985c-2.874,9.978,4.302,49.072-21.604,75.028
			c-28.125,28.176-43.589,29.095-82.052,27.119c-34.239-1.761-83.048-56.771-87.654-89.783
			c-3.067-21.994-120.961-76.554-136.856-70.178c-1.011,0.405-86.606,37.374-113.565,38.478
			c-37.35,1.526-95.353-60.287-82.313-99.592c15.127-45.588,38.68-56.458,72.996-79.124c25.162-16.621,23.939-56.333,20.161-89.037
			c-8.247-71.407-1.972-51.802-37.053-86.621c-20.39-20.247-45.867-70.027-33.278-96.581c65.288-137.692,147.372-4.9,177-9.014
			C1759.89,1865.877,1844.244,1861.768,1878.694,1844.692L1878.694,1844.692z M2024.995,2492.43
			c-3.971,0.952-0.717,5.432-11.757,5.524c-118.456,0.919-75.911,112.958-7.866,139.343c15.532,6.012,28.857,68.206,31.454,87.046
			c2.335,16.865-35.53,112.857,0.741,126.28c59.942,22.172,47.825,112.378,56.94,124.894c45.873,62.991,24.21,33.114,21.494,82.043
			c-5.691,102.703,92.434,94.624,74.43,144.007c-21.985,60.32,19.084,108.49,16.285,122.579
			c-14.194,71.502,55.691,106.348,50.235,133.872c-11.715,59.005,19.251,60.373,16.359,67.269
			c-64.25,11.941-11.917,60.599-6.316,70.188c1.913,3.281-11.477,71.815,22.96,82.938c46.341,14.943,68.435,44.323,90.108-7.345
			c6.973-16.63-16.124-77.786-26.355-85.181c-60.683-43.875,16.478-104.896-34.575-130.802
			c-78.857-40.007,19.355-115.927-18.424-139.866c-71.351-45.219,22.952-103.102-46.23-128.696
			c-35.149-13.003-53.237-65.362-46.213-90.283c26.816-95.18-54.974-77.893-46.195-96.724c19.531-41.869-48.691-56.83-32.718-91.066
			c38.436-82.415,5.581-54.215,18.897-121.282c19.867-100.074-58.407-95.436-96.852-167.411
			C2031.647,2582.796,2094.421,2475.758,2024.995,2492.43L2024.995,2492.43z M2303.693,2062.683
			c29.657-45.279,82.186,12.007,165.79-5.322c36.363-7.538,42.081,15.981,85.999-43.285c19.7-26.59,99.086-17.406,125.144,14.782
			c17.067,21.098,120.244,32.492,145.745-9.326c27.229-44.663,107.038-31.826,147.542,0.869
			c76.444,61.703,105.824-93.731,185.297,1.981c19.783,23.823,92.785,18.51,123.802,2.008c60.954-32.427,49.14,43.782,152.712,6.247
			c82.153-29.785-18.073-31.826,102.115-55.438c46.228-9.083,34.843,152.415-49.467,123.088
			c-60.406-21.024-181.132,2.056-185.6,0.916c-52.808-13.423-63.164-38.198-108.642-39.953
			c-46.287-1.797-38.032,89.617-155.78,17.582c-115.201-70.464-75.626,77.491-157.787,50.065
			c-17.397-5.801-63.491-79.386-87.139-33.316c-2.984,5.81-45.249-26.167-87.778,15.22
			c-140.667,136.924-162.527-28.586-236.516-7.208c-26.798,7.741-61.781-7.488-92.315,40.798
			c-14.815,23.442-80.677,33.62-92.509-19.878C2278.183,2094.813,2280.917,2102.815,2303.693,2062.683L2303.693,2062.683z
			 M2303.491,385.03c-10.54-1.056-74.84,24.38-27.096,62.521c38.219,30.535-24.742,160.941-29.285,163.404
			c-63.56,34.515-13.453,53.944-27.334,88.68c-18.938,47.385-16.975,119.324-63.432,147.161
			c-43.294,25.932,40.218,109.906-0.455,160.789c-22.895-3.153-65.684,45.302-36.119,66.451
			c26.92,19.245,18.772,90.054,10.617,93.419c-61.929,25.587-28.764,24.677-20.988,66.85c-6.131,5.227-23.63,45.502-22.026,53.65
			c13.28,67.79-57.943,56.661-75.215,73.374c-59.106,57.226,31.894,112.191,21.11,160.765
			c-10.145,45.731,0.521,81.248-40.995,102.373c-84.607,43.077,51.678,141.556,59.1,113.895
			c34.792,0.28,37.981-47.343,40.983-60.876c7.928-35.696-7.842-23.773-5.507-40.739c-54.551-33.066-10.87-65.627-5.852-101.287
			c14.756-104.863,54.156-39.189,76.054-123.576c7.717-29.72-21.815-95.992-18.263-104.854c26.435-66.148-2.187-23.562,6.78-56.899
			c11.787-43.874,26.141-44.701,26.706-45.984c24.835-56.458-25.483-12.161,4.528-96.769c8.13-22.928,79.877-44.936,58.255-83.417
			c-70.583-125.682-3.249-51.71,8.071-131.299c9.208-64.749-42.94-53.65-12.507-104.215c25.617-42.559,2.419-5.084,7.244-29.657
			c20.804-106.027,9.68-41.845,44.356-95.757c14.455-22.473-16.451-37.594,7.717-105.747c37.264-105.048,71.03-93.841,78.854-110.59
			C2397.305,385.661,2354.157,390.088,2303.491,385.03L2303.491,385.03z M1522.276,2351.272
			c50.877-62.402-65.21-17.936-79.547-16.85c-24.716,1.889-43.943,42.208-86.758,67.683c-60.15,35.774-20.036,55.414-108.996,29.904
			c-43.395-12.447-124.198,16.975-124.763,76.84c-0.372,39.929-78.401,108.136-117.37,95.436
			c-65.38-21.318-32.846,123.751-119.756,71.315c-44.306-26.73-36.261,85.342-90.643,56.003
			c-38.707-20.896-65.609,48.676-72.109,73.383c-45.647,19.801-36.348-52.966-83.462,49.467
			c-13.206,28.705-77.911-42.601-75.432,51.847c1.779,67.79-151.909,15.348-135.541,118.331
			c16.505,103.825,143.377,91.797,145.882,60.32c1.434-17.954,4.138-93.008,14.419-100.404
			c72.285-51.996,34.405,25.721,81.335-67.546c29.505-58.618,127.125,60.54,160.89-67.903
			c25.326-96.319,45.133-34.938,106.473-62.908c47.554-21.681,2.008-106.973,75.266-85.964
			c90.771,26.04,39.98-142.237,162.196-101.011c116.055,39.153,75.62-88.882,139.346-107.678
			c75.593-22.306,8.559-46.855,100.892-50.235c29.133-1.071-13.655-23.469,44.306-16.193
			C1495.999,2429.766,1507.729,2369.098,1522.276,2351.272L1522.276,2351.272z M499.14,1144.578
			c-19.269,40.629,54.813,18.409,53.489,43.868c-2.496,48.456,78.732,53.76,82.611,59.933c28.333,45.023,86.722,26.462,91.36,46.112
			c20.601,87.177,30.46,40.013,42.747,69.578c31.582,75.914,67.177,0.422,77.128,63.762c9.493,60.448,90.367,29.389,102.769,75.364
			c29.779,110.379,133.527,66.644,143.639,76.563c-3.585,14.714,32.248,29.151,49.003,39.769
			c61.358,38.918,74.04,143.698,134.158,119.655c80.014-32.01,31.287,39.079,87.29,44.752c74.049,7.515,29.633,61.605,67.909,83.825
			c91.488,53.102,16.243-37.672,111.872,12.388c15.44,8.077,15.702-43.538,15.431-44.306
			c-55.176-154.61-130.591-47.04-142.413-118.854c-7.776-47.215-68.721-5.06-69.682-58.794
			c-1.071-60.025-91.524-84.211-120.648-79.032c-95.326,16.957-51.047-8.517-68.4-20.131c-50.473-33.78-36.101,18.418-70.17-50.672
			c-33.548-68.028-112.31-38.85-124.572-62.438c-40.275-77.464-97.483-56.256-112.206-76.747
			c18.281-53.751-101.296-53.632-103.025-72.395c-5.12-55.732-93.404-29.288-101.591-59.612
			c-12.489-46.323-75.34-9.261-69.286-64.285C580.856,1133.835,521.893,1138.11,499.14,1144.578L499.14,1144.578z
			 M1868.743,2988.571c-11.385-24.567-22.508-47.411-33.453-68.637c-4.108,1.678-6.393,3.736-42.292-13.289
			c28.241-49.14-10.13-62.756-16.184-80.653c-16.225-47.983-95.46-31.058-89.852-65.178c5.995-36.496-19.557-16.57-10.525-41.616
			c-4.662-1.871-5.834-4.62-4.804-7.791c-53.162-31.362-110.034-32.296-178.576-12.025c-9.243,12.792-23.797,14.065-39.129,13.289
			c-21.949,8.342-45.088,18.436-69.628,30.038c-1.461,0.904-3.02,1.636-4.674,2.21c-21.393,10.213-43.833,21.53-67.486,33.807
			c-4.834,31.969-22.467,27.248-40.632,21.378c-22.904,12.167-46.843,25.028-71.99,38.522
			c-14.387,7.723-30.181,15.955-47.141,24.615c-4.831,10.549-8.601,18.846-24.481,24.412c0.202-1.99,0.642-4.248,1.392-6.831
			c5.566-19.15,36.895-13.593,37.856-50.36c0.589-22.836,90.468-35.074,113.708-62.209c4.421-5.153,9.318,2.799,30.865-29.752
			c14.556-22.002,70.776-12.153,107.327-48.295c5.968-5.902,51.21-33.992,57.773-33.545c41.783,2.883,59.189,18.712,103.581-2.219
			c4.459-2.106,82.034,8.812,84.244,11.808c31.496,42.619,23.425,25.096,49.086,80.145c10.028,21.512,84.726,14.354,92.062,109.915
			c0.919,11.915,16.552,1.636,27.905,40.09C1840.374,2919.041,1867.595,2946.615,1868.743,2988.571L1868.743,2988.571z
			 M1932.216,2035.353c-0.532,0.033-4.706-2.651-5.59-2.389c-19.676,5.905-48.896-37.002-72.609-20.592
			c-17.421,12.06-41.709,11.224-44.693,23.359c-1.696,6.831-22.071,52.647,6.56,69.539c22.371,13.206-3.204,35.206,5.373,52.621
			c9.698,19.664,32.296,13.905,47.501,19.623c24.692,9.285,29.978-12.295,50.919-7.345c39.718,9.377,49.384-31.403,44.383-40.224
			C1950.179,2105.412,1992.351,2031.878,1932.216,2035.353L1932.216,2035.353z M1764.257,1920.916l-2.395,2.573
			c-28.309,21.994-35.408,40.67-52.948,56.592c-59.151,53.65-30.916,101.728-44.258,140.872
			c-9.805,28.773,9.294,68.989,31.38,88.403c21.479,18.873,25.332,52.746,44.838,61.07c42.655,18.198,132.673,69.301,170.681,36.101
			c27.795-24.279,31.564-22.574,72.954-29.294c15.27-2.49,60.555-52.841,78.122-67.742c47.754-40.528,2.874-92.146,12.801-110.968
			c11.823-22.389-5.768-79.422-16.993-87.272c-30.41-21.286-35.039-41.953-67.54-68.272c-51.963-42.072-60.108-18.4-101.091-40.022
			C1856.867,1885.574,1796.262,1906.479,1764.257,1920.916z"/>
		<path style="fill-rule:evenodd;clip-rule:evenodd;fill:#D32C23;" d="M2127.934,1859.855c13.762-31.246,65.627,7.69,52.091,36.244
			C2153.899,1951.183,2079.588,1884.057,2127.934,1859.855L2127.934,1859.855z M2277.416,1662.754
			c10.508-23.865,50.125,5.875,39.787,27.685C2297.25,1732.52,2240.482,1681.238,2277.416,1662.754L2277.416,1662.754z
			 M2716.727,2201.259c7.979-18.12,38.05,4.453,30.198,21.006C2731.78,2254.209,2688.688,2215.282,2716.727,2201.259
			L2716.727,2201.259z M2461.168,2203.299c-2.496-9.924,10.374-24.74,19.53-21.309c6.132-6.366,23.925,14.506,15.803,26.608
			c-8.886,13.221-10.463,10.549-25.406,10.734C2462.349,2219.432,2462.349,2208.023,2461.168,2203.299L2461.168,2203.299z
			 M1473.645,2520.064c-4.95-19.733,20.634-49.188,38.832-42.366c12.194-12.658,47.587,28.839,31.43,52.891
			c-17.665,26.301-20.804,20.997-50.52,21.342C1476.007,2552.143,1475.998,2529.45,1473.645,2520.064L1473.645,2520.064z
			 M1897.228,2453.655c18.224-2.032,14.107,32.561-2.817,33.959C1861.785,2490.315,1872.958,2437.7,1897.228,2453.655
			L1897.228,2453.655z M1971.86,2854.756c18.221-2.023,14.107,32.561-2.808,33.962
			C1936.417,2891.422,1947.591,2838.81,1971.86,2854.756L1971.86,2854.756z M1588.87,2632.549
			c18.233-2.023,14.11,32.569-2.805,33.968C1553.427,2669.218,1564.61,2616.594,1588.87,2632.549L1588.87,2632.549z
			 M1803.985,2704.778c10.525-23.874,50.134,5.87,39.796,27.685C1823.827,2774.534,1767.06,2723.255,1803.985,2704.778
			L1803.985,2704.778z M1635.321,2438.155c10.513-23.874,50.134,5.878,39.793,27.685
			C1655.164,2507.92,1598.384,2456.642,1635.321,2438.155L1635.321,2438.155z M1641.821,2580.006
			c7.979-18.123,38.049,4.454,30.199,21.006C1656.874,2632.957,1613.782,2594.03,1641.821,2580.006L1641.821,2580.006z
			 M1860.806,2522.426c7.988-18.123,38.049,4.454,30.199,21.006C1875.868,2575.377,1832.776,2536.45,1860.806,2522.426
			L1860.806,2522.426z M1886.03,2607.521c7.976-18.114,38.055,4.462,30.199,21.015
			C1901.083,2660.481,1857.989,2621.554,1886.03,2607.521L1886.03,2607.521z M1257.483,2223.303
			c10.516-23.874,50.134,5.878,39.787,27.685C1277.317,2293.068,1220.55,2241.789,1257.483,2223.303L1257.483,2223.303z
			 M1498.352,2079.539c10.507-23.874,50.125,5.869,39.778,27.685C1518.18,2149.295,1461.409,2098.017,1498.352,2079.539
			L1498.352,2079.539z M1282.009,1994.197c10.513-23.871,50.131,5.864,39.784,27.679
			C1301.843,2063.957,1245.072,2012.675,1282.009,1994.197L1282.009,1994.197z M1420.281,1935.035
			c10.516-23.874,50.134,5.875,39.787,27.685C1440.115,2004.8,1383.344,1953.518,1420.281,1935.035L1420.281,1935.035z
			 M1357.295,2170.944c10.516-23.865,50.134,5.869,39.787,27.685C1377.129,2240.7,1320.359,2189.427,1357.295,2170.944
			L1357.295,2170.944z M2384.59,2360.379c10.508-23.865,50.125,5.878,39.787,27.685
			C2404.424,2430.144,2347.654,2378.865,2384.59,2360.379L2384.59,2360.379z M2276.532,2268.647
			c-4.95-19.733,20.625-49.188,38.823-42.366c12.194-12.658,47.587,28.83,31.43,52.891c-17.668,26.301-20.804,20.988-50.511,21.342
			C2278.876,2300.725,2278.876,2278.033,2276.532,2268.647L2276.532,2268.647z M2114.594,2551.527
			c-4.941-19.733,20.634-49.196,38.832-42.366c12.194-12.667,47.587,28.833,31.43,52.891
			c-17.665,26.292-20.804,20.988-50.511,21.342C2116.948,2583.597,2116.948,2560.913,2114.594,2551.527L2114.594,2551.527z
			 M2302.461,2360.953c-48.354,24.195,25.965,91.318,52.082,36.238C2368.085,2368.634,2316.223,2329.701,2302.461,2360.953
			L2302.461,2360.953z M2136.24,2331.522c13.765-31.251,65.627,7.684,52.091,36.244
			C2162.205,2422.843,2087.894,2355.717,2136.24,2331.522L2136.24,2331.522z M2245.658,2560.255
			c-48.346,24.195,25.965,91.319,52.082,36.244C2311.282,2567.937,2259.42,2529.004,2245.658,2560.255L2245.658,2560.255z
			 M2275.806,2701.422c7.976-18.123,38.049,4.462,30.207,21.015C2290.859,2754.373,2247.767,2715.455,2275.806,2701.422
			L2275.806,2701.422z M1758.938,1758.83c7.976-18.123,38.049,4.45,30.198,21.015
			C1773.991,1811.778,1730.899,1772.854,1758.938,1758.83L1758.938,1758.83z M1648.104,1784.584
			c7.985-18.114,38.049,4.468,30.207,21.015C1663.157,1837.541,1620.065,1798.616,1648.104,1784.584L1648.104,1784.584z
			 M1564.854,1727.712c7.988-18.123,38.049,4.453,30.199,21.015C1579.916,1780.663,1536.824,1741.736,1564.854,1727.712
			L1564.854,1727.712z M1658.73,1676.835c10.514-23.865,50.125,5.879,39.787,27.688
			C1678.564,1746.6,1621.803,1695.321,1658.73,1676.835L1658.73,1676.835z M1578.726,1606.995
			c-36.928,18.483,19.834,69.765,39.787,27.685C1628.85,1612.874,1589.242,1583.13,1578.726,1606.995L1578.726,1606.995z
			 M1467.445,1553.893c7.979-18.123,38.049,4.462,30.199,21.015C1482.499,1606.844,1439.407,1567.926,1467.445,1553.893
			L1467.445,1553.893z M1271.24,1533.375c7.976-18.12,38.049,4.453,30.204,21.009
			C1286.293,1586.325,1243.198,1547.399,1271.24,1533.375L1271.24,1533.375z M2408.961,1899.16
			c10.507-23.865,50.125,5.87,39.787,27.685C2428.795,1968.916,2372.024,1917.646,2408.961,1899.16L2408.961,1899.16z
			 M2344.771,1985.421c-56.931,28.494,30.576,107.544,61.331,42.678C2422.048,1994.477,2360.979,1948.627,2344.771,1985.421
			L2344.771,1985.421z M2309.218,1884.842c-4.04,8.794-18.216,26.513-4.513,37.222c23.41,18.299,22.541,24.397,52.772,14.91
			c27.643-8.678,25.956-63.188,8.535-60.93C2356.061,1859.341,2317.684,1866.347,2309.218,1884.842L2309.218,1884.842z
			 M2220.74,1808.306c-4.941-19.736,20.634-49.191,38.841-42.369c12.185-12.658,47.578,28.842,31.421,52.891
			c-17.668,26.301-20.795,20.997-50.52,21.354C2223.099,1840.385,2223.099,1817.692,2220.74,1808.306L2220.74,1808.306z
			 M1749.079,1635.052c-4.941-19.733,20.634-49.182,38.835-42.369c12.191-12.646,47.578,28.842,31.427,52.891
			c-17.674,26.304-20.804,21-50.52,21.354C1751.432,1667.13,1751.432,1644.447,1749.079,1635.052L1749.079,1635.052z
			 M1907.863,1607.534c18.998-7.268,51.306,14.598,46.709,33.489c14.024,10.591-22.94,50.69-48.75,37.526
			c-28.226-14.396-23.326-18.138-27.229-47.605C1876.305,1613.707,1898.823,1610.994,1907.863,1607.534L1907.863,1607.534z
			 M2286.516,1368.311c10.507-23.865,50.125,5.879,39.778,27.685C2306.341,1438.076,2249.57,1386.797,2286.516,1368.311
			L2286.516,1368.311z M2045.707,1288.933c10.507-23.865,50.125,5.875,39.778,27.685
			C2065.532,1358.699,2008.77,1307.417,2045.707,1288.933L2045.707,1288.933z M1837.143,1511.601
			c-48.354,24.204,25.965,91.33,52.073,36.247C1902.767,1519.294,1850.905,1480.358,1837.143,1511.601L1837.143,1511.601z
			 M1883.475,1397.783c10.516-23.883,50.134,5.87,39.787,27.685C1903.309,1467.539,1846.547,1416.26,1883.475,1397.783z"/>
		<path style="fill-rule:evenodd;clip-rule:evenodd;fill:#FFD08B;" d="M1867.999,2141.1c7.244-16.451,34.551,4.049,27.417,19.075
			C1881.669,2189.174,1842.54,2153.832,1867.999,2141.1L1867.999,2141.1z M519.185,1133.455c8.862-20.128,42.274,4.95,33.554,23.341
			C535.916,1192.284,488.044,1149.04,519.185,1133.455L519.185,1133.455z M695.349,1251.449
			c8.862-20.131,42.265,4.947,33.545,23.341C712.071,1310.276,664.207,1267.032,695.349,1251.449L695.349,1251.449z
			 M608.692,1207.411c7.244-16.451,34.542,4.049,27.417,19.075C622.362,1255.486,583.242,1220.144,608.692,1207.411
			L608.692,1207.411z M792.183,1332.192c10.507-23.874,50.125,5.87,39.787,27.685
			C812.017,1401.948,755.255,1350.678,792.183,1332.192L792.183,1332.192z M876.487,1411.42
			c-36.937,18.474,19.834,69.756,39.787,27.685C926.62,1417.29,887.003,1387.547,876.487,1411.42L876.487,1411.42z
			 M1373.074,1726.448c10.516-23.874,50.134,5.87,39.787,27.685C1392.908,1796.204,1336.138,1744.931,1373.074,1726.448
			L1373.074,1726.448z M1112.152,1556.728c10.508-23.865,50.125,5.867,39.778,27.685
			C1131.977,1626.484,1075.209,1575.211,1112.152,1556.728L1112.152,1556.728z M979.039,1498.321
			c0.657,10.558-4.04,33.748,15.255,40.596c32.98,11.712,35.351,18.409,60.361-1.3c22.889-18.028-7.705-74.826-23.829-66.829
			C1012.078,1456.416,977.646,1476.143,979.039,1498.321L979.039,1498.321z M1219.369,1634.299
			c-1.392-22.184,33.04-41.911,51.785-27.539c16.124-7.997,46.709,48.801,23.841,66.829c-25.022,19.709-27.39,13.012-60.37,1.306
			C1215.32,1668.041,1220.026,1644.851,1219.369,1634.299L1219.369,1634.299z M1437.351,1795.418
			c-1.392-22.178,33.04-41.902,51.785-27.542c16.124-7.985,46.718,48.801,23.832,66.832c-25.013,19.706-27.381,13.012-60.364,1.306
			C1433.311,1829.166,1438.008,1805.968,1437.351,1795.418L1437.351,1795.418z M1375.773,2396.935
			c7.506-17.04,35.78,4.183,28.393,19.76C1389.922,2446.732,1349.412,2410.125,1375.773,2396.935L1375.773,2396.935z
			 M1451.794,2345.706c10.516-23.865,50.125,5.878,39.778,27.685C1471.622,2415.471,1414.86,2364.192,1451.794,2345.706
			L1451.794,2345.706z M605.571,2922.548c-16.689-11.647,12.025-37.502,27.179-26.301
			C661.97,2917.836,614.175,2953.598,605.571,2922.548L605.571,2922.548z M678.053,2853.027
			c-16.698-11.638,12.025-37.499,27.17-26.302C734.443,2848.324,686.653,2884.077,678.053,2853.027L678.053,2853.027z
			 M775.056,2828.404c-32.947,8.476-34.405-56.128-3.701-63.119C830.578,2751.808,823.789,2851.367,775.056,2828.404
			L775.056,2828.404z M866.351,2708.951c-38.716,19.379,20.786,73.13,41.709,29.026
			C918.903,2715.11,877.373,2683.932,866.351,2708.951L866.351,2708.951z M478.884,2996.252
			c13.113-29.785,62.557,7.327,49.646,34.548C503.635,3083.305,432.79,3019.317,478.884,2996.252L478.884,2996.252z
			 M1004.516,2626.623c10.513-23.865,50.134,5.87,39.787,27.685C1024.35,2696.379,967.579,2645.106,1004.516,2626.623
			L1004.516,2626.623z M1149.847,2511.219c-7.464-20.931,20.164-49.417,42.149-40.798c13.28-12.135,58.395,33.968,41.396,57.621
			c-18.578,25.864-22.711,20.087-57.639,17.969C1155.312,2544.765,1153.414,2521.177,1149.847,2511.219L1149.847,2511.219z
			 M1602.365,1902.962c17.641-40.045,84.11,9.85,66.755,46.451C1635.648,2020.002,1540.4,1933.97,1602.365,1902.962
			L1602.365,1902.962z M1579.511,2294.787c-22.987-12.614-20.923-59.4,5.236-69.021c2.21-21.125,78.14-15.77,81.683,18.418
			c3.861,37.383-4.32,35.518-36.812,61.01C1610.611,2320.113,1590.456,2300.785,1579.511,2294.787L1579.511,2294.787z
			 M2269.404,3410.044c-12.447,7.372-20.718-18.831-9.014-25.332C2282.973,3372.183,2292.031,3413.629,2269.404,3410.044
			L2269.404,3410.044z M2285.201,3499.215c-16.698-11.638,12.025-37.502,27.17-26.304
			C2341.591,3494.5,2293.802,3530.264,2285.201,3499.215L2285.201,3499.215z M2285.933,3628.928
			c-6.435-18.019,17.356-42.559,36.297-35.14c11.433-10.448,50.285,29.255,35.646,49.628
			c-15.999,22.271-19.566,17.296-49.637,15.467C2290.63,3657.812,2288.994,3637.505,2285.933,3628.928L2285.933,3628.928z
			 M2227.198,3344.26c8.601,31.058,56.39-4.706,27.17-26.301C2239.223,3306.758,2210.5,3332.631,2227.198,3344.26L2227.198,3344.26z
			 M2227.282,3263.389c-32.948,8.467-34.405-56.131-3.701-63.119C2282.812,3186.785,2276.026,3286.344,2227.282,3263.389
			L2227.282,3263.389z M2190.262,3049.709c25.433,13.56-10.618,54.745-33.798,41.539
			C2111.759,3065.782,2172.966,3007.486,2190.262,3049.709L2190.262,3049.709z M2114.208,2983.005
			c8.6,31.058,56.39-4.706,27.179-26.304C2126.232,2945.503,2097.518,2971.376,2114.208,2983.005L2114.208,2983.005z
			 M2074.463,2817.956c11.022-25.028,52.546,6.155,41.708,29.018C2095.248,2891.077,2035.738,2837.326,2074.463,2817.956
			L2074.463,2817.956z M2097.078,2784.3c9.184-5.236,32.079-11.224,29.735-31.573c-3.995-34.759,0.97-39.837-27.735-53.623
			c-26.26-12.617-63.794,39.843-49.527,50.806C2044.904,2773.067,2077.768,2795.305,2097.078,2784.3L2097.078,2784.3z
			 M1953.392,2561.005c-7.479-20.92,20.146-49.417,42.14-40.798c13.28-12.135,58.395,33.968,41.396,57.622
			c-18.578,25.864-22.711,20.09-57.639,17.963C1958.839,2594.553,1956.941,2570.965,1953.392,2561.005L1953.392,2561.005z
			 M3470.146,2028.064c13.128-29.785,62.563,7.33,49.652,34.542C3494.898,2115.111,3424.062,2051.12,3470.146,2028.064
			L3470.146,2028.064z M3289.074,2053.271c10.525-23.865,50.134,5.879,39.787,27.685
			C3308.917,2123.036,3252.146,2071.757,3289.074,2053.271L3289.074,2053.271z M3009.011,2024.339
			c10.517-23.868,50.125,5.875,39.778,27.685C3028.836,2094.104,2972.074,2042.823,3009.011,2024.339L3009.011,2024.339z
			 M2448.293,2052.53c10.513-23.865,50.125,5.87,39.787,27.685C2468.127,2122.286,2411.356,2071.013,2448.293,2052.53
			L2448.293,2052.53z M3093.475,2024.464c-36.937,18.486,19.834,69.765,39.787,27.685
			C3143.6,2030.343,3103.983,2000.599,3093.475,2024.464L3093.475,2024.464z M2881.69,2022.947
			c17.6-10.204,52.978,6.238,51.451,25.617c15.532,8.214-14.565,53.7-42.149,44.814c-30.157-9.707-25.924-14.185-34.473-42.646
			C2851.518,2034.079,2873.318,2027.811,2881.69,2022.947L2881.69,2022.947z M2568.242,2072.01
			c-7.464-20.923,20.161-49.417,42.146-40.798c1.502-1.366,3.406-1.99,5.584-1.999c-4.251-7.202-3.709-15.94,6.78-21.193
			c7.976-18.111,38.049,4.462,30.198,21.024c-3.879,8.172-9.579,11.697-15.458,12.185c13.375,13.113,24.035,34.045,14.295,47.614
			c-18.587,25.855-22.72,20.078-57.648,17.963C2573.698,2105.564,2571.791,2081.967,2568.242,2072.01L2568.242,2072.01z
			 M2298.187,2107.881c-7.473-20.928,20.155-49.417,42.149-40.798c13.28-12.144,58.389,33.959,41.396,57.621
			c-18.587,25.864-22.719,20.081-57.648,17.963C2303.643,2141.43,2301.736,2117.842,2298.187,2107.881L2298.187,2107.881z
			 M1957.768,2138.166c16.814,8.002-5.245,35.646-20.592,27.801C1907.575,2150.848,1945.354,2111.425,1957.768,2138.166
			L1957.768,2138.166z M1946.249,2050.245c7.244-16.454,34.542,4.046,27.414,19.075
			C1959.919,2098.32,1920.798,2062.978,1946.249,2050.245L1946.249,2050.245z M2180.573,2069.841
			c25.332-1.678,54.257,40.016,41.051,62.708c12.111,19.521-47.899,56.542-72.791,28.839c-27.224-30.291-19.92-33.158-12.34-73.088
			C2140.931,2064.941,2168.521,2070.635,2180.573,2069.841L2180.573,2069.841z M2024.04,1528.838
			c10.507-23.865,50.128,5.878,39.787,27.688C2043.877,1598.603,1987.107,1547.324,2024.04,1528.838L2024.04,1528.838z
			 M2109.492,1174.289c10.516-23.874,50.134,5.867,39.787,27.685C2129.326,1244.045,2072.556,1192.772,2109.492,1174.289
			L2109.492,1174.289z M2298.169,422.327c10.525-23.865,50.142,5.878,39.796,27.685
			C2318.011,492.092,2261.241,440.813,2298.169,422.327L2298.169,422.327z M2237.899,626.336
			c10.516-23.874,50.134,5.87,39.796,27.676C2257.742,696.092,2200.972,644.813,2237.899,626.336L2237.899,626.336z
			 M2166.617,886.044c-24.54-22.871,28.342-58.398,50.455-36.609C2259.724,891.465,2173.439,938.716,2166.617,886.044
			L2166.617,886.044z M2135.356,1028.77c10.516-23.874,50.134,5.879,39.796,27.685
			C2155.199,1098.535,2098.429,1047.253,2135.356,1028.77L2135.356,1028.77z M2110.783,1283.106
			c10.514-23.865,50.125,5.87,39.787,27.685C2130.617,1352.862,2073.847,1301.589,2110.783,1283.106L2110.783,1283.106z
			 M2042.747,1383.81c17.6-10.204,52.975,6.241,51.448,25.62c15.532,8.214-14.565,53.701-42.149,44.811
			c-30.154-9.707-25.921-14.184-34.474-42.646C2012.572,1394.942,2034.372,1388.677,2042.747,1383.81L2042.747,1383.81z
			 M1990.471,1669.18c-7.473-20.923,20.155-49.411,42.137-40.792c13.283-12.144,58.398,33.962,41.399,57.625
			c-18.578,25.861-22.71,20.078-57.639,17.96C1995.927,1702.734,1994.029,1679.137,1990.471,1669.18L1990.471,1669.18z
			 M1936.67,1821.259c5.111-24.861,52.984-41.676,71.36-22.922c22.032-6.485,41.792,61.197,8.473,77.845
			c-36.428,18.198-37.264,10.397-73.737-7.515C1921.414,1858.184,1934.239,1833.096,1936.67,1821.259L1936.67,1821.259z
			 M1903.157,2380.561c-2.978-25.215,37.172-56.247,60.513-44.231c18.873-13.087,58.939,44.939,32.543,71.223
			c-28.848,28.741-32.088,21.598-72.353,16.082C1900.298,2420.395,1904.573,2392.55,1903.157,2380.561L1903.157,2380.561z
			 M1831.765,2040.612c7.506-17.04,35.779,4.192,28.402,19.768C1845.922,2090.41,1805.404,2053.803,1831.765,2040.612z"/>
		<path style="fill-rule:evenodd;clip-rule:evenodd;fill:#FFD08B;" d="M1423.223,1672.366c-16.898,1.062-11.584-30.645,4.076-31.201
			C1457.503,1640.094,1444.913,1688.128,1423.223,1672.366z"/>
		<path style="fill-rule:evenodd;clip-rule:evenodd;fill:#FFD08B;" d="M1795.872,1628.787c-16.898,1.071-11.593-30.645,4.076-31.204
			C1830.152,1596.521,1817.553,1644.554,1795.872,1628.787z"/>
		<path style="fill-rule:evenodd;clip-rule:evenodd;fill:#FFD08B;" d="M1925.418,1641.662c-16.898,1.071-11.584-30.645,4.073-31.201
			C1959.699,1609.39,1947.109,1657.423,1925.418,1641.662z"/>
		<path style="fill-rule:evenodd;clip-rule:evenodd;fill:#FFD08B;" d="M1673.058,1725.029c-16.901,1.071-11.596-30.645,4.073-31.192
			C1707.338,1692.766,1694.739,1740.799,1673.058,1725.029z"/>
		<path style="fill-rule:evenodd;clip-rule:evenodd;fill:#FFD08B;" d="M1867.746,1545.569c-16.898,1.071-11.593-30.645,4.073-31.201
			C1902.026,1513.306,1889.428,1561.339,1867.746,1545.569z"/>
		<path style="fill-rule:evenodd;clip-rule:evenodd;fill:#FFD08B;" d="M2360.169,1890.155c-16.901,1.062-11.596-30.654,4.073-31.204
			C2394.446,1857.88,2381.851,1905.916,2360.169,1890.155z"/>
		<path style="fill-rule:evenodd;clip-rule:evenodd;fill:#FFD08B;" d="M2266.95,1794.559c-16.898,1.071-11.593-30.645,4.076-31.201
			C2301.23,1762.287,2288.631,1810.32,2266.95,1794.559z"/>
		<path style="fill-rule:evenodd;clip-rule:evenodd;fill:#FFD08B;" d="M2416.205,1908.436c-16.901,1.062-11.596-30.645,4.073-31.201
			C2450.485,1876.164,2437.886,1924.197,2416.205,1908.436z"/>
		<path style="fill-rule:evenodd;clip-rule:evenodd;fill:#FFD08B;" d="M1497.07,2541.231c-16.898,1.071-11.584-30.645,4.076-31.201
			C1531.359,2508.958,1518.76,2557.001,1497.07,2541.231z"/>
		<path style="fill-rule:evenodd;clip-rule:evenodd;fill:#FFD08B;" d="M1656.594,2484.537
			c-14.411,8.889-24.638-21.598-11.079-29.449C1671.675,2439.934,1683.143,2488.256,1656.594,2484.537z"/>
		<path style="fill-rule:evenodd;clip-rule:evenodd;fill:#FFD08B;" d="M1830.45,2739.37c-8.172,5.033-13.967-12.236-6.283-16.689
			C1838.991,2714.098,1845.485,2741.479,1830.45,2739.37z"/>
		<path style="fill-rule:evenodd;clip-rule:evenodd;fill:#FFD08B;" d="M1356.867,2177.251c-8.163,5.042-13.967-12.227-6.283-16.681
			C1365.408,2151.988,1371.911,2179.36,1356.867,2177.251z"/>
		<path style="fill-rule:evenodd;clip-rule:evenodd;fill:#FFD08B;" d="M2163.565,2380.567c-16.9,1.071-11.587-30.645,4.073-31.201
			C2197.845,2348.303,2185.252,2396.337,2163.565,2380.567z"/>
		<path style="fill-rule:evenodd;clip-rule:evenodd;fill:#FFD08B;" d="M2333.698,2271.514c-16.901,1.071-11.596-30.645,4.073-31.195
			C2367.979,2239.248,2355.38,2287.285,2333.698,2271.514z"/>
		<path style="fill-rule:evenodd;clip-rule:evenodd;fill:#FFD08B;" d="M2324.589,2415.108c-16.898,1.071-11.594-30.645,4.073-31.201
			C2358.869,2382.845,2346.27,2430.879,2324.589,2415.108z"/>
		<path style="fill-rule:evenodd;clip-rule:evenodd;fill:#FFD08B;" d="M2160.09,2574.854c-16.901,1.071-11.596-30.645,4.073-31.201
			C2194.37,2542.581,2181.78,2590.624,2160.09,2574.854z"/>
		<path style="fill-rule:evenodd;clip-rule:evenodd;fill:#FFD08B;" d="M1414.438,1949.142c-16.901,1.062-11.596-30.645,4.073-31.201
			C1448.718,1916.87,1436.119,1964.903,1414.438,1949.142z"/>
		<path style="fill-rule:evenodd;clip-rule:evenodd;fill:#FFD08B;" d="M1490.552,2091.127c-8.163,5.033-13.955-12.236-6.274-16.689
			C1499.096,2065.852,1505.596,2093.236,1490.552,2091.127z"/>
		<path style="fill-rule:evenodd;clip-rule:evenodd;fill:#FFD08B;" d="M2285.326,2610.582c-8.163,5.037-13.955-12.236-6.274-16.68
			C2293.876,2585.319,2300.37,2612.691,2285.326,2610.582z"/>
		<path style="fill-rule:evenodd;clip-rule:evenodd;fill:#FFD08B;" d="M2293.667,2742.886c-8.163,5.033-13.958-12.236-6.274-16.681
			C2302.208,2717.62,2308.712,2744.996,2293.667,2742.886z"/>
		<path style="fill-rule:evenodd;clip-rule:evenodd;fill:#FFD08B;" d="M1642.782,2617.472c-8.169,5.034-13.964-12.236-6.28-16.689
			C1651.326,2592.209,1657.826,2619.581,1642.782,2617.472z"/>
		<path style="fill-rule:evenodd;clip-rule:evenodd;fill:#FFD08B;" d="M1862.207,2553.586c-8.163,5.033-13.964-12.236-6.274-16.689
			C1870.748,2528.32,1877.251,2555.695,1862.207,2553.586z"/>
		<path style="fill-rule:evenodd;clip-rule:evenodd;fill:#FFD08B;" d="M1258.986,2263.613c-8.163,5.042-13.955-12.227-6.274-16.68
			C1267.527,2238.347,1274.03,2265.719,1258.986,2263.613z"/>
		<path style="fill-rule:evenodd;clip-rule:evenodd;fill:#FFD08B;" d="M1283.104,2015.923c-8.172,5.034-13.964-12.239-6.283-16.689
			C1291.648,1990.648,1298.148,2018.021,1283.104,2015.923z"/>
		<path style="fill-rule:evenodd;clip-rule:evenodd;fill:#FFD08B;" d="M490.049,2847.193c-13.027,8.035-22.279-19.521-10.017-26.623
			C503.677,2806.874,514.051,2850.558,490.049,2847.193z"/>
		<path style="fill-rule:evenodd;clip-rule:evenodd;fill:#FFD08B;" d="M1273.557,2663.45c-8.163,5.042-13.964-12.23-6.274-16.68
			C1282.101,2638.184,1288.601,2665.556,1273.557,2663.45z"/>
		<path style="fill-rule:evenodd;clip-rule:evenodd;fill:#FFD08B;" d="M1253.985,2361.491c-8.172,5.037-13.964-12.236-6.283-16.686
			C1262.526,2336.219,1269.02,2363.592,1253.985,2361.491z"/>
		<path style="fill-rule:evenodd;clip-rule:evenodd;fill:#FFD08B;" d="M2180.912,1541.464c-8.172,5.034-13.967-12.236-6.283-16.689
			C2189.453,1516.197,2195.947,1543.573,2180.912,1541.464z"/>
		<path style="fill-rule:evenodd;clip-rule:evenodd;fill:#FFD08B;" d="M2273.89,1233.805c-8.163,5.036-13.964-12.236-6.274-16.686
			C2282.434,1208.533,2288.934,1235.905,2273.89,1233.805z"/>
		<path style="fill-rule:evenodd;clip-rule:evenodd;fill:#FFD08B;" d="M1952.532,1274.478c-8.163,5.034-13.964-12.236-6.283-16.689
			C1961.073,1249.206,1967.576,1276.579,1952.532,1274.478z"/>
		<path style="fill-rule:evenodd;clip-rule:evenodd;fill:#FFD08B;" d="M2009.184,1103.393c-8.163,5.034-13.955-12.236-6.274-16.689
			C2017.725,1078.127,2024.228,1105.499,2009.184,1103.393z"/>
		<path style="fill-rule:evenodd;clip-rule:evenodd;fill:#FFD08B;" d="M1134.574,1424.507c-8.163,5.034-13.955-12.236-6.274-16.689
			C1143.127,1399.235,1149.618,1426.607,1134.574,1424.507z"/>
		<path style="fill-rule:evenodd;clip-rule:evenodd;fill:#FFD08B;" d="M1283.333,1479.618c-8.163,5.043-13.958-12.23-6.274-16.68
			C1291.883,1454.351,1298.377,1481.724,1283.333,1479.618z"/>
		<path style="fill-rule:evenodd;clip-rule:evenodd;fill:#FFD08B;" d="M1576.063,1463.705c-8.163,5.034-13.958-12.236-6.274-16.689
			C1584.613,1438.43,1591.107,1465.802,1576.063,1463.705z"/>
		<path style="fill-rule:evenodd;clip-rule:evenodd;fill:#FFD08B;" d="M1628.041,1527.145c-8.163,5.042-13.955-12.23-6.274-16.68
			C1636.585,1501.879,1643.085,1529.251,1628.041,1527.145z"/>
		<path style="fill-rule:evenodd;clip-rule:evenodd;fill:#FFD08B;" d="M2656.223,1907.567c-8.172,5.034-13.967-12.236-6.283-16.689
			C2664.764,1882.304,2671.258,1909.677,2656.223,1907.567z"/>
		<path style="fill-rule:evenodd;clip-rule:evenodd;fill:#FFD08B;" d="M2737.37,1967.004c-8.163,5.034-13.964-12.236-6.274-16.689
			C2745.914,1941.729,2752.414,1969.104,2737.37,1967.004z"/>
		<path style="fill-rule:evenodd;clip-rule:evenodd;fill:#FFD08B;" d="M2898.623,1991.214c-8.163,5.034-13.956-12.236-6.274-16.68
			C2907.176,1965.948,2913.667,1993.323,2898.623,1991.214z"/>
		<path style="fill-rule:evenodd;clip-rule:evenodd;fill:#FFD08B;" d="M2745.019,2216.187c-8.169,5.033-13.964-12.236-6.28-16.68
			C2753.563,2190.921,2760.063,2218.293,2745.019,2216.187z"/>
		<path style="fill-rule:evenodd;clip-rule:evenodd;fill:#FFD08B;" d="M2502.776,2225.284c-8.163,5.036-13.964-12.236-6.274-16.687
			C2511.32,2200.012,2517.82,2227.385,2502.776,2225.284z"/>
		<path style="fill-rule:evenodd;clip-rule:evenodd;fill:#FFD08B;" d="M1385.132,2578.251c-8.169,5.033-13.964-12.236-6.28-16.689
			C1393.676,2552.979,1400.17,2580.36,1385.132,2578.251z"/>
		<path style="fill-rule:evenodd;clip-rule:evenodd;fill:#FFD08B;" d="M1013.099,2507.754c-8.163,5.033-13.955-12.239-6.274-16.689
			C1021.643,2482.479,1028.143,2509.851,1013.099,2507.754z"/>
		<path style="fill-rule:evenodd;clip-rule:evenodd;fill:#FFD08B;" d="M993.098,2798.012c-8.163,5.033-13.958-12.236-6.274-16.689
			C1001.648,2772.746,1008.142,2800.121,993.098,2798.012z"/>
		<path style="fill-rule:evenodd;clip-rule:evenodd;fill:#FFD08B;" d="M2913.391,2212.441c-8.163,5.033-13.956-12.236-6.274-16.689
			C2921.932,2187.169,2928.435,2214.551,2913.391,2212.441z"/>
		<path style="fill-rule:evenodd;clip-rule:evenodd;fill:#FFD08B;" d="M2272.129,1100.415c-8.163,5.034-13.955-12.236-6.274-16.689
			C2280.67,1075.143,2287.173,1102.515,2272.129,1100.415z"/>
		<path style="fill-rule:evenodd;clip-rule:evenodd;fill:#FFD08B;" d="M2308.492,1484.288c-8.163,5.042-13.956-12.236-6.274-16.681
			C2317.042,1459.022,2323.536,1486.397,2308.492,1484.288z"/>
		<path style="fill-rule:evenodd;clip-rule:evenodd;fill:#FFD08B;" d="M2187.32,1615.031c-8.163,5.042-13.955-12.227-6.274-16.68
			C2195.861,1589.767,2202.364,1617.14,2187.32,1615.031z"/>
		<path style="fill-rule:evenodd;clip-rule:evenodd;fill:#FFD08B;" d="M1395.068,1457.252c-8.163,5.034-13.967-12.236-6.274-16.689
			C1403.609,1431.98,1410.112,1459.352,1395.068,1457.252z"/>
		<path style="fill-rule:evenodd;clip-rule:evenodd;fill:#FFD08B;" d="M946.656,1323.16c-8.163,5.036-13.955-12.236-6.274-16.686
			C955.201,1297.897,961.701,1325.269,946.656,1323.16z"/>
		<path style="fill-rule:evenodd;clip-rule:evenodd;fill:#FFD08B;" d="M1879.485,1329.107c-8.163,5.034-13.955-12.236-6.274-16.689
			C1888.026,1303.841,1894.53,1331.213,1879.485,1329.107z"/>
	</g>
</g>
</svg>
